%TF.GenerationSoftware,KiCad,Pcbnew,8.0.3*%
%TF.CreationDate,2024-06-11T07:04:39+05:45*%
%TF.ProjectId,HardwareDesign,48617264-7761-4726-9544-657369676e2e,rev?*%
%TF.SameCoordinates,Original*%
%TF.FileFunction,Copper,L2,Bot*%
%TF.FilePolarity,Positive*%
%FSLAX46Y46*%
G04 Gerber Fmt 4.6, Leading zero omitted, Abs format (unit mm)*
G04 Created by KiCad (PCBNEW 8.0.3) date 2024-06-11 07:04:39*
%MOMM*%
%LPD*%
G01*
G04 APERTURE LIST*
G04 Aperture macros list*
%AMRoundRect*
0 Rectangle with rounded corners*
0 $1 Rounding radius*
0 $2 $3 $4 $5 $6 $7 $8 $9 X,Y pos of 4 corners*
0 Add a 4 corners polygon primitive as box body*
4,1,4,$2,$3,$4,$5,$6,$7,$8,$9,$2,$3,0*
0 Add four circle primitives for the rounded corners*
1,1,$1+$1,$2,$3*
1,1,$1+$1,$4,$5*
1,1,$1+$1,$6,$7*
1,1,$1+$1,$8,$9*
0 Add four rect primitives between the rounded corners*
20,1,$1+$1,$2,$3,$4,$5,0*
20,1,$1+$1,$4,$5,$6,$7,0*
20,1,$1+$1,$6,$7,$8,$9,0*
20,1,$1+$1,$8,$9,$2,$3,0*%
G04 Aperture macros list end*
%TA.AperFunction,ComponentPad*%
%ADD10O,1.100000X2.200000*%
%TD*%
%TA.AperFunction,ComponentPad*%
%ADD11R,1.700000X1.700000*%
%TD*%
%TA.AperFunction,ComponentPad*%
%ADD12O,1.700000X1.700000*%
%TD*%
%TA.AperFunction,HeatsinkPad*%
%ADD13C,0.500000*%
%TD*%
%TA.AperFunction,HeatsinkPad*%
%ADD14R,5.200000X5.200000*%
%TD*%
%TA.AperFunction,ComponentPad*%
%ADD15RoundRect,0.250001X-0.799999X-1.549999X0.799999X-1.549999X0.799999X1.549999X-0.799999X1.549999X0*%
%TD*%
%TA.AperFunction,ComponentPad*%
%ADD16O,2.100000X3.600000*%
%TD*%
%TA.AperFunction,ComponentPad*%
%ADD17RoundRect,0.250000X-0.600000X-0.600000X0.600000X-0.600000X0.600000X0.600000X-0.600000X0.600000X0*%
%TD*%
%TA.AperFunction,ComponentPad*%
%ADD18C,1.700000*%
%TD*%
%TA.AperFunction,HeatsinkPad*%
%ADD19C,0.600000*%
%TD*%
%TA.AperFunction,HeatsinkPad*%
%ADD20R,2.450000X2.450000*%
%TD*%
%TA.AperFunction,ViaPad*%
%ADD21C,0.600000*%
%TD*%
%TA.AperFunction,ViaPad*%
%ADD22C,0.500000*%
%TD*%
%TA.AperFunction,Conductor*%
%ADD23C,0.500000*%
%TD*%
%TA.AperFunction,Conductor*%
%ADD24C,0.750000*%
%TD*%
%TA.AperFunction,Conductor*%
%ADD25C,0.200000*%
%TD*%
%TA.AperFunction,Conductor*%
%ADD26C,0.400000*%
%TD*%
%TA.AperFunction,Conductor*%
%ADD27C,0.300000*%
%TD*%
G04 APERTURE END LIST*
D10*
%TO.P,J2,S1,SHIELD*%
%TO.N,GND*%
X80185000Y-36000000D03*
%TO.P,J2,S2,SHIELD*%
X75885000Y-36000000D03*
%TO.P,J2,S3,SHIELD*%
X80185000Y-40800000D03*
%TO.P,J2,S4,SHIELD*%
X75885000Y-40800000D03*
%TD*%
D11*
%TO.P,J4,1,Pin_1*%
%TO.N,+3V3*%
X80290000Y-21980000D03*
D12*
%TO.P,J4,2,Pin_2*%
%TO.N,RESERVE_1*%
X77750000Y-21980000D03*
%TO.P,J4,3,Pin_3*%
%TO.N,RESERVE_2*%
X75210000Y-21980000D03*
%TO.P,J4,4,Pin_4*%
%TO.N,RESERVE_3*%
X72670000Y-21980000D03*
%TO.P,J4,5,Pin_5*%
%TO.N,RESERVE_4*%
X70130000Y-21980000D03*
%TO.P,J4,6,Pin_6*%
%TO.N,RESERVE_5*%
X67590000Y-21980000D03*
%TO.P,J4,7,Pin_7*%
%TO.N,GND*%
X65050000Y-21980000D03*
%TD*%
D13*
%TO.P,D3,69,GND*%
%TO.N,GND*%
X152220000Y-80880000D03*
X151045000Y-80880000D03*
X149870000Y-80880000D03*
X148695000Y-80880000D03*
X147520000Y-80880000D03*
X152220000Y-82055000D03*
X151045000Y-82055000D03*
X149870000Y-82055000D03*
X148695000Y-82055000D03*
X147520000Y-82055000D03*
X152220000Y-83230000D03*
X151045000Y-83230000D03*
X149870000Y-83230000D03*
D14*
X149870000Y-83230000D03*
D13*
X148695000Y-83230000D03*
X147520000Y-83230000D03*
X152220000Y-84405000D03*
X151045000Y-84405000D03*
X149870000Y-84405000D03*
X148695000Y-84405000D03*
X147520000Y-84405000D03*
X152220000Y-85580000D03*
X151045000Y-85580000D03*
X149870000Y-85580000D03*
X148695000Y-85580000D03*
X147520000Y-85580000D03*
%TD*%
D15*
%TO.P,J5,1,Pin_1*%
%TO.N,CP_OUT*%
X150550000Y-143230000D03*
D16*
%TO.P,J5,2,Pin_2*%
%TO.N,GND*%
X158170000Y-143230000D03*
%TO.P,J5,3,Pin_3*%
X165790000Y-143230000D03*
%TD*%
D11*
%TO.P,J1,1,Pin_1*%
%TO.N,SERIAL_IO_0_INT*%
X118700000Y-81525000D03*
D12*
%TO.P,J1,2,Pin_2*%
%TO.N,SERIAL_IO_1_CLK*%
X118700000Y-78985000D03*
%TO.P,J1,3,Pin_3*%
%TO.N,SERIAL_IO_2_CS*%
X118700000Y-76445000D03*
%TO.P,J1,4,Pin_4*%
%TO.N,SERIAL_IO_3_MISO*%
X118700000Y-73905000D03*
%TO.P,J1,5,Pin_5*%
%TO.N,SERIAL_IO_4_MOSI*%
X118700000Y-71365000D03*
%TO.P,J1,6,Pin_6*%
%TO.N,RESER_L*%
X118700000Y-68825000D03*
%TO.P,J1,7,Pin_7*%
%TO.N,GND*%
X118700000Y-66285000D03*
%TD*%
D17*
%TO.P,J3,1,Pin_1*%
%TO.N,/ESP32/EN*%
X141200000Y-25880000D03*
D18*
%TO.P,J3,2,Pin_2*%
%TO.N,+3V3*%
X143740000Y-25880000D03*
%TO.P,J3,3,Pin_3*%
%TO.N,TXD0*%
X141200000Y-28420000D03*
%TO.P,J3,4,Pin_4*%
%TO.N,GND*%
X143740000Y-28420000D03*
%TO.P,J3,5,Pin_5*%
%TO.N,RXD0*%
X141200000Y-30960000D03*
%TO.P,J3,6,Pin_6*%
%TO.N,/ESP32/Boot*%
X143740000Y-30960000D03*
%TD*%
D19*
%TO.P,U2,41,GND*%
%TO.N,GND*%
X110280000Y-28560000D03*
X110280000Y-29960000D03*
X110980000Y-27860000D03*
X110980000Y-29260000D03*
X110980000Y-30660000D03*
X111680000Y-28560000D03*
X111680000Y-29960000D03*
X112380000Y-27860000D03*
X112380000Y-29260000D03*
X112380000Y-30660000D03*
X113080000Y-28560000D03*
X113080000Y-29960000D03*
%TD*%
D13*
%TO.P,U7,25,EP*%
%TO.N,GND*%
X83875000Y-96787500D03*
X83875000Y-97762500D03*
X83875000Y-98737500D03*
X84850000Y-96787500D03*
X84850000Y-97762500D03*
D20*
X84850000Y-97762500D03*
D13*
X84850000Y-98737500D03*
X85825000Y-96787500D03*
X85825000Y-97762500D03*
X85825000Y-98737500D03*
%TD*%
D21*
%TO.N,GND*%
X53250000Y-97540000D03*
X59310000Y-69930000D03*
X136450000Y-132250000D03*
X78950000Y-122220000D03*
X165540000Y-67440000D03*
X149790000Y-21320000D03*
X124200000Y-110660000D03*
X113210000Y-104200000D03*
X166210000Y-98630000D03*
X140350000Y-110620000D03*
D22*
X149160000Y-68440000D03*
D21*
X91050000Y-122400000D03*
X156620000Y-56760000D03*
X126320000Y-59540000D03*
X164060000Y-98610000D03*
X141370000Y-67620000D03*
X85010000Y-122340000D03*
X143360000Y-67540000D03*
X163620000Y-67370000D03*
X135380000Y-87490000D03*
D22*
X149220000Y-89120000D03*
D21*
X124770000Y-91600000D03*
X157620000Y-98660000D03*
X176280000Y-79760000D03*
X97770000Y-114060000D03*
X56970000Y-70000000D03*
D22*
X89630000Y-24930000D03*
D21*
X159600000Y-67530000D03*
X149020000Y-98460000D03*
X124910000Y-86190000D03*
X85770000Y-140490000D03*
X124170000Y-121760000D03*
X124330000Y-130070000D03*
X60610000Y-78610000D03*
X63900000Y-80130000D03*
X135220000Y-85490000D03*
X159770000Y-98410000D03*
X95890000Y-110190000D03*
X135330000Y-74130000D03*
X151500000Y-98380000D03*
X76080000Y-91390000D03*
X168630000Y-34590000D03*
X74510000Y-94110000D03*
X177820000Y-63800000D03*
X96880000Y-109950000D03*
X54660000Y-36250000D03*
X63230000Y-43480000D03*
X54550000Y-21330000D03*
X135320000Y-72020000D03*
X144930000Y-94540000D03*
D22*
X70500000Y-38810000D03*
D21*
X89350000Y-92720000D03*
X80280000Y-80220000D03*
X122590000Y-133440000D03*
X94970000Y-80540000D03*
X63930000Y-93450000D03*
X147350000Y-98460000D03*
X135330000Y-76670000D03*
X155500000Y-98560000D03*
X168300000Y-21550000D03*
X57350000Y-117470000D03*
X56950000Y-43560000D03*
X98130000Y-88750000D03*
X168200000Y-98500000D03*
X86160000Y-94880000D03*
X94970000Y-82630000D03*
X135240000Y-81120000D03*
D22*
X89580000Y-30970000D03*
D21*
X172410000Y-21550000D03*
X57280000Y-101570000D03*
X54610000Y-65780000D03*
X151270000Y-68370000D03*
X153680000Y-34730000D03*
X153300000Y-67570000D03*
X54550000Y-126650000D03*
X127040000Y-78010000D03*
X161700000Y-67450000D03*
X56010000Y-147710000D03*
X95060000Y-86430000D03*
X137210000Y-114470000D03*
X57040000Y-145490000D03*
X154830000Y-85030000D03*
X176340000Y-87220000D03*
X81610000Y-96630000D03*
X115010000Y-104250000D03*
X61700000Y-27390000D03*
X153550000Y-98400000D03*
X59200000Y-93530000D03*
X63390000Y-69840000D03*
X61780000Y-53690000D03*
X152010000Y-41020000D03*
X140860000Y-98490000D03*
X120600000Y-21460000D03*
X126980000Y-80350000D03*
D22*
X89640000Y-26960000D03*
X89620000Y-22860000D03*
D21*
X89330000Y-105440000D03*
X53240000Y-113450000D03*
X128260000Y-107290000D03*
X161950000Y-98440000D03*
X176360000Y-84970000D03*
X64030000Y-56830000D03*
X120680000Y-105150000D03*
X59280000Y-145360000D03*
X131840000Y-109140000D03*
X102840000Y-21330000D03*
X176400000Y-82920000D03*
X81170000Y-97260000D03*
X61880000Y-129240000D03*
X74530000Y-92140000D03*
X54460000Y-111090000D03*
X96870000Y-106540000D03*
X139350000Y-109150000D03*
X170570000Y-40390000D03*
X172670000Y-63930000D03*
X170360000Y-27680000D03*
X149690000Y-34660000D03*
D22*
X87050000Y-37610000D03*
D21*
X155470000Y-84990000D03*
X143070000Y-98440000D03*
X95090000Y-84620000D03*
X134460000Y-113000000D03*
X157540000Y-67500000D03*
X57010000Y-93400000D03*
X153970000Y-21400000D03*
X155440000Y-67620000D03*
X54650000Y-86130000D03*
X59320000Y-43510000D03*
X100130000Y-139760000D03*
X92860000Y-122350000D03*
X171650000Y-48170000D03*
X55820000Y-123150000D03*
X55390000Y-107170000D03*
X172550000Y-34570000D03*
X176250000Y-89140000D03*
X96940000Y-108400000D03*
%TO.N,+1V2*%
X139470000Y-81520000D03*
X154980000Y-94020000D03*
X172020000Y-83710000D03*
X158950000Y-71407157D03*
X104120000Y-75470000D03*
X164310000Y-72090000D03*
X143390000Y-71620000D03*
X149670000Y-72110000D03*
X158410000Y-93980000D03*
X139300000Y-74460000D03*
%TO.N,+3.3V*%
X138530000Y-65470000D03*
X173910000Y-61280000D03*
X154110000Y-73270000D03*
X69790000Y-49380000D03*
X102560000Y-62500000D03*
X140330314Y-77460213D03*
X160420000Y-93020000D03*
X62110000Y-50150000D03*
X142100000Y-73290000D03*
X144140000Y-59910000D03*
X158383242Y-73353242D03*
X140339265Y-74640735D03*
X166570000Y-81020000D03*
X170670000Y-79730000D03*
X156400000Y-93020000D03*
D22*
%TO.N,RESER_L*%
X147310000Y-75550000D03*
X151723909Y-77813909D03*
D21*
%TO.N,+3.3VA*%
X111590000Y-86860000D03*
X121960000Y-92730000D03*
X65460000Y-73620000D03*
X135910000Y-96440000D03*
%TO.N,+1V2A*%
X65240000Y-115120000D03*
X150400000Y-100640000D03*
X91660000Y-112930000D03*
X70470000Y-114730000D03*
X117840000Y-117060000D03*
X111480000Y-112760000D03*
%TO.N,/ESP32/EN*%
X118690000Y-25450000D03*
%TO.N,+3V3*%
X74570000Y-51060000D03*
X119320000Y-23550000D03*
X74930000Y-77420000D03*
X59780000Y-25420000D03*
X66800000Y-35370000D03*
X74930000Y-73300000D03*
X73910000Y-48370000D03*
X85780000Y-24120000D03*
X66630000Y-37900000D03*
%TO.N,+15V*%
X69340000Y-93310000D03*
X77680000Y-85050000D03*
X97290000Y-135960000D03*
X76870000Y-132530000D03*
%TO.N,-15V*%
X87060000Y-132560000D03*
X88970000Y-130520000D03*
X88770000Y-120750000D03*
X88770000Y-118880000D03*
%TO.N,1.65V*%
X109840000Y-48270000D03*
X107550000Y-137510000D03*
X109840000Y-50840000D03*
X107380000Y-135140000D03*
%TO.N,Net-(D1-A)*%
X121380000Y-107680000D03*
X128230000Y-108450000D03*
%TO.N,SPI_DO*%
X168719265Y-63090735D03*
X167470000Y-64230000D03*
%TO.N,Net-(D3-RSVD05)*%
X168810000Y-87310000D03*
X167420000Y-87950000D03*
%TO.N,Net-(D3-PLL_BYPASS)*%
X156840000Y-102240000D03*
X151220000Y-90430000D03*
%TO.N,Net-(D3-RSVD03)*%
X157150000Y-88744314D03*
X158070000Y-89944314D03*
%TO.N,Net-(D3-RBIAS)*%
X157700000Y-87530000D03*
X159750000Y-89944314D03*
%TO.N,SPI_CLK*%
X166797157Y-65540000D03*
X170030000Y-62800000D03*
%TO.N,SPI_DI*%
X138480000Y-57200000D03*
X138420000Y-59420000D03*
D22*
%TO.N,+5V*%
X78010000Y-40320000D03*
X78050000Y-37150000D03*
D21*
X74400000Y-37260000D03*
D22*
%TO.N,USB_D+*%
X106966047Y-37899015D03*
X85110000Y-40125000D03*
%TO.N,USB_D-*%
X80400000Y-38790000D03*
X75930000Y-38290000D03*
X106966047Y-37149015D03*
X85110000Y-40875000D03*
D21*
%TO.N,Net-(U7-ENN)*%
X79710000Y-100600000D03*
X78152500Y-98012500D03*
%TO.N,CP_GEN*%
X94970000Y-122330000D03*
%TD*%
D23*
%TO.N,+1V2*%
X140980000Y-72090000D02*
X139300000Y-73770000D01*
X148960000Y-72090000D02*
X157630000Y-72090000D01*
X172020000Y-83710000D02*
X172020000Y-90610000D01*
X139300000Y-80710000D02*
X137185000Y-82825000D01*
X139300000Y-74460000D02*
X139300000Y-80710000D01*
X148960000Y-72090000D02*
X144180000Y-72090000D01*
X157630000Y-72090000D02*
X158267157Y-72090000D01*
X155020000Y-93980000D02*
X154980000Y-94020000D01*
X172020000Y-77040000D02*
X167070000Y-72090000D01*
X144180000Y-72090000D02*
X140980000Y-72090000D01*
X157630000Y-72090000D02*
X164310000Y-72090000D01*
X137185000Y-82825000D02*
X111475000Y-82825000D01*
X158267157Y-72090000D02*
X158950000Y-71407157D01*
X168650000Y-93980000D02*
X158410000Y-93980000D01*
X158410000Y-93980000D02*
X155020000Y-93980000D01*
X172020000Y-90610000D02*
X168650000Y-93980000D01*
X172020000Y-83710000D02*
X172020000Y-77040000D01*
X139300000Y-73770000D02*
X139300000Y-74460000D01*
X139300000Y-80710000D02*
X139300000Y-81350000D01*
X144180000Y-72090000D02*
X143860000Y-72090000D01*
X111475000Y-82825000D02*
X104120000Y-75470000D01*
X143860000Y-72090000D02*
X143390000Y-71620000D01*
X149670000Y-72110000D02*
X149650000Y-72090000D01*
X167070000Y-72090000D02*
X164310000Y-72090000D01*
X139300000Y-81350000D02*
X139470000Y-81520000D01*
X149650000Y-72090000D02*
X148960000Y-72090000D01*
D24*
%TO.N,+3.3V*%
X138530000Y-65470000D02*
X138530000Y-64860000D01*
X143200000Y-73290000D02*
X141690000Y-73290000D01*
X142100000Y-73290000D02*
X143200000Y-73290000D01*
X139730000Y-63660000D02*
X103720000Y-63660000D01*
X170670000Y-80390000D02*
X167200000Y-80390000D01*
X154230000Y-59910000D02*
X172540000Y-59910000D01*
X69790000Y-49380000D02*
X62880000Y-49380000D01*
X141690000Y-73290000D02*
X141105000Y-73875000D01*
X160420000Y-93020000D02*
X158280000Y-93020000D01*
X140240000Y-63150000D02*
X143480000Y-59910000D01*
X62880000Y-49380000D02*
X62110000Y-50150000D01*
X167200000Y-80390000D02*
X166570000Y-81020000D01*
X166530000Y-73290000D02*
X169170000Y-75930000D01*
X165180000Y-73290000D02*
X166530000Y-73290000D01*
X141105000Y-73875000D02*
X140330314Y-74649686D01*
X152990000Y-73290000D02*
X154090000Y-73290000D01*
X170670000Y-82390000D02*
X170670000Y-90230000D01*
X158860000Y-73290000D02*
X158870000Y-73300000D01*
X140330314Y-74649686D02*
X140330314Y-77460213D01*
X158880000Y-73290000D02*
X165180000Y-73290000D01*
X103720000Y-63660000D02*
X102560000Y-62500000D01*
X138530000Y-64860000D02*
X139730000Y-63660000D01*
X158870000Y-73300000D02*
X158880000Y-73290000D01*
X169170000Y-75930000D02*
X170670000Y-77430000D01*
X143480000Y-59910000D02*
X144140000Y-59910000D01*
X144140000Y-59910000D02*
X154230000Y-59910000D01*
X167880000Y-93020000D02*
X160420000Y-93020000D01*
X170670000Y-80390000D02*
X170670000Y-82390000D01*
X170670000Y-90230000D02*
X168080000Y-92820000D01*
X143200000Y-73290000D02*
X152990000Y-73290000D01*
X168080000Y-92820000D02*
X167880000Y-93020000D01*
X158280000Y-93020000D02*
X156400000Y-93020000D01*
X170670000Y-77430000D02*
X170670000Y-80390000D01*
X152990000Y-73290000D02*
X158860000Y-73290000D01*
X139730000Y-63660000D02*
X140240000Y-63150000D01*
X141105000Y-73875000D02*
X140339265Y-74640735D01*
X154090000Y-73290000D02*
X154110000Y-73270000D01*
X172540000Y-59910000D02*
X173910000Y-61280000D01*
D25*
%TO.N,RESER_L*%
X151723909Y-77813909D02*
X149573909Y-77813909D01*
X149573909Y-77813909D02*
X147310000Y-75550000D01*
D23*
%TO.N,+3.3VA*%
X132200000Y-92730000D02*
X135910000Y-96440000D01*
X102760000Y-78030000D02*
X111590000Y-86860000D01*
X65460000Y-73620000D02*
X71590000Y-79750000D01*
X77400000Y-78030000D02*
X90700000Y-78030000D01*
X71590000Y-79750000D02*
X75680000Y-79750000D01*
X121960000Y-92730000D02*
X132200000Y-92730000D01*
X75680000Y-79750000D02*
X77400000Y-78030000D01*
X90700000Y-78030000D02*
X102760000Y-78030000D01*
D26*
%TO.N,+1V2A*%
X70310000Y-114890000D02*
X70470000Y-114730000D01*
X91660000Y-112930000D02*
X111310000Y-112930000D01*
X117840000Y-117060000D02*
X143970000Y-117060000D01*
X144360000Y-116670000D02*
X150400000Y-110630000D01*
X65470000Y-114890000D02*
X70310000Y-114890000D01*
X65240000Y-115120000D02*
X65470000Y-114890000D01*
X111310000Y-112930000D02*
X111480000Y-112760000D01*
X150400000Y-110630000D02*
X150400000Y-100640000D01*
X143970000Y-117060000D02*
X144360000Y-116670000D01*
D27*
%TO.N,/ESP32/EN*%
X139770000Y-24450000D02*
X141200000Y-25880000D01*
X118690000Y-25450000D02*
X119690000Y-24450000D01*
X119690000Y-24450000D02*
X139770000Y-24450000D01*
D23*
%TO.N,+3V3*%
X119320000Y-23550000D02*
X122900000Y-23550000D01*
D27*
X74930000Y-77420000D02*
X74930000Y-73300000D01*
D23*
X141330000Y-23470000D02*
X143740000Y-25880000D01*
X84480000Y-25420000D02*
X85780000Y-24120000D01*
D27*
X74570000Y-49030000D02*
X73910000Y-48370000D01*
D23*
X122900000Y-23550000D02*
X122980000Y-23470000D01*
D27*
X66630000Y-35540000D02*
X66800000Y-35370000D01*
D23*
X59780000Y-25420000D02*
X84480000Y-25420000D01*
X122980000Y-23470000D02*
X141330000Y-23470000D01*
D27*
X66630000Y-37900000D02*
X66630000Y-35540000D01*
X74570000Y-51060000D02*
X74570000Y-49030000D01*
D26*
%TO.N,+15V*%
X83400000Y-135960000D02*
X97290000Y-135960000D01*
X76870000Y-132530000D02*
X79970000Y-132530000D01*
X69420000Y-93310000D02*
X69340000Y-93310000D01*
X79970000Y-132530000D02*
X83400000Y-135960000D01*
X77680000Y-85050000D02*
X69420000Y-93310000D01*
D27*
%TO.N,-15V*%
X87060000Y-132430000D02*
X88970000Y-130520000D01*
X87060000Y-132560000D02*
X87060000Y-132430000D01*
X88770000Y-120750000D02*
X88770000Y-118880000D01*
D23*
%TO.N,1.65V*%
X109840000Y-48270000D02*
X109840000Y-50840000D01*
X107550000Y-137510000D02*
X107550000Y-135310000D01*
X107550000Y-135310000D02*
X107380000Y-135140000D01*
D27*
%TO.N,Net-(D1-A)*%
X121380000Y-107680000D02*
X121830000Y-108130000D01*
X127910000Y-108130000D02*
X128230000Y-108450000D01*
X121830000Y-108130000D02*
X127910000Y-108130000D01*
D25*
%TO.N,SPI_DO*%
X167470000Y-64230000D02*
X167580000Y-64230000D01*
X167580000Y-64230000D02*
X168719265Y-63090735D01*
%TO.N,Net-(D3-RSVD05)*%
X168170000Y-87950000D02*
X168810000Y-87310000D01*
X167420000Y-87950000D02*
X168170000Y-87950000D01*
D26*
%TO.N,Net-(D3-PLL_BYPASS)*%
X154250000Y-98870000D02*
X154250000Y-96360000D01*
X156840000Y-101460000D02*
X154980000Y-99600000D01*
X154980000Y-99600000D02*
X154250000Y-98870000D01*
X154250000Y-93460000D02*
X151220000Y-90430000D01*
X154250000Y-96360000D02*
X154140000Y-96250000D01*
X156840000Y-102240000D02*
X156840000Y-101460000D01*
X154250000Y-96360000D02*
X154250000Y-93460000D01*
D25*
%TO.N,Net-(D3-RSVD03)*%
X157150000Y-88744314D02*
X157150000Y-89024314D01*
X157150000Y-89024314D02*
X158070000Y-89944314D01*
%TO.N,Net-(D3-RBIAS)*%
X157700000Y-87530000D02*
X157700000Y-87894314D01*
X157700000Y-87894314D02*
X159750000Y-89944314D01*
%TO.N,SPI_CLK*%
X166797157Y-65540000D02*
X167290000Y-65540000D01*
X167290000Y-65540000D02*
X170030000Y-62800000D01*
%TO.N,SPI_DI*%
X138420000Y-57260000D02*
X138480000Y-57200000D01*
X138420000Y-59420000D02*
X138420000Y-57260000D01*
D27*
%TO.N,+5V*%
X77750000Y-37450000D02*
X78050000Y-37150000D01*
X75230000Y-38110000D02*
X75230000Y-37790000D01*
D23*
X76850000Y-39160000D02*
X75560000Y-39160000D01*
D27*
X75230000Y-37790000D02*
X75570000Y-37450000D01*
D23*
X75560000Y-39160000D02*
X75230000Y-38830000D01*
X75230000Y-38090000D02*
X74400000Y-37260000D01*
X75230000Y-38110000D02*
X75230000Y-38090000D01*
X75230000Y-38830000D02*
X75230000Y-38110000D01*
D27*
X75570000Y-37450000D02*
X77750000Y-37450000D01*
D23*
X78010000Y-40320000D02*
X76850000Y-39160000D01*
D25*
%TO.N,USB_D+*%
X92833199Y-40274999D02*
X95413200Y-42855000D01*
X107399184Y-37749016D02*
X107116046Y-37749016D01*
X107116046Y-37749016D02*
X106966047Y-37899015D01*
X108753200Y-36395000D02*
X107399184Y-37749016D01*
X85259999Y-40274999D02*
X92833199Y-40274999D01*
X109856800Y-36395000D02*
X108753200Y-36395000D01*
X95413200Y-42855000D02*
X107536800Y-42855000D01*
X85110000Y-40125000D02*
X85259999Y-40274999D01*
X110765000Y-37303200D02*
X109856800Y-36395000D01*
X110765000Y-39626800D02*
X110765000Y-37303200D01*
X107536800Y-42855000D02*
X110765000Y-39626800D01*
%TO.N,USB_D-*%
X110043200Y-35945000D02*
X108566800Y-35945000D01*
X107723200Y-43305000D02*
X111215000Y-39813200D01*
D27*
X75930000Y-38290000D02*
X75950000Y-38310000D01*
D25*
X92646801Y-40725001D02*
X95226800Y-43305000D01*
X107212786Y-37299014D02*
X107116046Y-37299014D01*
X111215000Y-37116800D02*
X110043200Y-35945000D01*
X108566800Y-35945000D02*
X107212786Y-37299014D01*
X85110000Y-40875000D02*
X85259999Y-40725001D01*
D27*
X75950000Y-38310000D02*
X79920000Y-38310000D01*
D25*
X107116046Y-37299014D02*
X106966047Y-37149015D01*
X85259999Y-40725001D02*
X92646801Y-40725001D01*
X95226800Y-43305000D02*
X107723200Y-43305000D01*
D27*
X79920000Y-38310000D02*
X80400000Y-38790000D01*
D25*
X111215000Y-39813200D02*
X111215000Y-37116800D01*
D27*
%TO.N,Net-(U7-ENN)*%
X78152500Y-99042500D02*
X78152500Y-98012500D01*
X79710000Y-100600000D02*
X78152500Y-99042500D01*
%TD*%
%TA.AperFunction,Conductor*%
%TO.N,GND*%
G36*
X67074953Y-20520185D02*
G01*
X67120708Y-20572989D01*
X67130652Y-20642147D01*
X67101627Y-20705703D01*
X67060319Y-20736882D01*
X66912171Y-20805964D01*
X66912169Y-20805965D01*
X66718597Y-20941505D01*
X66551505Y-21108597D01*
X66415965Y-21302169D01*
X66415964Y-21302171D01*
X66316098Y-21516335D01*
X66316094Y-21516344D01*
X66254938Y-21744586D01*
X66254936Y-21744596D01*
X66234341Y-21979999D01*
X66234341Y-21980000D01*
X66254936Y-22215403D01*
X66254938Y-22215413D01*
X66316094Y-22443655D01*
X66316096Y-22443659D01*
X66316097Y-22443663D01*
X66320000Y-22452032D01*
X66415965Y-22657830D01*
X66415967Y-22657834D01*
X66508554Y-22790061D01*
X66551505Y-22851401D01*
X66718599Y-23018495D01*
X66815384Y-23086265D01*
X66912165Y-23154032D01*
X66912167Y-23154033D01*
X66912170Y-23154035D01*
X67126337Y-23253903D01*
X67354592Y-23315063D01*
X67531034Y-23330500D01*
X67589999Y-23335659D01*
X67590000Y-23335659D01*
X67590001Y-23335659D01*
X67648966Y-23330500D01*
X67825408Y-23315063D01*
X68053663Y-23253903D01*
X68267830Y-23154035D01*
X68461401Y-23018495D01*
X68628495Y-22851401D01*
X68758425Y-22665842D01*
X68813002Y-22622217D01*
X68882500Y-22615023D01*
X68944855Y-22646546D01*
X68961575Y-22665842D01*
X69091500Y-22851395D01*
X69091505Y-22851401D01*
X69258599Y-23018495D01*
X69355384Y-23086265D01*
X69452165Y-23154032D01*
X69452167Y-23154033D01*
X69452170Y-23154035D01*
X69666337Y-23253903D01*
X69894592Y-23315063D01*
X70071034Y-23330500D01*
X70129999Y-23335659D01*
X70130000Y-23335659D01*
X70130001Y-23335659D01*
X70188966Y-23330500D01*
X70365408Y-23315063D01*
X70593663Y-23253903D01*
X70807830Y-23154035D01*
X71001401Y-23018495D01*
X71168495Y-22851401D01*
X71298425Y-22665842D01*
X71353002Y-22622217D01*
X71422500Y-22615023D01*
X71484855Y-22646546D01*
X71501575Y-22665842D01*
X71631500Y-22851395D01*
X71631505Y-22851401D01*
X71798599Y-23018495D01*
X71895384Y-23086265D01*
X71992165Y-23154032D01*
X71992167Y-23154033D01*
X71992170Y-23154035D01*
X72206337Y-23253903D01*
X72434592Y-23315063D01*
X72611034Y-23330500D01*
X72669999Y-23335659D01*
X72670000Y-23335659D01*
X72670001Y-23335659D01*
X72728966Y-23330500D01*
X72905408Y-23315063D01*
X73133663Y-23253903D01*
X73347830Y-23154035D01*
X73541401Y-23018495D01*
X73708495Y-22851401D01*
X73838425Y-22665842D01*
X73893002Y-22622217D01*
X73962500Y-22615023D01*
X74024855Y-22646546D01*
X74041575Y-22665842D01*
X74171500Y-22851395D01*
X74171505Y-22851401D01*
X74338599Y-23018495D01*
X74435384Y-23086265D01*
X74532165Y-23154032D01*
X74532167Y-23154033D01*
X74532170Y-23154035D01*
X74746337Y-23253903D01*
X74974592Y-23315063D01*
X75151034Y-23330500D01*
X75209999Y-23335659D01*
X75210000Y-23335659D01*
X75210001Y-23335659D01*
X75268966Y-23330500D01*
X75445408Y-23315063D01*
X75673663Y-23253903D01*
X75887830Y-23154035D01*
X76081401Y-23018495D01*
X76248495Y-22851401D01*
X76378425Y-22665842D01*
X76433002Y-22622217D01*
X76502500Y-22615023D01*
X76564855Y-22646546D01*
X76581575Y-22665842D01*
X76711500Y-22851395D01*
X76711505Y-22851401D01*
X76878599Y-23018495D01*
X76975384Y-23086265D01*
X77072165Y-23154032D01*
X77072167Y-23154033D01*
X77072170Y-23154035D01*
X77286337Y-23253903D01*
X77514592Y-23315063D01*
X77691034Y-23330500D01*
X77749999Y-23335659D01*
X77750000Y-23335659D01*
X77750001Y-23335659D01*
X77808966Y-23330500D01*
X77985408Y-23315063D01*
X78213663Y-23253903D01*
X78427830Y-23154035D01*
X78621401Y-23018495D01*
X78743329Y-22896566D01*
X78804648Y-22863084D01*
X78874340Y-22868068D01*
X78930274Y-22909939D01*
X78947189Y-22940917D01*
X78996202Y-23072328D01*
X78996206Y-23072335D01*
X79082452Y-23187544D01*
X79082455Y-23187547D01*
X79197664Y-23273793D01*
X79197671Y-23273797D01*
X79332517Y-23324091D01*
X79332516Y-23324091D01*
X79339444Y-23324835D01*
X79392127Y-23330500D01*
X81187872Y-23330499D01*
X81247483Y-23324091D01*
X81382331Y-23273796D01*
X81497546Y-23187546D01*
X81583796Y-23072331D01*
X81634091Y-22937483D01*
X81640500Y-22877873D01*
X81640499Y-21082128D01*
X81634091Y-21022517D01*
X81632810Y-21019083D01*
X81583797Y-20887671D01*
X81583793Y-20887664D01*
X81522632Y-20805965D01*
X81497546Y-20772454D01*
X81432507Y-20723765D01*
X81390637Y-20667833D01*
X81385653Y-20598141D01*
X81419138Y-20536818D01*
X81480462Y-20503334D01*
X81506819Y-20500500D01*
X179375500Y-20500500D01*
X179442539Y-20520185D01*
X179488294Y-20572989D01*
X179499500Y-20624500D01*
X179499500Y-149375500D01*
X179479815Y-149442539D01*
X179427011Y-149488294D01*
X179375500Y-149499500D01*
X50624500Y-149499500D01*
X50557461Y-149479815D01*
X50511706Y-149427011D01*
X50500500Y-149375500D01*
X50500500Y-141629984D01*
X148999500Y-141629984D01*
X148999500Y-144830015D01*
X149010000Y-144932795D01*
X149010001Y-144932796D01*
X149065186Y-145099335D01*
X149065187Y-145099337D01*
X149157286Y-145248651D01*
X149157289Y-145248655D01*
X149281344Y-145372710D01*
X149281348Y-145372713D01*
X149430662Y-145464812D01*
X149430664Y-145464813D01*
X149430666Y-145464814D01*
X149597203Y-145519999D01*
X149699992Y-145530500D01*
X149699997Y-145530500D01*
X151400003Y-145530500D01*
X151400008Y-145530500D01*
X151502797Y-145519999D01*
X151669334Y-145464814D01*
X151818655Y-145372711D01*
X151942711Y-145248655D01*
X152034814Y-145099334D01*
X152089999Y-144932797D01*
X152100500Y-144830008D01*
X152100500Y-141629992D01*
X152089999Y-141527203D01*
X152034814Y-141360666D01*
X151942711Y-141211345D01*
X151818655Y-141087289D01*
X151818651Y-141087286D01*
X151669337Y-140995187D01*
X151669335Y-140995186D01*
X151586065Y-140967593D01*
X151502797Y-140940001D01*
X151502795Y-140940000D01*
X151400015Y-140929500D01*
X151400008Y-140929500D01*
X149699992Y-140929500D01*
X149699984Y-140929500D01*
X149597204Y-140940000D01*
X149597203Y-140940001D01*
X149430664Y-140995186D01*
X149430662Y-140995187D01*
X149281348Y-141087286D01*
X149281344Y-141087289D01*
X149157289Y-141211344D01*
X149157286Y-141211348D01*
X149065187Y-141360662D01*
X149065186Y-141360664D01*
X149010001Y-141527203D01*
X149010000Y-141527204D01*
X148999500Y-141629984D01*
X50500500Y-141629984D01*
X50500500Y-132529996D01*
X76064435Y-132529996D01*
X76064435Y-132530003D01*
X76084630Y-132709249D01*
X76084631Y-132709254D01*
X76144211Y-132879523D01*
X76240184Y-133032262D01*
X76367738Y-133159816D01*
X76415481Y-133189815D01*
X76520474Y-133255787D01*
X76520478Y-133255789D01*
X76690745Y-133315368D01*
X76690750Y-133315369D01*
X76869996Y-133335565D01*
X76870000Y-133335565D01*
X76870004Y-133335565D01*
X77049249Y-133315369D01*
X77049252Y-133315368D01*
X77049255Y-133315368D01*
X77219522Y-133255789D01*
X77220488Y-133255181D01*
X77229523Y-133249506D01*
X77295494Y-133230500D01*
X79628481Y-133230500D01*
X79695520Y-133250185D01*
X79716162Y-133266819D01*
X82953453Y-136504111D01*
X82953454Y-136504112D01*
X83068192Y-136580777D01*
X83195667Y-136633578D01*
X83195672Y-136633580D01*
X83195676Y-136633580D01*
X83195677Y-136633581D01*
X83331004Y-136660500D01*
X83331007Y-136660500D01*
X83468994Y-136660500D01*
X96864506Y-136660500D01*
X96930477Y-136679506D01*
X96940474Y-136685787D01*
X96940475Y-136685787D01*
X96940478Y-136685789D01*
X97110745Y-136745368D01*
X97110750Y-136745369D01*
X97289996Y-136765565D01*
X97290000Y-136765565D01*
X97290004Y-136765565D01*
X97469249Y-136745369D01*
X97469252Y-136745368D01*
X97469255Y-136745368D01*
X97639522Y-136685789D01*
X97792262Y-136589816D01*
X97919816Y-136462262D01*
X98015789Y-136309522D01*
X98075368Y-136139255D01*
X98095565Y-135960000D01*
X98075368Y-135780745D01*
X98015789Y-135610478D01*
X97919816Y-135457738D01*
X97792262Y-135330184D01*
X97774859Y-135319249D01*
X97639523Y-135234211D01*
X97469254Y-135174631D01*
X97469249Y-135174630D01*
X97290004Y-135154435D01*
X97289996Y-135154435D01*
X97110750Y-135174630D01*
X97110745Y-135174631D01*
X96940474Y-135234212D01*
X96930477Y-135240494D01*
X96864506Y-135259500D01*
X83741519Y-135259500D01*
X83674480Y-135239815D01*
X83653838Y-135223181D01*
X83570653Y-135139996D01*
X106574435Y-135139996D01*
X106574435Y-135140003D01*
X106594630Y-135319249D01*
X106594631Y-135319254D01*
X106654211Y-135489523D01*
X106750184Y-135642262D01*
X106763181Y-135655259D01*
X106796666Y-135716582D01*
X106799500Y-135742940D01*
X106799500Y-137210028D01*
X106792542Y-137250982D01*
X106764631Y-137330747D01*
X106744435Y-137509996D01*
X106744435Y-137510003D01*
X106764630Y-137689249D01*
X106764631Y-137689254D01*
X106824211Y-137859523D01*
X106920184Y-138012262D01*
X107047738Y-138139816D01*
X107200478Y-138235789D01*
X107370745Y-138295368D01*
X107370750Y-138295369D01*
X107549996Y-138315565D01*
X107550000Y-138315565D01*
X107550004Y-138315565D01*
X107729249Y-138295369D01*
X107729252Y-138295368D01*
X107729255Y-138295368D01*
X107899522Y-138235789D01*
X108052262Y-138139816D01*
X108179816Y-138012262D01*
X108275789Y-137859522D01*
X108335368Y-137689255D01*
X108355565Y-137510000D01*
X108335368Y-137330745D01*
X108307458Y-137250982D01*
X108300500Y-137210028D01*
X108300500Y-135236079D01*
X108271659Y-135091092D01*
X108271658Y-135091091D01*
X108271658Y-135091087D01*
X108217669Y-134960745D01*
X108215087Y-134954511D01*
X108215080Y-134954498D01*
X108132951Y-134831584D01*
X108129086Y-134826874D01*
X108129771Y-134826311D01*
X108110642Y-134795869D01*
X108108810Y-134796752D01*
X108105791Y-134790485D01*
X108105789Y-134790478D01*
X108009816Y-134637738D01*
X107882262Y-134510184D01*
X107729523Y-134414211D01*
X107559254Y-134354631D01*
X107559249Y-134354630D01*
X107380004Y-134334435D01*
X107379996Y-134334435D01*
X107200750Y-134354630D01*
X107200745Y-134354631D01*
X107030476Y-134414211D01*
X106877737Y-134510184D01*
X106750184Y-134637737D01*
X106654211Y-134790476D01*
X106594631Y-134960745D01*
X106594630Y-134960750D01*
X106574435Y-135139996D01*
X83570653Y-135139996D01*
X80990654Y-132559996D01*
X86254435Y-132559996D01*
X86254435Y-132560003D01*
X86274630Y-132739249D01*
X86274631Y-132739254D01*
X86334211Y-132909523D01*
X86411334Y-133032262D01*
X86430184Y-133062262D01*
X86557738Y-133189816D01*
X86710478Y-133285789D01*
X86795010Y-133315368D01*
X86880745Y-133345368D01*
X86880750Y-133345369D01*
X87059996Y-133365565D01*
X87060000Y-133365565D01*
X87060004Y-133365565D01*
X87239249Y-133345369D01*
X87239252Y-133345368D01*
X87239255Y-133345368D01*
X87409522Y-133285789D01*
X87562262Y-133189816D01*
X87689816Y-133062262D01*
X87785789Y-132909522D01*
X87845368Y-132739255D01*
X87848749Y-132709254D01*
X87862690Y-132585513D01*
X87889756Y-132521099D01*
X87898219Y-132511725D01*
X89068224Y-131341720D01*
X89129545Y-131308237D01*
X89142019Y-131306183D01*
X89149255Y-131305368D01*
X89319522Y-131245789D01*
X89472262Y-131149816D01*
X89599816Y-131022262D01*
X89695789Y-130869522D01*
X89755368Y-130699255D01*
X89775565Y-130520000D01*
X89756184Y-130347988D01*
X89755369Y-130340750D01*
X89755368Y-130340745D01*
X89695788Y-130170476D01*
X89599815Y-130017737D01*
X89472262Y-129890184D01*
X89319523Y-129794211D01*
X89149254Y-129734631D01*
X89149249Y-129734630D01*
X88970004Y-129714435D01*
X88969996Y-129714435D01*
X88790750Y-129734630D01*
X88790745Y-129734631D01*
X88620476Y-129794211D01*
X88467737Y-129890184D01*
X88340184Y-130017737D01*
X88244210Y-130170478D01*
X88184632Y-130340744D01*
X88184630Y-130340752D01*
X88183815Y-130347988D01*
X88156743Y-130412400D01*
X88148277Y-130421775D01*
X86769507Y-131800545D01*
X86722786Y-131829904D01*
X86710475Y-131834212D01*
X86557737Y-131930184D01*
X86430184Y-132057737D01*
X86334211Y-132210476D01*
X86274631Y-132380745D01*
X86274630Y-132380750D01*
X86254435Y-132559996D01*
X80990654Y-132559996D01*
X80416546Y-131985888D01*
X80416545Y-131985887D01*
X80301807Y-131909222D01*
X80174332Y-131856421D01*
X80174322Y-131856418D01*
X80038996Y-131829500D01*
X80038994Y-131829500D01*
X80038993Y-131829500D01*
X77295494Y-131829500D01*
X77229523Y-131810494D01*
X77219525Y-131804212D01*
X77049254Y-131744631D01*
X77049249Y-131744630D01*
X76870004Y-131724435D01*
X76869996Y-131724435D01*
X76690750Y-131744630D01*
X76690745Y-131744631D01*
X76520476Y-131804211D01*
X76367737Y-131900184D01*
X76240184Y-132027737D01*
X76144211Y-132180476D01*
X76084631Y-132350745D01*
X76084630Y-132350750D01*
X76064435Y-132529996D01*
X50500500Y-132529996D01*
X50500500Y-122329996D01*
X94164435Y-122329996D01*
X94164435Y-122330003D01*
X94184630Y-122509249D01*
X94184631Y-122509254D01*
X94244211Y-122679523D01*
X94340184Y-122832262D01*
X94467738Y-122959816D01*
X94620478Y-123055789D01*
X94790745Y-123115368D01*
X94790750Y-123115369D01*
X94969996Y-123135565D01*
X94970000Y-123135565D01*
X94970004Y-123135565D01*
X95149249Y-123115369D01*
X95149252Y-123115368D01*
X95149255Y-123115368D01*
X95319522Y-123055789D01*
X95472262Y-122959816D01*
X95599816Y-122832262D01*
X95695789Y-122679522D01*
X95755368Y-122509255D01*
X95775565Y-122330000D01*
X95755368Y-122150745D01*
X95695789Y-121980478D01*
X95599816Y-121827738D01*
X95472262Y-121700184D01*
X95319523Y-121604211D01*
X95149254Y-121544631D01*
X95149249Y-121544630D01*
X94970004Y-121524435D01*
X94969996Y-121524435D01*
X94790750Y-121544630D01*
X94790745Y-121544631D01*
X94620476Y-121604211D01*
X94467737Y-121700184D01*
X94340184Y-121827737D01*
X94244211Y-121980476D01*
X94184631Y-122150745D01*
X94184630Y-122150750D01*
X94164435Y-122329996D01*
X50500500Y-122329996D01*
X50500500Y-118879996D01*
X87964435Y-118879996D01*
X87964435Y-118880003D01*
X87984630Y-119059249D01*
X87984631Y-119059254D01*
X88044211Y-119229524D01*
X88100493Y-119319094D01*
X88119500Y-119385067D01*
X88119500Y-120244931D01*
X88100494Y-120310903D01*
X88044211Y-120400477D01*
X88044209Y-120400481D01*
X87984633Y-120570737D01*
X87984630Y-120570750D01*
X87964435Y-120749996D01*
X87964435Y-120750003D01*
X87984630Y-120929249D01*
X87984631Y-120929254D01*
X88044211Y-121099523D01*
X88140184Y-121252262D01*
X88267738Y-121379816D01*
X88420478Y-121475789D01*
X88559500Y-121524435D01*
X88590745Y-121535368D01*
X88590750Y-121535369D01*
X88769996Y-121555565D01*
X88770000Y-121555565D01*
X88770004Y-121555565D01*
X88949249Y-121535369D01*
X88949252Y-121535368D01*
X88949255Y-121535368D01*
X89119522Y-121475789D01*
X89272262Y-121379816D01*
X89399816Y-121252262D01*
X89495789Y-121099522D01*
X89555368Y-120929255D01*
X89575565Y-120750000D01*
X89555368Y-120570745D01*
X89555367Y-120570743D01*
X89555366Y-120570737D01*
X89495790Y-120400481D01*
X89495789Y-120400478D01*
X89474008Y-120365814D01*
X89439506Y-120310903D01*
X89420500Y-120244931D01*
X89420500Y-119385067D01*
X89439507Y-119319094D01*
X89495788Y-119229524D01*
X89555368Y-119059254D01*
X89555369Y-119059249D01*
X89575565Y-118880003D01*
X89575565Y-118879996D01*
X89555369Y-118700750D01*
X89555368Y-118700745D01*
X89495788Y-118530476D01*
X89399815Y-118377737D01*
X89272262Y-118250184D01*
X89119523Y-118154211D01*
X88949254Y-118094631D01*
X88949249Y-118094630D01*
X88770004Y-118074435D01*
X88769996Y-118074435D01*
X88590750Y-118094630D01*
X88590745Y-118094631D01*
X88420476Y-118154211D01*
X88267737Y-118250184D01*
X88140184Y-118377737D01*
X88044211Y-118530476D01*
X87984631Y-118700745D01*
X87984630Y-118700750D01*
X87964435Y-118879996D01*
X50500500Y-118879996D01*
X50500500Y-117059996D01*
X117034435Y-117059996D01*
X117034435Y-117060003D01*
X117054630Y-117239249D01*
X117054631Y-117239254D01*
X117114211Y-117409523D01*
X117210184Y-117562262D01*
X117337738Y-117689816D01*
X117407385Y-117733578D01*
X117490474Y-117785787D01*
X117490478Y-117785789D01*
X117660745Y-117845368D01*
X117660750Y-117845369D01*
X117839996Y-117865565D01*
X117840000Y-117865565D01*
X117840004Y-117865565D01*
X118019249Y-117845369D01*
X118019252Y-117845368D01*
X118019255Y-117845368D01*
X118189522Y-117785789D01*
X118190488Y-117785181D01*
X118199523Y-117779506D01*
X118265494Y-117760500D01*
X144038996Y-117760500D01*
X144130040Y-117742389D01*
X144174328Y-117733580D01*
X144238069Y-117707177D01*
X144301807Y-117680777D01*
X144301808Y-117680776D01*
X144301811Y-117680775D01*
X144416543Y-117604114D01*
X144904114Y-117116543D01*
X150944114Y-111076543D01*
X151020775Y-110961811D01*
X151073580Y-110834328D01*
X151100500Y-110698994D01*
X151100500Y-110561006D01*
X151100500Y-101065493D01*
X151119508Y-100999519D01*
X151125787Y-100989525D01*
X151125786Y-100989525D01*
X151125789Y-100989522D01*
X151185368Y-100819255D01*
X151205565Y-100640000D01*
X151201058Y-100600003D01*
X151185369Y-100460750D01*
X151185368Y-100460745D01*
X151125788Y-100290476D01*
X151029815Y-100137737D01*
X150902262Y-100010184D01*
X150749523Y-99914211D01*
X150579254Y-99854631D01*
X150579249Y-99854630D01*
X150400004Y-99834435D01*
X150399996Y-99834435D01*
X150220750Y-99854630D01*
X150220745Y-99854631D01*
X150050476Y-99914211D01*
X149897737Y-100010184D01*
X149770184Y-100137737D01*
X149674211Y-100290476D01*
X149614631Y-100460745D01*
X149614630Y-100460750D01*
X149594435Y-100639996D01*
X149594435Y-100640003D01*
X149614630Y-100819249D01*
X149614631Y-100819254D01*
X149674212Y-100989525D01*
X149680492Y-100999519D01*
X149699500Y-101065493D01*
X149699500Y-110288481D01*
X149679815Y-110355520D01*
X149663181Y-110376162D01*
X143716162Y-116323181D01*
X143654839Y-116356666D01*
X143628481Y-116359500D01*
X118265494Y-116359500D01*
X118199523Y-116340494D01*
X118189525Y-116334212D01*
X118019254Y-116274631D01*
X118019249Y-116274630D01*
X117840004Y-116254435D01*
X117839996Y-116254435D01*
X117660750Y-116274630D01*
X117660745Y-116274631D01*
X117490476Y-116334211D01*
X117337737Y-116430184D01*
X117210184Y-116557737D01*
X117114211Y-116710476D01*
X117054631Y-116880745D01*
X117054630Y-116880750D01*
X117034435Y-117059996D01*
X50500500Y-117059996D01*
X50500500Y-115119996D01*
X64434435Y-115119996D01*
X64434435Y-115120003D01*
X64454630Y-115299249D01*
X64454631Y-115299254D01*
X64514211Y-115469523D01*
X64592007Y-115593334D01*
X64610184Y-115622262D01*
X64737738Y-115749816D01*
X64890478Y-115845789D01*
X65060745Y-115905368D01*
X65060750Y-115905369D01*
X65239996Y-115925565D01*
X65240000Y-115925565D01*
X65240004Y-115925565D01*
X65419249Y-115905369D01*
X65419252Y-115905368D01*
X65419255Y-115905368D01*
X65589522Y-115845789D01*
X65742262Y-115749816D01*
X65865260Y-115626818D01*
X65926583Y-115593334D01*
X65952941Y-115590500D01*
X70378996Y-115590500D01*
X70470040Y-115572389D01*
X70514328Y-115563580D01*
X70607623Y-115524935D01*
X70641192Y-115516277D01*
X70649248Y-115515369D01*
X70649249Y-115515368D01*
X70649255Y-115515368D01*
X70819522Y-115455789D01*
X70972262Y-115359816D01*
X71099816Y-115232262D01*
X71195789Y-115079522D01*
X71255368Y-114909255D01*
X71255369Y-114909249D01*
X71275565Y-114730003D01*
X71275565Y-114729996D01*
X71255369Y-114550750D01*
X71255368Y-114550745D01*
X71234177Y-114490184D01*
X71195789Y-114380478D01*
X71099816Y-114227738D01*
X70972262Y-114100184D01*
X70819523Y-114004211D01*
X70649254Y-113944631D01*
X70649249Y-113944630D01*
X70470004Y-113924435D01*
X70469996Y-113924435D01*
X70290750Y-113944630D01*
X70290745Y-113944631D01*
X70120476Y-114004211D01*
X69967737Y-114100184D01*
X69914741Y-114153181D01*
X69853418Y-114186666D01*
X69827060Y-114189500D01*
X65401005Y-114189500D01*
X65265677Y-114216418D01*
X65265667Y-114216421D01*
X65138192Y-114269222D01*
X65030904Y-114340910D01*
X65002969Y-114354848D01*
X64890479Y-114394210D01*
X64890475Y-114394212D01*
X64737737Y-114490184D01*
X64610184Y-114617737D01*
X64514211Y-114770476D01*
X64454631Y-114940745D01*
X64454630Y-114940750D01*
X64434435Y-115119996D01*
X50500500Y-115119996D01*
X50500500Y-112929996D01*
X90854435Y-112929996D01*
X90854435Y-112930003D01*
X90874630Y-113109249D01*
X90874631Y-113109254D01*
X90934211Y-113279523D01*
X91003513Y-113389815D01*
X91030184Y-113432262D01*
X91157738Y-113559816D01*
X91227386Y-113603579D01*
X91310474Y-113655787D01*
X91310478Y-113655789D01*
X91480745Y-113715368D01*
X91480750Y-113715369D01*
X91659996Y-113735565D01*
X91660000Y-113735565D01*
X91660004Y-113735565D01*
X91839249Y-113715369D01*
X91839252Y-113715368D01*
X91839255Y-113715368D01*
X92009522Y-113655789D01*
X92010488Y-113655181D01*
X92019523Y-113649506D01*
X92085494Y-113630500D01*
X111378996Y-113630500D01*
X111470040Y-113612389D01*
X111514328Y-113603580D01*
X111639819Y-113551600D01*
X111658020Y-113545800D01*
X111659255Y-113545368D01*
X111829522Y-113485789D01*
X111982262Y-113389816D01*
X112109816Y-113262262D01*
X112205789Y-113109522D01*
X112265368Y-112939255D01*
X112265369Y-112939249D01*
X112285565Y-112760003D01*
X112285565Y-112759996D01*
X112265369Y-112580750D01*
X112265368Y-112580745D01*
X112265274Y-112580476D01*
X112205789Y-112410478D01*
X112109816Y-112257738D01*
X111982262Y-112130184D01*
X111973113Y-112124435D01*
X111829523Y-112034211D01*
X111659254Y-111974631D01*
X111659249Y-111974630D01*
X111480004Y-111954435D01*
X111479996Y-111954435D01*
X111300750Y-111974630D01*
X111300745Y-111974631D01*
X111130476Y-112034211D01*
X110977737Y-112130184D01*
X110914741Y-112193181D01*
X110853418Y-112226666D01*
X110827060Y-112229500D01*
X92085494Y-112229500D01*
X92019523Y-112210494D01*
X92009525Y-112204212D01*
X91839254Y-112144631D01*
X91839249Y-112144630D01*
X91660004Y-112124435D01*
X91659996Y-112124435D01*
X91480750Y-112144630D01*
X91480745Y-112144631D01*
X91310476Y-112204211D01*
X91157737Y-112300184D01*
X91030184Y-112427737D01*
X90934211Y-112580476D01*
X90874631Y-112750745D01*
X90874630Y-112750750D01*
X90854435Y-112929996D01*
X50500500Y-112929996D01*
X50500500Y-107679996D01*
X120574435Y-107679996D01*
X120574435Y-107680003D01*
X120594630Y-107859249D01*
X120594631Y-107859254D01*
X120654211Y-108029523D01*
X120750184Y-108182262D01*
X120877738Y-108309816D01*
X121030478Y-108405789D01*
X121200745Y-108465368D01*
X121207974Y-108466182D01*
X121272388Y-108493246D01*
X121281766Y-108501712D01*
X121415331Y-108635277D01*
X121521873Y-108706465D01*
X121640256Y-108755501D01*
X121640260Y-108755501D01*
X121640261Y-108755502D01*
X121765928Y-108780500D01*
X121765931Y-108780500D01*
X127423726Y-108780500D01*
X127490765Y-108800185D01*
X127528720Y-108838528D01*
X127600184Y-108952262D01*
X127727738Y-109079816D01*
X127880478Y-109175789D01*
X128050745Y-109235368D01*
X128050750Y-109235369D01*
X128229996Y-109255565D01*
X128230000Y-109255565D01*
X128230004Y-109255565D01*
X128409249Y-109235369D01*
X128409252Y-109235368D01*
X128409255Y-109235368D01*
X128579522Y-109175789D01*
X128732262Y-109079816D01*
X128859816Y-108952262D01*
X128955789Y-108799522D01*
X129015368Y-108629255D01*
X129015369Y-108629249D01*
X129035565Y-108450003D01*
X129035565Y-108449996D01*
X129015369Y-108270750D01*
X129015368Y-108270745D01*
X128955788Y-108100476D01*
X128859815Y-107947737D01*
X128732262Y-107820184D01*
X128579521Y-107724210D01*
X128409255Y-107664632D01*
X128409246Y-107664630D01*
X128402012Y-107663815D01*
X128337600Y-107636743D01*
X128328224Y-107628277D01*
X128324673Y-107624726D01*
X128324669Y-107624723D01*
X128218127Y-107553535D01*
X128099744Y-107504499D01*
X128099738Y-107504497D01*
X127974071Y-107479500D01*
X127974069Y-107479500D01*
X122245917Y-107479500D01*
X122178878Y-107459815D01*
X122133123Y-107407011D01*
X122128875Y-107396454D01*
X122105789Y-107330478D01*
X122009815Y-107177737D01*
X121882262Y-107050184D01*
X121729523Y-106954211D01*
X121559254Y-106894631D01*
X121559249Y-106894630D01*
X121380004Y-106874435D01*
X121379996Y-106874435D01*
X121200750Y-106894630D01*
X121200745Y-106894631D01*
X121030476Y-106954211D01*
X120877737Y-107050184D01*
X120750184Y-107177737D01*
X120654211Y-107330476D01*
X120594631Y-107500745D01*
X120594630Y-107500750D01*
X120574435Y-107679996D01*
X50500500Y-107679996D01*
X50500500Y-98012496D01*
X77346935Y-98012496D01*
X77346935Y-98012503D01*
X77367130Y-98191749D01*
X77367131Y-98191754D01*
X77426711Y-98362024D01*
X77482993Y-98451594D01*
X77502000Y-98517567D01*
X77502000Y-99106569D01*
X77502000Y-99106571D01*
X77501999Y-99106571D01*
X77526997Y-99232238D01*
X77526999Y-99232244D01*
X77576034Y-99350625D01*
X77647226Y-99457173D01*
X77647227Y-99457174D01*
X78888277Y-100698223D01*
X78921762Y-100759546D01*
X78923815Y-100772012D01*
X78924630Y-100779246D01*
X78924632Y-100779255D01*
X78984210Y-100949521D01*
X79057080Y-101065493D01*
X79080184Y-101102262D01*
X79207738Y-101229816D01*
X79360478Y-101325789D01*
X79530745Y-101385368D01*
X79530750Y-101385369D01*
X79709996Y-101405565D01*
X79710000Y-101405565D01*
X79710004Y-101405565D01*
X79889249Y-101385369D01*
X79889252Y-101385368D01*
X79889255Y-101385368D01*
X80059522Y-101325789D01*
X80212262Y-101229816D01*
X80339816Y-101102262D01*
X80435789Y-100949522D01*
X80495368Y-100779255D01*
X80515565Y-100600000D01*
X80499875Y-100460750D01*
X80495369Y-100420750D01*
X80495368Y-100420745D01*
X80435789Y-100250478D01*
X80339816Y-100097738D01*
X80212262Y-99970184D01*
X80123182Y-99914211D01*
X80059521Y-99874210D01*
X79889255Y-99814632D01*
X79889246Y-99814630D01*
X79882012Y-99813815D01*
X79817600Y-99786744D01*
X79808223Y-99778277D01*
X78839319Y-98809373D01*
X78805834Y-98748050D01*
X78803000Y-98721692D01*
X78803000Y-98517567D01*
X78822007Y-98451594D01*
X78878288Y-98362024D01*
X78937868Y-98191754D01*
X78937869Y-98191749D01*
X78958065Y-98012503D01*
X78958065Y-98012496D01*
X78937869Y-97833250D01*
X78937868Y-97833245D01*
X78878288Y-97662976D01*
X78782315Y-97510237D01*
X78654762Y-97382684D01*
X78502023Y-97286711D01*
X78331754Y-97227131D01*
X78331749Y-97227130D01*
X78152504Y-97206935D01*
X78152496Y-97206935D01*
X77973250Y-97227130D01*
X77973245Y-97227131D01*
X77802976Y-97286711D01*
X77650237Y-97382684D01*
X77522684Y-97510237D01*
X77426711Y-97662976D01*
X77367131Y-97833245D01*
X77367130Y-97833250D01*
X77346935Y-98012496D01*
X50500500Y-98012496D01*
X50500500Y-93309996D01*
X68534435Y-93309996D01*
X68534435Y-93310003D01*
X68554630Y-93489249D01*
X68554631Y-93489254D01*
X68614211Y-93659523D01*
X68648340Y-93713838D01*
X68710184Y-93812262D01*
X68837738Y-93939816D01*
X68990478Y-94035789D01*
X69160745Y-94095368D01*
X69160750Y-94095369D01*
X69339996Y-94115565D01*
X69340000Y-94115565D01*
X69340004Y-94115565D01*
X69519249Y-94095369D01*
X69519252Y-94095368D01*
X69519255Y-94095368D01*
X69689522Y-94035789D01*
X69842262Y-93939816D01*
X69969816Y-93812262D01*
X70065789Y-93659522D01*
X70065790Y-93659518D01*
X70066224Y-93658828D01*
X70083533Y-93637122D01*
X70990659Y-92729996D01*
X121154435Y-92729996D01*
X121154435Y-92730003D01*
X121174630Y-92909249D01*
X121174631Y-92909254D01*
X121234211Y-93079523D01*
X121321407Y-93218294D01*
X121330184Y-93232262D01*
X121457738Y-93359816D01*
X121610478Y-93455789D01*
X121780745Y-93515368D01*
X121780750Y-93515369D01*
X121959996Y-93535565D01*
X121960000Y-93535565D01*
X121960004Y-93535565D01*
X122139249Y-93515369D01*
X122139252Y-93515368D01*
X122139255Y-93515368D01*
X122219017Y-93487457D01*
X122259972Y-93480500D01*
X131837770Y-93480500D01*
X131904809Y-93500185D01*
X131925451Y-93516819D01*
X135156692Y-96748059D01*
X135179358Y-96784125D01*
X135181188Y-96783244D01*
X135184209Y-96789518D01*
X135184211Y-96789522D01*
X135280184Y-96942262D01*
X135407738Y-97069816D01*
X135560478Y-97165789D01*
X135678067Y-97206935D01*
X135730745Y-97225368D01*
X135730750Y-97225369D01*
X135909996Y-97245565D01*
X135910000Y-97245565D01*
X135910004Y-97245565D01*
X136089249Y-97225369D01*
X136089252Y-97225368D01*
X136089255Y-97225368D01*
X136259522Y-97165789D01*
X136412262Y-97069816D01*
X136539816Y-96942262D01*
X136635789Y-96789522D01*
X136695368Y-96619255D01*
X136699587Y-96581809D01*
X136715565Y-96440003D01*
X136715565Y-96439996D01*
X136695369Y-96260750D01*
X136695368Y-96260745D01*
X136635788Y-96090476D01*
X136539815Y-95937737D01*
X136412262Y-95810184D01*
X136259522Y-95714211D01*
X136259518Y-95714209D01*
X136253244Y-95711188D01*
X136254125Y-95709358D01*
X136218059Y-95686692D01*
X132678421Y-92147052D01*
X132678414Y-92147046D01*
X132604729Y-92097812D01*
X132604729Y-92097813D01*
X132555491Y-92064913D01*
X132418917Y-92008343D01*
X132418907Y-92008340D01*
X132273920Y-91979500D01*
X132273918Y-91979500D01*
X122259972Y-91979500D01*
X122219017Y-91972542D01*
X122139254Y-91944631D01*
X122139249Y-91944630D01*
X121960004Y-91924435D01*
X121959996Y-91924435D01*
X121780750Y-91944630D01*
X121780745Y-91944631D01*
X121610476Y-92004211D01*
X121457737Y-92100184D01*
X121330184Y-92227737D01*
X121234211Y-92380476D01*
X121174631Y-92550745D01*
X121174630Y-92550750D01*
X121154435Y-92729996D01*
X70990659Y-92729996D01*
X74976345Y-88744310D01*
X156344435Y-88744310D01*
X156344435Y-88744317D01*
X156364630Y-88923563D01*
X156364631Y-88923568D01*
X156424211Y-89093837D01*
X156465121Y-89158944D01*
X156520184Y-89246576D01*
X156647738Y-89374130D01*
X156647741Y-89374132D01*
X156653182Y-89378471D01*
X156652836Y-89378903D01*
X156665261Y-89388811D01*
X156669479Y-89393029D01*
X156669480Y-89393030D01*
X156781284Y-89504834D01*
X156781285Y-89504834D01*
X156788352Y-89511901D01*
X156788351Y-89511901D01*
X156788355Y-89511904D01*
X157239298Y-89962847D01*
X157272783Y-90024170D01*
X157274837Y-90036644D01*
X157284630Y-90123563D01*
X157344210Y-90293835D01*
X157344213Y-90293839D01*
X157440184Y-90446576D01*
X157567738Y-90574130D01*
X157720478Y-90670103D01*
X157759968Y-90683921D01*
X157890745Y-90729682D01*
X157890750Y-90729683D01*
X158069996Y-90749879D01*
X158070000Y-90749879D01*
X158070004Y-90749879D01*
X158249249Y-90729683D01*
X158249252Y-90729682D01*
X158249255Y-90729682D01*
X158419522Y-90670103D01*
X158572262Y-90574130D01*
X158699816Y-90446576D01*
X158795789Y-90293836D01*
X158795790Y-90293831D01*
X158798279Y-90288665D01*
X158845102Y-90236805D01*
X158912529Y-90218492D01*
X158979153Y-90239539D01*
X159021721Y-90288665D01*
X159024212Y-90293839D01*
X159109766Y-90429996D01*
X159120184Y-90446576D01*
X159247738Y-90574130D01*
X159400478Y-90670103D01*
X159439968Y-90683921D01*
X159570745Y-90729682D01*
X159570750Y-90729683D01*
X159749996Y-90749879D01*
X159750000Y-90749879D01*
X159750004Y-90749879D01*
X159929249Y-90729683D01*
X159929252Y-90729682D01*
X159929255Y-90729682D01*
X160099522Y-90670103D01*
X160252262Y-90574130D01*
X160379816Y-90446576D01*
X160475789Y-90293836D01*
X160535368Y-90123569D01*
X160540223Y-90080478D01*
X160555565Y-89944317D01*
X160555565Y-89944310D01*
X160535369Y-89765064D01*
X160535368Y-89765059D01*
X160493228Y-89644630D01*
X160475789Y-89594792D01*
X160379816Y-89442052D01*
X160252262Y-89314498D01*
X160144165Y-89246576D01*
X160099521Y-89218524D01*
X159929249Y-89158944D01*
X159842331Y-89149151D01*
X159777917Y-89122084D01*
X159768534Y-89113612D01*
X159164498Y-88509576D01*
X158509045Y-87854124D01*
X158475561Y-87792802D01*
X158479687Y-87725488D01*
X158485368Y-87709255D01*
X158492566Y-87645369D01*
X158505565Y-87530003D01*
X158505565Y-87529996D01*
X158485369Y-87350750D01*
X158485368Y-87350745D01*
X158459819Y-87277731D01*
X158425789Y-87180478D01*
X158420226Y-87171625D01*
X158386582Y-87118080D01*
X158329816Y-87027738D01*
X158202262Y-86900184D01*
X158049523Y-86804211D01*
X157879254Y-86744631D01*
X157879249Y-86744630D01*
X157700004Y-86724435D01*
X157699996Y-86724435D01*
X157520750Y-86744630D01*
X157520745Y-86744631D01*
X157350476Y-86804211D01*
X157197737Y-86900184D01*
X157070184Y-87027737D01*
X156974211Y-87180476D01*
X156914631Y-87350745D01*
X156914630Y-87350750D01*
X156894435Y-87529996D01*
X156894435Y-87530003D01*
X156914630Y-87709249D01*
X156914631Y-87709254D01*
X156957638Y-87832159D01*
X156961199Y-87901938D01*
X156926470Y-87962566D01*
X156881551Y-87990155D01*
X156800480Y-88018523D01*
X156647737Y-88114498D01*
X156520184Y-88242051D01*
X156424211Y-88394790D01*
X156364631Y-88565059D01*
X156364630Y-88565064D01*
X156344435Y-88744310D01*
X74976345Y-88744310D01*
X77879290Y-85841365D01*
X77926013Y-85812007D01*
X78029522Y-85775789D01*
X78182262Y-85679816D01*
X78309816Y-85552262D01*
X78405789Y-85399522D01*
X78465368Y-85229255D01*
X78485565Y-85050000D01*
X78465368Y-84870745D01*
X78405789Y-84700478D01*
X78309816Y-84547738D01*
X78182262Y-84420184D01*
X78029523Y-84324211D01*
X77859254Y-84264631D01*
X77859249Y-84264630D01*
X77680004Y-84244435D01*
X77679996Y-84244435D01*
X77500750Y-84264630D01*
X77500745Y-84264631D01*
X77330476Y-84324211D01*
X77177737Y-84420184D01*
X77050184Y-84547737D01*
X76954212Y-84700475D01*
X76954211Y-84700476D01*
X76917992Y-84803984D01*
X76888632Y-84850709D01*
X69252243Y-92487098D01*
X69190920Y-92520583D01*
X69178450Y-92522637D01*
X69160745Y-92524632D01*
X68990478Y-92584210D01*
X68837737Y-92680184D01*
X68710184Y-92807737D01*
X68614211Y-92960476D01*
X68554631Y-93130745D01*
X68554630Y-93130750D01*
X68534435Y-93309996D01*
X50500500Y-93309996D01*
X50500500Y-73619996D01*
X64654435Y-73619996D01*
X64654435Y-73620003D01*
X64674630Y-73799249D01*
X64674631Y-73799254D01*
X64734211Y-73969523D01*
X64830184Y-74122262D01*
X64957738Y-74249816D01*
X65110478Y-74345789D01*
X65116754Y-74348811D01*
X65115867Y-74350651D01*
X65151940Y-74373307D01*
X71007049Y-80228416D01*
X71096085Y-80317452D01*
X71111585Y-80332952D01*
X71234498Y-80415080D01*
X71234511Y-80415087D01*
X71347531Y-80461901D01*
X71371087Y-80471658D01*
X71371091Y-80471658D01*
X71371092Y-80471659D01*
X71516079Y-80500500D01*
X71516082Y-80500500D01*
X75753920Y-80500500D01*
X75851462Y-80481096D01*
X75898913Y-80471658D01*
X76035495Y-80415084D01*
X76087254Y-80380500D01*
X76087254Y-80380499D01*
X76087256Y-80380499D01*
X76136239Y-80347770D01*
X76158416Y-80332952D01*
X77674548Y-78816818D01*
X77735871Y-78783334D01*
X77762229Y-78780500D01*
X90626082Y-78780500D01*
X102397770Y-78780500D01*
X102464809Y-78800185D01*
X102485451Y-78816819D01*
X110836692Y-87168060D01*
X110859356Y-87204129D01*
X110861188Y-87203247D01*
X110864207Y-87209516D01*
X110933745Y-87320184D01*
X110960184Y-87362262D01*
X111087738Y-87489816D01*
X111240478Y-87585789D01*
X111410745Y-87645368D01*
X111410750Y-87645369D01*
X111589996Y-87665565D01*
X111590000Y-87665565D01*
X111590004Y-87665565D01*
X111769249Y-87645369D01*
X111769252Y-87645368D01*
X111769255Y-87645368D01*
X111939522Y-87585789D01*
X112092262Y-87489816D01*
X112219816Y-87362262D01*
X112315789Y-87209522D01*
X112375368Y-87039255D01*
X112384244Y-86960477D01*
X112395565Y-86860003D01*
X112395565Y-86859996D01*
X112375369Y-86680750D01*
X112375368Y-86680745D01*
X112341589Y-86584211D01*
X112315789Y-86510478D01*
X112219816Y-86357738D01*
X112092262Y-86230184D01*
X111939522Y-86134211D01*
X111939516Y-86134207D01*
X111933247Y-86131188D01*
X111934129Y-86129356D01*
X111898060Y-86106692D01*
X103238421Y-77447052D01*
X103238420Y-77447051D01*
X103197939Y-77420003D01*
X103137140Y-77379379D01*
X103115495Y-77364916D01*
X103115491Y-77364914D01*
X103115489Y-77364913D01*
X102978917Y-77308343D01*
X102978907Y-77308340D01*
X102833920Y-77279500D01*
X102833918Y-77279500D01*
X90773918Y-77279500D01*
X77473917Y-77279500D01*
X77326082Y-77279500D01*
X77326080Y-77279500D01*
X77181092Y-77308340D01*
X77181082Y-77308343D01*
X77044511Y-77364912D01*
X77044498Y-77364919D01*
X76921584Y-77447048D01*
X76921580Y-77447051D01*
X75405451Y-78963181D01*
X75344128Y-78996666D01*
X75317770Y-78999500D01*
X71952229Y-78999500D01*
X71885190Y-78979815D01*
X71864548Y-78963181D01*
X66213307Y-73311940D01*
X66205805Y-73299996D01*
X74124435Y-73299996D01*
X74124435Y-73300003D01*
X74144630Y-73479249D01*
X74144631Y-73479254D01*
X74204211Y-73649524D01*
X74260493Y-73739094D01*
X74279500Y-73805067D01*
X74279500Y-76914931D01*
X74260494Y-76980903D01*
X74204211Y-77070477D01*
X74204209Y-77070481D01*
X74144633Y-77240737D01*
X74144630Y-77240750D01*
X74124435Y-77419996D01*
X74124435Y-77420003D01*
X74144630Y-77599249D01*
X74144631Y-77599254D01*
X74204211Y-77769523D01*
X74300184Y-77922262D01*
X74427738Y-78049816D01*
X74518080Y-78106582D01*
X74573820Y-78141606D01*
X74580478Y-78145789D01*
X74750745Y-78205368D01*
X74750750Y-78205369D01*
X74929996Y-78225565D01*
X74930000Y-78225565D01*
X74930004Y-78225565D01*
X75109249Y-78205369D01*
X75109252Y-78205368D01*
X75109255Y-78205368D01*
X75279522Y-78145789D01*
X75432262Y-78049816D01*
X75559816Y-77922262D01*
X75655789Y-77769522D01*
X75715368Y-77599255D01*
X75721318Y-77546446D01*
X75735565Y-77420003D01*
X75735565Y-77419996D01*
X75715369Y-77240750D01*
X75715366Y-77240737D01*
X75655790Y-77070481D01*
X75655789Y-77070478D01*
X75634008Y-77035814D01*
X75599506Y-76980903D01*
X75580500Y-76914931D01*
X75580500Y-75469996D01*
X103314435Y-75469996D01*
X103314435Y-75470003D01*
X103334630Y-75649249D01*
X103334631Y-75649254D01*
X103394211Y-75819523D01*
X103490184Y-75972262D01*
X103617738Y-76099816D01*
X103770478Y-76195789D01*
X103770480Y-76195789D01*
X103770484Y-76195792D01*
X103776756Y-76198813D01*
X103775869Y-76200653D01*
X103811939Y-76223307D01*
X110996586Y-83407954D01*
X111026058Y-83427645D01*
X111070268Y-83457184D01*
X111070270Y-83457187D01*
X111070271Y-83457187D01*
X111119496Y-83490079D01*
X111119511Y-83490087D01*
X111176079Y-83513518D01*
X111176080Y-83513518D01*
X111256088Y-83546659D01*
X111372241Y-83569763D01*
X111391468Y-83573587D01*
X111401081Y-83575500D01*
X111401082Y-83575500D01*
X137258920Y-83575500D01*
X137356462Y-83556096D01*
X137403913Y-83546658D01*
X137540495Y-83490084D01*
X137589729Y-83457186D01*
X137589734Y-83457183D01*
X137614071Y-83440921D01*
X137663416Y-83407952D01*
X138869451Y-82201914D01*
X138930772Y-82168431D01*
X139000463Y-82173415D01*
X139023103Y-82184604D01*
X139120475Y-82245788D01*
X139290745Y-82305368D01*
X139290750Y-82305369D01*
X139469996Y-82325565D01*
X139470000Y-82325565D01*
X139470004Y-82325565D01*
X139649249Y-82305369D01*
X139649252Y-82305368D01*
X139649255Y-82305368D01*
X139819522Y-82245789D01*
X139972262Y-82149816D01*
X140099816Y-82022262D01*
X140195789Y-81869522D01*
X140255368Y-81699255D01*
X140275565Y-81520000D01*
X140265955Y-81434711D01*
X140255369Y-81340750D01*
X140255368Y-81340745D01*
X140195788Y-81170476D01*
X140099815Y-81017737D01*
X140086819Y-81004741D01*
X140053334Y-80943418D01*
X140050500Y-80917060D01*
X140050500Y-78448301D01*
X140070185Y-78381262D01*
X140122989Y-78335507D01*
X140192147Y-78325563D01*
X140198692Y-78326684D01*
X140244082Y-78335713D01*
X140244085Y-78335713D01*
X140416545Y-78335713D01*
X140416546Y-78335712D01*
X140585688Y-78302068D01*
X140745019Y-78236071D01*
X140888413Y-78140258D01*
X141010359Y-78018312D01*
X141106172Y-77874918D01*
X141172169Y-77715587D01*
X141205814Y-77546442D01*
X141205814Y-75549997D01*
X146554751Y-75549997D01*
X146554751Y-75550002D01*
X146573685Y-75718056D01*
X146629545Y-75877694D01*
X146629547Y-75877697D01*
X146719518Y-76020884D01*
X146719523Y-76020890D01*
X146839109Y-76140476D01*
X146839115Y-76140481D01*
X146982302Y-76230452D01*
X146982308Y-76230455D01*
X146982310Y-76230456D01*
X147141941Y-76286313D01*
X147160961Y-76288455D01*
X147225373Y-76315520D01*
X147234760Y-76323995D01*
X149089048Y-78178283D01*
X149089058Y-78178294D01*
X149093388Y-78182624D01*
X149093389Y-78182625D01*
X149205193Y-78294429D01*
X149276700Y-78335713D01*
X149342124Y-78373486D01*
X149494852Y-78414410D01*
X149494855Y-78414410D01*
X149660562Y-78414410D01*
X149660578Y-78414409D01*
X151233246Y-78414409D01*
X151299217Y-78433414D01*
X151396219Y-78494365D01*
X151517530Y-78536813D01*
X151555852Y-78550223D01*
X151723906Y-78569158D01*
X151723909Y-78569158D01*
X151723912Y-78569158D01*
X151891965Y-78550223D01*
X151891968Y-78550222D01*
X152051599Y-78494365D01*
X152051601Y-78494363D01*
X152051603Y-78494363D01*
X152051606Y-78494361D01*
X152194793Y-78404390D01*
X152194794Y-78404389D01*
X152194799Y-78404386D01*
X152314386Y-78284799D01*
X152345007Y-78236067D01*
X152404361Y-78141606D01*
X152404363Y-78141603D01*
X152404363Y-78141601D01*
X152404365Y-78141599D01*
X152460222Y-77981968D01*
X152460222Y-77981967D01*
X152460223Y-77981965D01*
X152479158Y-77813911D01*
X152479158Y-77813906D01*
X152460223Y-77645852D01*
X152425439Y-77546446D01*
X152404365Y-77486219D01*
X152404364Y-77486218D01*
X152404363Y-77486214D01*
X152404361Y-77486211D01*
X152314390Y-77343024D01*
X152314385Y-77343018D01*
X152194799Y-77223432D01*
X152194793Y-77223427D01*
X152051606Y-77133456D01*
X152051603Y-77133454D01*
X151891965Y-77077594D01*
X151723912Y-77058660D01*
X151723906Y-77058660D01*
X151555852Y-77077594D01*
X151396216Y-77133454D01*
X151326771Y-77177090D01*
X151300299Y-77193724D01*
X151299218Y-77194403D01*
X151233246Y-77213409D01*
X149874006Y-77213409D01*
X149806967Y-77193724D01*
X149786325Y-77177090D01*
X148083995Y-75474760D01*
X148050510Y-75413437D01*
X148048457Y-75400973D01*
X148046313Y-75381941D01*
X147990456Y-75222310D01*
X147990453Y-75222305D01*
X147990452Y-75222302D01*
X147900481Y-75079115D01*
X147900476Y-75079109D01*
X147780890Y-74959523D01*
X147780884Y-74959518D01*
X147637697Y-74869547D01*
X147637694Y-74869545D01*
X147478056Y-74813685D01*
X147310003Y-74794751D01*
X147309997Y-74794751D01*
X147141943Y-74813685D01*
X146982305Y-74869545D01*
X146982302Y-74869547D01*
X146839115Y-74959518D01*
X146839109Y-74959523D01*
X146719523Y-75079109D01*
X146719518Y-75079115D01*
X146629547Y-75222302D01*
X146629545Y-75222305D01*
X146573685Y-75381943D01*
X146554751Y-75549997D01*
X141205814Y-75549997D01*
X141205814Y-75063692D01*
X141225499Y-74996653D01*
X141242133Y-74976011D01*
X142016325Y-74201819D01*
X142077648Y-74168334D01*
X142104006Y-74165500D01*
X143113771Y-74165500D01*
X152903771Y-74165500D01*
X154003771Y-74165500D01*
X154176229Y-74165500D01*
X158721286Y-74165500D01*
X158745477Y-74167882D01*
X158764073Y-74171581D01*
X158783770Y-74175500D01*
X158783771Y-74175500D01*
X158956230Y-74175500D01*
X158975926Y-74171581D01*
X158994522Y-74167882D01*
X159018714Y-74165500D01*
X165093771Y-74165500D01*
X166115994Y-74165500D01*
X166183033Y-74185185D01*
X166203675Y-74201819D01*
X169758181Y-77756325D01*
X169791666Y-77817648D01*
X169794500Y-77844006D01*
X169794500Y-79390500D01*
X169774815Y-79457539D01*
X169722011Y-79503294D01*
X169670500Y-79514500D01*
X167113768Y-79514500D01*
X166944633Y-79548143D01*
X166944621Y-79548146D01*
X166785301Y-79614138D01*
X166785289Y-79614145D01*
X166692594Y-79676083D01*
X166692593Y-79676083D01*
X166641905Y-79709951D01*
X166641897Y-79709957D01*
X165889957Y-80461897D01*
X165889954Y-80461901D01*
X165794145Y-80605288D01*
X165794138Y-80605301D01*
X165728146Y-80764621D01*
X165728143Y-80764633D01*
X165694500Y-80933766D01*
X165694500Y-81106233D01*
X165728143Y-81275366D01*
X165728146Y-81275378D01*
X165794138Y-81434698D01*
X165794145Y-81434711D01*
X165889954Y-81578098D01*
X165889957Y-81578102D01*
X166011897Y-81700042D01*
X166011901Y-81700045D01*
X166155288Y-81795854D01*
X166155301Y-81795861D01*
X166314621Y-81861853D01*
X166314626Y-81861855D01*
X166483766Y-81895499D01*
X166483769Y-81895500D01*
X166483771Y-81895500D01*
X166656231Y-81895500D01*
X166656232Y-81895499D01*
X166825374Y-81861855D01*
X166984705Y-81795858D01*
X167128099Y-81700045D01*
X167526325Y-81301819D01*
X167587648Y-81268334D01*
X167614006Y-81265500D01*
X169670500Y-81265500D01*
X169737539Y-81285185D01*
X169783294Y-81337989D01*
X169794500Y-81389500D01*
X169794500Y-86970018D01*
X169774815Y-87037057D01*
X169722011Y-87082812D01*
X169652853Y-87092756D01*
X169589297Y-87063731D01*
X169553458Y-87010973D01*
X169539127Y-86970018D01*
X169535789Y-86960478D01*
X169439816Y-86807738D01*
X169312262Y-86680184D01*
X169159523Y-86584211D01*
X168989254Y-86524631D01*
X168989249Y-86524630D01*
X168810004Y-86504435D01*
X168809996Y-86504435D01*
X168630750Y-86524630D01*
X168630745Y-86524631D01*
X168460476Y-86584211D01*
X168307737Y-86680184D01*
X168180184Y-86807737D01*
X168084210Y-86960478D01*
X168024630Y-87130750D01*
X168020025Y-87171625D01*
X167992958Y-87236039D01*
X167935363Y-87275594D01*
X167865526Y-87277731D01*
X167830833Y-87262735D01*
X167769523Y-87224211D01*
X167599254Y-87164631D01*
X167599249Y-87164630D01*
X167420004Y-87144435D01*
X167419996Y-87144435D01*
X167240750Y-87164630D01*
X167240745Y-87164631D01*
X167070476Y-87224211D01*
X166917737Y-87320184D01*
X166790184Y-87447737D01*
X166694211Y-87600476D01*
X166634631Y-87770745D01*
X166634630Y-87770750D01*
X166614435Y-87949996D01*
X166614435Y-87950003D01*
X166634630Y-88129249D01*
X166634631Y-88129254D01*
X166694211Y-88299523D01*
X166790184Y-88452262D01*
X166917738Y-88579816D01*
X167070478Y-88675789D01*
X167240745Y-88735368D01*
X167240750Y-88735369D01*
X167419996Y-88755565D01*
X167420000Y-88755565D01*
X167420004Y-88755565D01*
X167599249Y-88735369D01*
X167599252Y-88735368D01*
X167599255Y-88735368D01*
X167769522Y-88675789D01*
X167922262Y-88579816D01*
X167922267Y-88579810D01*
X167925097Y-88577555D01*
X167927275Y-88576665D01*
X167928158Y-88576111D01*
X167928255Y-88576265D01*
X167989783Y-88551145D01*
X168002412Y-88550500D01*
X168083331Y-88550500D01*
X168083347Y-88550501D01*
X168090943Y-88550501D01*
X168249054Y-88550501D01*
X168249057Y-88550501D01*
X168401785Y-88509577D01*
X168451904Y-88480639D01*
X168538716Y-88430520D01*
X168650520Y-88318716D01*
X168650520Y-88318714D01*
X168660728Y-88308507D01*
X168660730Y-88308504D01*
X168828535Y-88140698D01*
X168889856Y-88107215D01*
X168902311Y-88105163D01*
X168989255Y-88095368D01*
X169159522Y-88035789D01*
X169312262Y-87939816D01*
X169439816Y-87812262D01*
X169535789Y-87659522D01*
X169553458Y-87609027D01*
X169594180Y-87552251D01*
X169659132Y-87526503D01*
X169727694Y-87539959D01*
X169778097Y-87588346D01*
X169794500Y-87649981D01*
X169794500Y-89815994D01*
X169774815Y-89883033D01*
X169758181Y-89903675D01*
X167553675Y-92108181D01*
X167492352Y-92141666D01*
X167465994Y-92144500D01*
X156313768Y-92144500D01*
X156144633Y-92178143D01*
X156144621Y-92178146D01*
X155985301Y-92244138D01*
X155985288Y-92244145D01*
X155841901Y-92339954D01*
X155841897Y-92339957D01*
X155719957Y-92461897D01*
X155719954Y-92461901D01*
X155624145Y-92605288D01*
X155624138Y-92605301D01*
X155558146Y-92764621D01*
X155558143Y-92764633D01*
X155524500Y-92933766D01*
X155524500Y-93105500D01*
X155504815Y-93172539D01*
X155452011Y-93218294D01*
X155400500Y-93229500D01*
X155120667Y-93229500D01*
X155106785Y-93228720D01*
X155084140Y-93226168D01*
X154975586Y-93213937D01*
X154911172Y-93186870D01*
X154874909Y-93138169D01*
X154870778Y-93128196D01*
X154870777Y-93128195D01*
X154870775Y-93128189D01*
X154794114Y-93013457D01*
X154794112Y-93013454D01*
X154794111Y-93013453D01*
X152011367Y-90230710D01*
X151982006Y-90183983D01*
X151960866Y-90123568D01*
X151945789Y-90080478D01*
X151849816Y-89927738D01*
X151722262Y-89800184D01*
X151666361Y-89765059D01*
X151569523Y-89704211D01*
X151399254Y-89644631D01*
X151399249Y-89644630D01*
X151220004Y-89624435D01*
X151219996Y-89624435D01*
X151040750Y-89644630D01*
X151040745Y-89644631D01*
X150870476Y-89704211D01*
X150717737Y-89800184D01*
X150590184Y-89927737D01*
X150494211Y-90080476D01*
X150434631Y-90250745D01*
X150434630Y-90250750D01*
X150414435Y-90429996D01*
X150414435Y-90430003D01*
X150434630Y-90609249D01*
X150434631Y-90609254D01*
X150494211Y-90779523D01*
X150547621Y-90864524D01*
X150590184Y-90932262D01*
X150717738Y-91059816D01*
X150870478Y-91155789D01*
X150973984Y-91192007D01*
X151020710Y-91221367D01*
X153513181Y-93713838D01*
X153546666Y-93775161D01*
X153549500Y-93801519D01*
X153549500Y-95835264D01*
X153529815Y-95902303D01*
X153528603Y-95904154D01*
X153519227Y-95918185D01*
X153519223Y-95918192D01*
X153466420Y-96045671D01*
X153466418Y-96045677D01*
X153439500Y-96181003D01*
X153439500Y-96181006D01*
X153439500Y-96318994D01*
X153439500Y-96318996D01*
X153439499Y-96318996D01*
X153466418Y-96454322D01*
X153466421Y-96454332D01*
X153519223Y-96581809D01*
X153528601Y-96595843D01*
X153549480Y-96662520D01*
X153549500Y-96664735D01*
X153549500Y-98801006D01*
X153549500Y-98938994D01*
X153549500Y-98938996D01*
X153549499Y-98938996D01*
X153576418Y-99074322D01*
X153576421Y-99074332D01*
X153629222Y-99201807D01*
X153705887Y-99316545D01*
X153705888Y-99316546D01*
X154435886Y-100046543D01*
X156103181Y-101713838D01*
X156136666Y-101775161D01*
X156139500Y-101801519D01*
X156139500Y-101814507D01*
X156120494Y-101880478D01*
X156114209Y-101890479D01*
X156054633Y-102060737D01*
X156054630Y-102060750D01*
X156034435Y-102239996D01*
X156034435Y-102240003D01*
X156054630Y-102419249D01*
X156054631Y-102419254D01*
X156114211Y-102589523D01*
X156210184Y-102742262D01*
X156337738Y-102869816D01*
X156490478Y-102965789D01*
X156660745Y-103025368D01*
X156660750Y-103025369D01*
X156839996Y-103045565D01*
X156840000Y-103045565D01*
X156840004Y-103045565D01*
X157019249Y-103025369D01*
X157019252Y-103025368D01*
X157019255Y-103025368D01*
X157189522Y-102965789D01*
X157342262Y-102869816D01*
X157469816Y-102742262D01*
X157565789Y-102589522D01*
X157625368Y-102419255D01*
X157645565Y-102240000D01*
X157625368Y-102060745D01*
X157625367Y-102060743D01*
X157625366Y-102060737D01*
X157565790Y-101890479D01*
X157559506Y-101880478D01*
X157540500Y-101814507D01*
X157540500Y-101391004D01*
X157518934Y-101282591D01*
X157513580Y-101255671D01*
X157501617Y-101226790D01*
X157460776Y-101128190D01*
X157384112Y-101013454D01*
X157384111Y-101013453D01*
X155426543Y-99055886D01*
X154986819Y-98616162D01*
X154953334Y-98554839D01*
X154950500Y-98528481D01*
X154950500Y-94939702D01*
X154970185Y-94872663D01*
X155022989Y-94826908D01*
X155060617Y-94816482D01*
X155159249Y-94805369D01*
X155159252Y-94805368D01*
X155159255Y-94805368D01*
X155329522Y-94745789D01*
X155329525Y-94745786D01*
X155335761Y-94742784D01*
X155389571Y-94730500D01*
X158110028Y-94730500D01*
X158150982Y-94737457D01*
X158230745Y-94765368D01*
X158230750Y-94765369D01*
X158409996Y-94785565D01*
X158410000Y-94785565D01*
X158410004Y-94785565D01*
X158589249Y-94765369D01*
X158589252Y-94765368D01*
X158589255Y-94765368D01*
X158669017Y-94737457D01*
X158709972Y-94730500D01*
X168723920Y-94730500D01*
X168821462Y-94711096D01*
X168868913Y-94701658D01*
X169005495Y-94645084D01*
X169068550Y-94602952D01*
X169128416Y-94562952D01*
X172602952Y-91088416D01*
X172604387Y-91086267D01*
X172658113Y-91005860D01*
X172658114Y-91005858D01*
X172685084Y-90965495D01*
X172726905Y-90864530D01*
X172741659Y-90828912D01*
X172770500Y-90683917D01*
X172770500Y-90536082D01*
X172770500Y-84009972D01*
X172777458Y-83969017D01*
X172805368Y-83889254D01*
X172805369Y-83889249D01*
X172825565Y-83710003D01*
X172825565Y-83709996D01*
X172805368Y-83530747D01*
X172805368Y-83530745D01*
X172777458Y-83450982D01*
X172770500Y-83410028D01*
X172770500Y-76966079D01*
X172741659Y-76821092D01*
X172741658Y-76821091D01*
X172741658Y-76821087D01*
X172741656Y-76821082D01*
X172685087Y-76684511D01*
X172685080Y-76684498D01*
X172602952Y-76561585D01*
X172602951Y-76561584D01*
X172498416Y-76457049D01*
X171263365Y-75221998D01*
X167548421Y-71507052D01*
X167548414Y-71507046D01*
X167474729Y-71457812D01*
X167474729Y-71457813D01*
X167425491Y-71424913D01*
X167288917Y-71368343D01*
X167288907Y-71368340D01*
X167143920Y-71339500D01*
X167143918Y-71339500D01*
X164609972Y-71339500D01*
X164569017Y-71332542D01*
X164489254Y-71304631D01*
X164489249Y-71304630D01*
X164310004Y-71284435D01*
X164309996Y-71284435D01*
X164130750Y-71304630D01*
X164130745Y-71304631D01*
X164050983Y-71332542D01*
X164010028Y-71339500D01*
X159858756Y-71339500D01*
X159791717Y-71319815D01*
X159745962Y-71267011D01*
X159736999Y-71234670D01*
X159736917Y-71234689D01*
X159736508Y-71232899D01*
X159735536Y-71229390D01*
X159735368Y-71227903D01*
X159735368Y-71227902D01*
X159696820Y-71117738D01*
X159675789Y-71057635D01*
X159579816Y-70904895D01*
X159452262Y-70777341D01*
X159299523Y-70681368D01*
X159129254Y-70621788D01*
X159129249Y-70621787D01*
X158950004Y-70601592D01*
X158949996Y-70601592D01*
X158770750Y-70621787D01*
X158770745Y-70621788D01*
X158600476Y-70681368D01*
X158447737Y-70777341D01*
X158320184Y-70904894D01*
X158224211Y-71057635D01*
X158221188Y-71063913D01*
X158219362Y-71063033D01*
X158196693Y-71099094D01*
X157992606Y-71303182D01*
X157931286Y-71336666D01*
X157904927Y-71339500D01*
X149912812Y-71339500D01*
X149871857Y-71332541D01*
X149849256Y-71324632D01*
X149849246Y-71324630D01*
X149670004Y-71304435D01*
X149669996Y-71304435D01*
X149490753Y-71324630D01*
X149490743Y-71324632D01*
X149468143Y-71332541D01*
X149427188Y-71339500D01*
X144226943Y-71339500D01*
X144159904Y-71319815D01*
X144120769Y-71275572D01*
X144119494Y-71276374D01*
X144027264Y-71129592D01*
X144019816Y-71117738D01*
X143892262Y-70990184D01*
X143739523Y-70894211D01*
X143569254Y-70834631D01*
X143569249Y-70834630D01*
X143390004Y-70814435D01*
X143389996Y-70814435D01*
X143210750Y-70834630D01*
X143210745Y-70834631D01*
X143040476Y-70894211D01*
X142887737Y-70990184D01*
X142760184Y-71117737D01*
X142660506Y-71276374D01*
X142659156Y-71275526D01*
X142617956Y-71321161D01*
X142553057Y-71339500D01*
X140906080Y-71339500D01*
X140761092Y-71368340D01*
X140761086Y-71368342D01*
X140624508Y-71424914D01*
X140624496Y-71424921D01*
X140575269Y-71457813D01*
X140501588Y-71507044D01*
X140501580Y-71507050D01*
X138717048Y-73291583D01*
X138703447Y-73311940D01*
X138673855Y-73356229D01*
X138654385Y-73385367D01*
X138634916Y-73414504D01*
X138634912Y-73414511D01*
X138578343Y-73551082D01*
X138578340Y-73551092D01*
X138549500Y-73696079D01*
X138549500Y-74160028D01*
X138542542Y-74200982D01*
X138514631Y-74280747D01*
X138494435Y-74459996D01*
X138494435Y-74460003D01*
X138514630Y-74639249D01*
X138514631Y-74639254D01*
X138542542Y-74719017D01*
X138549500Y-74759972D01*
X138549500Y-80347770D01*
X138529815Y-80414809D01*
X138513181Y-80435451D01*
X136910451Y-82038181D01*
X136849128Y-82071666D01*
X136822770Y-82074500D01*
X120174500Y-82074500D01*
X120107461Y-82054815D01*
X120061706Y-82002011D01*
X120050500Y-81950500D01*
X120050499Y-80627129D01*
X120050498Y-80627123D01*
X120050497Y-80627116D01*
X120044091Y-80567517D01*
X119993796Y-80432669D01*
X119993793Y-80432664D01*
X119907547Y-80317455D01*
X119907544Y-80317452D01*
X119792335Y-80231206D01*
X119792328Y-80231202D01*
X119660917Y-80182189D01*
X119604983Y-80140318D01*
X119580566Y-80074853D01*
X119595418Y-80006580D01*
X119616563Y-79978332D01*
X119738495Y-79856401D01*
X119874035Y-79662830D01*
X119973903Y-79448663D01*
X120035063Y-79220408D01*
X120055659Y-78985000D01*
X120035063Y-78749592D01*
X119973903Y-78521337D01*
X119874035Y-78307171D01*
X119870461Y-78302066D01*
X119738494Y-78113597D01*
X119571402Y-77946506D01*
X119571396Y-77946501D01*
X119385842Y-77816575D01*
X119342217Y-77761998D01*
X119335023Y-77692500D01*
X119366546Y-77630145D01*
X119385842Y-77613425D01*
X119408026Y-77597891D01*
X119571401Y-77483495D01*
X119738495Y-77316401D01*
X119874035Y-77122830D01*
X119973903Y-76908663D01*
X120035063Y-76680408D01*
X120055659Y-76445000D01*
X120035063Y-76209592D01*
X119973903Y-75981337D01*
X119874035Y-75767171D01*
X119839645Y-75718056D01*
X119738494Y-75573597D01*
X119571402Y-75406506D01*
X119571396Y-75406501D01*
X119385842Y-75276575D01*
X119342217Y-75221998D01*
X119335023Y-75152500D01*
X119366546Y-75090145D01*
X119385842Y-75073425D01*
X119408026Y-75057891D01*
X119571401Y-74943495D01*
X119738495Y-74776401D01*
X119874035Y-74582830D01*
X119973903Y-74368663D01*
X120035063Y-74140408D01*
X120055659Y-73905000D01*
X120035063Y-73669592D01*
X119973903Y-73441337D01*
X119874035Y-73227171D01*
X119738495Y-73033599D01*
X119738494Y-73033597D01*
X119571402Y-72866506D01*
X119571396Y-72866501D01*
X119385842Y-72736575D01*
X119342217Y-72681998D01*
X119335023Y-72612500D01*
X119366546Y-72550145D01*
X119385842Y-72533425D01*
X119441525Y-72494435D01*
X119571401Y-72403495D01*
X119738495Y-72236401D01*
X119874035Y-72042830D01*
X119973903Y-71828663D01*
X120035063Y-71600408D01*
X120055659Y-71365000D01*
X120051823Y-71321161D01*
X120035063Y-71129596D01*
X120035063Y-71129592D01*
X119973903Y-70901337D01*
X119874035Y-70687171D01*
X119828255Y-70621789D01*
X119738494Y-70493597D01*
X119571402Y-70326506D01*
X119571396Y-70326501D01*
X119385842Y-70196575D01*
X119342217Y-70141998D01*
X119335023Y-70072500D01*
X119366546Y-70010145D01*
X119385842Y-69993425D01*
X119408026Y-69977891D01*
X119571401Y-69863495D01*
X119738495Y-69696401D01*
X119874035Y-69502830D01*
X119973903Y-69288663D01*
X120035063Y-69060408D01*
X120055659Y-68825000D01*
X120035063Y-68589592D01*
X119973903Y-68361337D01*
X119874035Y-68147171D01*
X119738495Y-67953599D01*
X119738494Y-67953597D01*
X119571402Y-67786506D01*
X119571395Y-67786501D01*
X119377834Y-67650967D01*
X119377830Y-67650965D01*
X119377828Y-67650964D01*
X119163663Y-67551097D01*
X119163659Y-67551096D01*
X119163655Y-67551094D01*
X118935413Y-67489938D01*
X118935403Y-67489936D01*
X118700001Y-67469341D01*
X118699999Y-67469341D01*
X118464596Y-67489936D01*
X118464586Y-67489938D01*
X118236344Y-67551094D01*
X118236335Y-67551098D01*
X118022171Y-67650964D01*
X118022169Y-67650965D01*
X117828597Y-67786505D01*
X117661505Y-67953597D01*
X117525965Y-68147169D01*
X117525964Y-68147171D01*
X117426098Y-68361335D01*
X117426094Y-68361344D01*
X117364938Y-68589586D01*
X117364936Y-68589596D01*
X117344341Y-68824999D01*
X117344341Y-68825000D01*
X117364936Y-69060403D01*
X117364938Y-69060413D01*
X117426094Y-69288655D01*
X117426096Y-69288659D01*
X117426097Y-69288663D01*
X117525965Y-69502830D01*
X117525967Y-69502834D01*
X117661501Y-69696395D01*
X117661506Y-69696402D01*
X117828597Y-69863493D01*
X117828603Y-69863498D01*
X118014158Y-69993425D01*
X118057783Y-70048002D01*
X118064977Y-70117500D01*
X118033454Y-70179855D01*
X118014158Y-70196575D01*
X117828597Y-70326505D01*
X117661505Y-70493597D01*
X117525965Y-70687169D01*
X117525964Y-70687171D01*
X117426098Y-70901335D01*
X117426094Y-70901344D01*
X117364938Y-71129586D01*
X117364936Y-71129596D01*
X117344341Y-71364999D01*
X117344341Y-71365000D01*
X117364936Y-71600403D01*
X117364938Y-71600413D01*
X117426094Y-71828655D01*
X117426096Y-71828659D01*
X117426097Y-71828663D01*
X117525965Y-72042830D01*
X117525967Y-72042834D01*
X117661501Y-72236395D01*
X117661506Y-72236402D01*
X117828597Y-72403493D01*
X117828603Y-72403498D01*
X118014158Y-72533425D01*
X118057783Y-72588002D01*
X118064977Y-72657500D01*
X118033454Y-72719855D01*
X118014158Y-72736575D01*
X117828597Y-72866505D01*
X117661505Y-73033597D01*
X117525965Y-73227169D01*
X117525964Y-73227171D01*
X117426098Y-73441335D01*
X117426094Y-73441344D01*
X117364938Y-73669586D01*
X117364936Y-73669596D01*
X117344341Y-73904999D01*
X117344341Y-73905000D01*
X117364936Y-74140403D01*
X117364938Y-74140413D01*
X117426094Y-74368655D01*
X117426096Y-74368659D01*
X117426097Y-74368663D01*
X117468690Y-74460003D01*
X117525965Y-74582830D01*
X117525967Y-74582834D01*
X117661501Y-74776395D01*
X117661506Y-74776402D01*
X117828597Y-74943493D01*
X117828603Y-74943498D01*
X118014158Y-75073425D01*
X118057783Y-75128002D01*
X118064977Y-75197500D01*
X118033454Y-75259855D01*
X118014158Y-75276575D01*
X117828597Y-75406505D01*
X117661505Y-75573597D01*
X117525965Y-75767169D01*
X117525964Y-75767171D01*
X117426098Y-75981335D01*
X117426094Y-75981344D01*
X117364938Y-76209586D01*
X117364936Y-76209596D01*
X117344341Y-76444999D01*
X117344341Y-76445000D01*
X117364936Y-76680403D01*
X117364938Y-76680413D01*
X117426094Y-76908655D01*
X117426096Y-76908659D01*
X117426097Y-76908663D01*
X117496042Y-77058660D01*
X117525965Y-77122830D01*
X117525967Y-77122834D01*
X117661501Y-77316395D01*
X117661506Y-77316402D01*
X117828597Y-77483493D01*
X117828603Y-77483498D01*
X118014158Y-77613425D01*
X118057783Y-77668002D01*
X118064977Y-77737500D01*
X118033454Y-77799855D01*
X118014158Y-77816575D01*
X117828597Y-77946505D01*
X117661505Y-78113597D01*
X117525965Y-78307169D01*
X117525964Y-78307171D01*
X117426098Y-78521335D01*
X117426094Y-78521344D01*
X117364938Y-78749586D01*
X117364936Y-78749596D01*
X117344341Y-78984999D01*
X117344341Y-78985000D01*
X117364936Y-79220403D01*
X117364938Y-79220413D01*
X117426094Y-79448655D01*
X117426096Y-79448659D01*
X117426097Y-79448663D01*
X117503261Y-79614142D01*
X117525965Y-79662830D01*
X117525967Y-79662834D01*
X117634281Y-79817521D01*
X117661501Y-79856396D01*
X117661506Y-79856402D01*
X117783430Y-79978326D01*
X117816915Y-80039649D01*
X117811931Y-80109341D01*
X117770059Y-80165274D01*
X117739083Y-80182189D01*
X117607669Y-80231203D01*
X117607664Y-80231206D01*
X117492455Y-80317452D01*
X117492452Y-80317455D01*
X117406206Y-80432664D01*
X117406204Y-80432669D01*
X117355908Y-80567517D01*
X117349501Y-80627116D01*
X117349500Y-80627127D01*
X117349500Y-81340750D01*
X117349501Y-81950500D01*
X117329816Y-82017539D01*
X117277013Y-82063294D01*
X117225501Y-82074500D01*
X111837230Y-82074500D01*
X111770191Y-82054815D01*
X111749549Y-82038181D01*
X104873307Y-75161939D01*
X104850653Y-75125869D01*
X104848813Y-75126756D01*
X104845792Y-75120484D01*
X104845789Y-75120480D01*
X104845789Y-75120478D01*
X104749816Y-74967738D01*
X104622262Y-74840184D01*
X104469523Y-74744211D01*
X104299254Y-74684631D01*
X104299249Y-74684630D01*
X104120004Y-74664435D01*
X104119996Y-74664435D01*
X103940750Y-74684630D01*
X103940745Y-74684631D01*
X103770476Y-74744211D01*
X103617737Y-74840184D01*
X103490184Y-74967737D01*
X103394211Y-75120476D01*
X103334631Y-75290745D01*
X103334630Y-75290750D01*
X103314435Y-75469996D01*
X75580500Y-75469996D01*
X75580500Y-73805067D01*
X75599507Y-73739094D01*
X75655788Y-73649524D01*
X75666119Y-73620000D01*
X75715368Y-73479255D01*
X75719640Y-73441344D01*
X75735565Y-73300003D01*
X75735565Y-73299996D01*
X75715369Y-73120750D01*
X75715368Y-73120745D01*
X75684874Y-73033599D01*
X75655789Y-72950478D01*
X75559816Y-72797738D01*
X75432262Y-72670184D01*
X75340459Y-72612500D01*
X75279523Y-72574211D01*
X75109254Y-72514631D01*
X75109249Y-72514630D01*
X74930004Y-72494435D01*
X74929996Y-72494435D01*
X74750750Y-72514630D01*
X74750745Y-72514631D01*
X74580476Y-72574211D01*
X74427737Y-72670184D01*
X74300184Y-72797737D01*
X74204211Y-72950476D01*
X74144631Y-73120745D01*
X74144630Y-73120750D01*
X74124435Y-73299996D01*
X66205805Y-73299996D01*
X66190651Y-73275867D01*
X66188811Y-73276754D01*
X66185789Y-73270478D01*
X66158576Y-73227169D01*
X66089816Y-73117738D01*
X65962262Y-72990184D01*
X65809523Y-72894211D01*
X65639254Y-72834631D01*
X65639249Y-72834630D01*
X65460004Y-72814435D01*
X65459996Y-72814435D01*
X65280750Y-72834630D01*
X65280745Y-72834631D01*
X65110476Y-72894211D01*
X64957737Y-72990184D01*
X64830184Y-73117737D01*
X64734211Y-73270476D01*
X64674631Y-73440745D01*
X64674630Y-73440750D01*
X64654435Y-73619996D01*
X50500500Y-73619996D01*
X50500500Y-62413766D01*
X101684500Y-62413766D01*
X101684500Y-62586233D01*
X101718143Y-62755366D01*
X101718146Y-62755378D01*
X101784138Y-62914698D01*
X101784145Y-62914711D01*
X101879954Y-63058098D01*
X101879957Y-63058102D01*
X103161897Y-64340042D01*
X103161901Y-64340045D01*
X103305288Y-64435854D01*
X103305301Y-64435861D01*
X103464621Y-64501853D01*
X103464626Y-64501855D01*
X103633766Y-64535499D01*
X103633769Y-64535500D01*
X103633771Y-64535500D01*
X103806229Y-64535500D01*
X137550800Y-64535500D01*
X137617839Y-64555185D01*
X137663594Y-64607989D01*
X137673538Y-64677147D01*
X137672417Y-64683691D01*
X137654500Y-64773766D01*
X137654500Y-65556233D01*
X137688143Y-65725366D01*
X137688146Y-65725378D01*
X137754138Y-65884698D01*
X137754145Y-65884711D01*
X137849954Y-66028098D01*
X137849957Y-66028102D01*
X137971897Y-66150042D01*
X137971901Y-66150045D01*
X138115288Y-66245854D01*
X138115301Y-66245861D01*
X138274621Y-66311853D01*
X138274626Y-66311855D01*
X138443766Y-66345499D01*
X138443769Y-66345500D01*
X138443771Y-66345500D01*
X138616231Y-66345500D01*
X138616232Y-66345499D01*
X138785374Y-66311855D01*
X138944705Y-66245858D01*
X139088099Y-66150045D01*
X139210045Y-66028099D01*
X139305858Y-65884705D01*
X139371855Y-65725374D01*
X139405500Y-65556229D01*
X139405500Y-65539996D01*
X165991592Y-65539996D01*
X165991592Y-65540003D01*
X166011787Y-65719249D01*
X166011788Y-65719254D01*
X166071368Y-65889523D01*
X166158441Y-66028098D01*
X166167341Y-66042262D01*
X166294895Y-66169816D01*
X166385237Y-66226582D01*
X166415908Y-66245854D01*
X166447635Y-66265789D01*
X166579284Y-66311855D01*
X166617902Y-66325368D01*
X166617907Y-66325369D01*
X166797153Y-66345565D01*
X166797157Y-66345565D01*
X166797161Y-66345565D01*
X166976406Y-66325369D01*
X166976409Y-66325368D01*
X166976412Y-66325368D01*
X167146679Y-66265789D01*
X167299419Y-66169816D01*
X167299424Y-66169810D01*
X167302723Y-66167181D01*
X167363852Y-66141186D01*
X167369054Y-66140501D01*
X167369057Y-66140501D01*
X167521785Y-66099577D01*
X167571904Y-66070639D01*
X167658716Y-66020520D01*
X167770520Y-65908716D01*
X167770520Y-65908714D01*
X167780728Y-65898507D01*
X167780730Y-65898504D01*
X170048535Y-63630698D01*
X170109856Y-63597215D01*
X170122311Y-63595163D01*
X170209255Y-63585368D01*
X170379522Y-63525789D01*
X170532262Y-63429816D01*
X170659816Y-63302262D01*
X170755789Y-63149522D01*
X170815368Y-62979255D01*
X170815369Y-62979249D01*
X170835565Y-62800003D01*
X170835565Y-62799996D01*
X170815369Y-62620750D01*
X170815368Y-62620745D01*
X170755789Y-62450478D01*
X170732724Y-62413771D01*
X170702046Y-62364946D01*
X170659816Y-62297738D01*
X170532262Y-62170184D01*
X170455344Y-62121853D01*
X170379523Y-62074211D01*
X170209254Y-62014631D01*
X170209249Y-62014630D01*
X170030004Y-61994435D01*
X170029996Y-61994435D01*
X169850750Y-62014630D01*
X169850745Y-62014631D01*
X169680476Y-62074211D01*
X169527737Y-62170184D01*
X169400182Y-62297739D01*
X169342074Y-62390218D01*
X169289740Y-62436508D01*
X169220686Y-62447156D01*
X169171109Y-62429239D01*
X169068788Y-62364946D01*
X168898519Y-62305366D01*
X168898514Y-62305365D01*
X168719269Y-62285170D01*
X168719261Y-62285170D01*
X168540015Y-62305365D01*
X168540010Y-62305366D01*
X168369741Y-62364946D01*
X168217002Y-62460919D01*
X168089449Y-62588472D01*
X167993475Y-62741213D01*
X167933895Y-62911485D01*
X167924102Y-62998403D01*
X167897035Y-63062817D01*
X167888563Y-63072200D01*
X167571837Y-63388926D01*
X167510514Y-63422411D01*
X167476963Y-63424124D01*
X167476963Y-63424435D01*
X167470887Y-63424435D01*
X167470280Y-63424466D01*
X167470005Y-63424435D01*
X167469996Y-63424435D01*
X167290750Y-63444630D01*
X167290745Y-63444631D01*
X167120476Y-63504211D01*
X166967737Y-63600184D01*
X166840184Y-63727737D01*
X166744211Y-63880476D01*
X166684631Y-64050745D01*
X166684630Y-64050750D01*
X166664435Y-64229996D01*
X166664435Y-64230003D01*
X166684630Y-64409249D01*
X166684631Y-64409254D01*
X166746511Y-64586095D01*
X166743902Y-64587007D01*
X166753224Y-64643599D01*
X166725505Y-64707735D01*
X166667512Y-64746704D01*
X166644038Y-64751686D01*
X166617905Y-64754631D01*
X166617902Y-64754631D01*
X166447633Y-64814211D01*
X166294894Y-64910184D01*
X166167341Y-65037737D01*
X166071368Y-65190476D01*
X166011788Y-65360745D01*
X166011787Y-65360750D01*
X165991592Y-65539996D01*
X139405500Y-65539996D01*
X139405500Y-65274006D01*
X139425185Y-65206967D01*
X139441819Y-65186325D01*
X143806325Y-60821819D01*
X143867648Y-60788334D01*
X143894006Y-60785500D01*
X144053771Y-60785500D01*
X154143771Y-60785500D01*
X172125994Y-60785500D01*
X172193033Y-60805185D01*
X172213675Y-60821819D01*
X173351897Y-61960042D01*
X173351905Y-61960048D01*
X173495293Y-62055857D01*
X173495297Y-62055859D01*
X173654622Y-62121853D01*
X173654627Y-62121855D01*
X173823766Y-62155499D01*
X173823769Y-62155500D01*
X173823771Y-62155500D01*
X173996231Y-62155500D01*
X173996232Y-62155499D01*
X174165374Y-62121855D01*
X174324705Y-62055858D01*
X174468099Y-61960045D01*
X174590045Y-61838099D01*
X174685858Y-61694705D01*
X174751855Y-61535374D01*
X174785500Y-61366229D01*
X174785500Y-61193771D01*
X174785500Y-61193768D01*
X174785499Y-61193766D01*
X174751856Y-61024634D01*
X174751855Y-61024627D01*
X174751853Y-61024622D01*
X174685859Y-60865297D01*
X174685857Y-60865293D01*
X174590048Y-60721905D01*
X174590042Y-60721897D01*
X173098102Y-59229957D01*
X173098098Y-59229954D01*
X172954711Y-59134145D01*
X172954698Y-59134138D01*
X172795378Y-59068146D01*
X172795366Y-59068143D01*
X172626232Y-59034500D01*
X172626229Y-59034500D01*
X154316229Y-59034500D01*
X144226229Y-59034500D01*
X143566229Y-59034500D01*
X143393771Y-59034500D01*
X143393768Y-59034500D01*
X143224633Y-59068143D01*
X143224621Y-59068146D01*
X143065301Y-59134138D01*
X143065288Y-59134145D01*
X142921901Y-59229954D01*
X142921897Y-59229957D01*
X139681901Y-62469955D01*
X139403675Y-62748181D01*
X139342352Y-62781666D01*
X139315994Y-62784500D01*
X104134006Y-62784500D01*
X104066967Y-62764815D01*
X104046325Y-62748181D01*
X103118102Y-61819957D01*
X103118098Y-61819954D01*
X102974711Y-61724145D01*
X102974698Y-61724138D01*
X102815378Y-61658146D01*
X102815366Y-61658143D01*
X102646232Y-61624500D01*
X102646229Y-61624500D01*
X102473771Y-61624500D01*
X102473768Y-61624500D01*
X102304633Y-61658143D01*
X102304621Y-61658146D01*
X102145301Y-61724138D01*
X102145288Y-61724145D01*
X102001901Y-61819954D01*
X102001897Y-61819957D01*
X101879957Y-61941897D01*
X101879954Y-61941901D01*
X101784145Y-62085288D01*
X101784138Y-62085301D01*
X101718146Y-62244621D01*
X101718143Y-62244633D01*
X101684500Y-62413766D01*
X50500500Y-62413766D01*
X50500500Y-59419996D01*
X137614435Y-59419996D01*
X137614435Y-59420003D01*
X137634630Y-59599249D01*
X137634631Y-59599254D01*
X137694211Y-59769523D01*
X137790184Y-59922262D01*
X137917738Y-60049816D01*
X138070478Y-60145789D01*
X138240745Y-60205368D01*
X138240750Y-60205369D01*
X138419996Y-60225565D01*
X138420000Y-60225565D01*
X138420004Y-60225565D01*
X138599249Y-60205369D01*
X138599252Y-60205368D01*
X138599255Y-60205368D01*
X138769522Y-60145789D01*
X138922262Y-60049816D01*
X139049816Y-59922262D01*
X139145789Y-59769522D01*
X139205368Y-59599255D01*
X139225565Y-59420000D01*
X139205368Y-59240745D01*
X139145789Y-59070478D01*
X139049816Y-58917738D01*
X139049814Y-58917736D01*
X139049813Y-58917734D01*
X139047550Y-58914896D01*
X139046659Y-58912715D01*
X139046111Y-58911842D01*
X139046264Y-58911745D01*
X139021144Y-58850209D01*
X139020500Y-58837587D01*
X139020500Y-57842940D01*
X139040185Y-57775901D01*
X139056819Y-57755259D01*
X139109816Y-57702262D01*
X139205789Y-57549522D01*
X139265368Y-57379255D01*
X139285565Y-57200000D01*
X139265368Y-57020745D01*
X139205789Y-56850478D01*
X139109816Y-56697738D01*
X138982262Y-56570184D01*
X138829523Y-56474211D01*
X138659254Y-56414631D01*
X138659249Y-56414630D01*
X138480004Y-56394435D01*
X138479996Y-56394435D01*
X138300750Y-56414630D01*
X138300745Y-56414631D01*
X138130476Y-56474211D01*
X137977737Y-56570184D01*
X137850184Y-56697737D01*
X137754211Y-56850476D01*
X137694631Y-57020745D01*
X137694630Y-57020750D01*
X137674435Y-57199996D01*
X137674435Y-57200003D01*
X137694630Y-57379249D01*
X137694631Y-57379254D01*
X137754211Y-57549524D01*
X137800493Y-57623179D01*
X137819500Y-57689152D01*
X137819500Y-58837587D01*
X137799815Y-58904626D01*
X137792450Y-58914896D01*
X137790186Y-58917734D01*
X137694211Y-59070476D01*
X137634631Y-59240745D01*
X137634630Y-59240750D01*
X137614435Y-59419996D01*
X50500500Y-59419996D01*
X50500500Y-50063766D01*
X61234500Y-50063766D01*
X61234500Y-50236233D01*
X61268143Y-50405366D01*
X61268146Y-50405378D01*
X61334138Y-50564698D01*
X61334145Y-50564711D01*
X61429954Y-50708098D01*
X61429957Y-50708102D01*
X61551897Y-50830042D01*
X61551901Y-50830045D01*
X61695288Y-50925854D01*
X61695301Y-50925861D01*
X61854621Y-50991853D01*
X61854626Y-50991855D01*
X62023766Y-51025499D01*
X62023769Y-51025500D01*
X62023771Y-51025500D01*
X62196231Y-51025500D01*
X62196232Y-51025499D01*
X62365374Y-50991855D01*
X62524705Y-50925858D01*
X62668099Y-50830045D01*
X63206325Y-50291819D01*
X63267648Y-50258334D01*
X63294006Y-50255500D01*
X69876231Y-50255500D01*
X69876232Y-50255499D01*
X70045374Y-50221855D01*
X70204705Y-50155858D01*
X70348099Y-50060045D01*
X70470045Y-49938099D01*
X70565858Y-49794705D01*
X70631855Y-49635374D01*
X70665500Y-49466229D01*
X70665500Y-49293771D01*
X70665500Y-49293768D01*
X70665499Y-49293766D01*
X70631855Y-49124626D01*
X70580157Y-48999815D01*
X70565861Y-48965301D01*
X70565854Y-48965288D01*
X70470045Y-48821901D01*
X70470042Y-48821897D01*
X70348102Y-48699957D01*
X70348098Y-48699954D01*
X70204711Y-48604145D01*
X70204698Y-48604138D01*
X70045378Y-48538146D01*
X70045366Y-48538143D01*
X69876232Y-48504500D01*
X69876229Y-48504500D01*
X62966229Y-48504500D01*
X62793771Y-48504500D01*
X62793768Y-48504500D01*
X62624633Y-48538143D01*
X62624621Y-48538146D01*
X62465301Y-48604138D01*
X62465288Y-48604145D01*
X62321901Y-48699954D01*
X62321897Y-48699957D01*
X61429957Y-49591897D01*
X61429954Y-49591901D01*
X61334145Y-49735288D01*
X61334138Y-49735301D01*
X61268146Y-49894621D01*
X61268143Y-49894633D01*
X61234500Y-50063766D01*
X50500500Y-50063766D01*
X50500500Y-48369996D01*
X73104435Y-48369996D01*
X73104435Y-48370003D01*
X73124630Y-48549249D01*
X73124631Y-48549254D01*
X73184211Y-48719523D01*
X73248540Y-48821901D01*
X73280184Y-48872262D01*
X73407738Y-48999816D01*
X73560478Y-49095789D01*
X73730745Y-49155368D01*
X73737974Y-49156182D01*
X73802388Y-49183246D01*
X73811776Y-49191722D01*
X73883181Y-49263127D01*
X73916666Y-49324450D01*
X73919500Y-49350808D01*
X73919500Y-50554931D01*
X73900494Y-50620903D01*
X73844211Y-50710477D01*
X73844209Y-50710481D01*
X73784633Y-50880737D01*
X73784630Y-50880750D01*
X73764435Y-51059996D01*
X73764435Y-51060003D01*
X73784630Y-51239249D01*
X73784631Y-51239254D01*
X73844211Y-51409523D01*
X73882096Y-51469816D01*
X73940184Y-51562262D01*
X74067738Y-51689816D01*
X74220478Y-51785789D01*
X74390745Y-51845368D01*
X74390750Y-51845369D01*
X74569996Y-51865565D01*
X74570000Y-51865565D01*
X74570004Y-51865565D01*
X74749249Y-51845369D01*
X74749252Y-51845368D01*
X74749255Y-51845368D01*
X74919522Y-51785789D01*
X75072262Y-51689816D01*
X75199816Y-51562262D01*
X75295789Y-51409522D01*
X75355368Y-51239255D01*
X75355369Y-51239249D01*
X75375565Y-51060003D01*
X75375565Y-51059996D01*
X75355369Y-50880750D01*
X75355366Y-50880737D01*
X75295790Y-50710481D01*
X75295789Y-50710478D01*
X75264540Y-50660745D01*
X75239506Y-50620903D01*
X75220500Y-50554931D01*
X75220500Y-48965928D01*
X75195502Y-48840261D01*
X75195501Y-48840260D01*
X75195501Y-48840256D01*
X75146465Y-48721873D01*
X75101255Y-48654211D01*
X75075277Y-48615331D01*
X74731722Y-48271776D01*
X74730750Y-48269996D01*
X109034435Y-48269996D01*
X109034435Y-48270003D01*
X109054630Y-48449249D01*
X109054631Y-48449254D01*
X109082542Y-48529017D01*
X109089500Y-48569972D01*
X109089500Y-50540028D01*
X109082542Y-50580982D01*
X109054631Y-50660747D01*
X109034435Y-50839996D01*
X109034435Y-50840003D01*
X109054630Y-51019249D01*
X109054631Y-51019254D01*
X109114211Y-51189523D01*
X109145460Y-51239255D01*
X109210184Y-51342262D01*
X109337738Y-51469816D01*
X109428080Y-51526582D01*
X109484864Y-51562262D01*
X109490478Y-51565789D01*
X109660745Y-51625368D01*
X109660750Y-51625369D01*
X109839996Y-51645565D01*
X109840000Y-51645565D01*
X109840004Y-51645565D01*
X110019249Y-51625369D01*
X110019252Y-51625368D01*
X110019255Y-51625368D01*
X110189522Y-51565789D01*
X110342262Y-51469816D01*
X110469816Y-51342262D01*
X110565789Y-51189522D01*
X110625368Y-51019255D01*
X110628455Y-50991856D01*
X110645565Y-50840003D01*
X110645565Y-50839996D01*
X110630972Y-50710481D01*
X110625368Y-50660745D01*
X110597458Y-50580982D01*
X110590500Y-50540028D01*
X110590500Y-48569972D01*
X110597458Y-48529017D01*
X110625368Y-48449254D01*
X110625369Y-48449249D01*
X110645565Y-48270003D01*
X110645565Y-48269996D01*
X110625369Y-48090750D01*
X110625368Y-48090745D01*
X110565789Y-47920478D01*
X110469816Y-47767738D01*
X110342262Y-47640184D01*
X110253852Y-47584632D01*
X110189523Y-47544211D01*
X110019254Y-47484631D01*
X110019249Y-47484630D01*
X109840004Y-47464435D01*
X109839996Y-47464435D01*
X109660750Y-47484630D01*
X109660745Y-47484631D01*
X109490476Y-47544211D01*
X109337737Y-47640184D01*
X109210184Y-47767737D01*
X109114211Y-47920476D01*
X109054631Y-48090745D01*
X109054630Y-48090750D01*
X109034435Y-48269996D01*
X74730750Y-48269996D01*
X74698237Y-48210453D01*
X74696182Y-48197973D01*
X74695368Y-48190745D01*
X74635789Y-48020478D01*
X74539816Y-47867738D01*
X74412262Y-47740184D01*
X74259523Y-47644211D01*
X74089254Y-47584631D01*
X74089249Y-47584630D01*
X73910004Y-47564435D01*
X73909996Y-47564435D01*
X73730750Y-47584630D01*
X73730745Y-47584631D01*
X73560476Y-47644211D01*
X73407737Y-47740184D01*
X73280184Y-47867737D01*
X73184211Y-48020476D01*
X73124631Y-48190745D01*
X73124630Y-48190750D01*
X73104435Y-48369996D01*
X50500500Y-48369996D01*
X50500500Y-37899996D01*
X65824435Y-37899996D01*
X65824435Y-37900003D01*
X65844630Y-38079249D01*
X65844631Y-38079254D01*
X65904211Y-38249523D01*
X65974497Y-38361381D01*
X66000184Y-38402262D01*
X66127738Y-38529816D01*
X66280478Y-38625789D01*
X66307742Y-38635329D01*
X66450745Y-38685368D01*
X66450750Y-38685369D01*
X66629996Y-38705565D01*
X66630000Y-38705565D01*
X66630004Y-38705565D01*
X66809249Y-38685369D01*
X66809252Y-38685368D01*
X66809255Y-38685368D01*
X66979522Y-38625789D01*
X67132262Y-38529816D01*
X67259816Y-38402262D01*
X67355789Y-38249522D01*
X67415368Y-38079255D01*
X67415369Y-38079249D01*
X67435565Y-37900003D01*
X67435565Y-37899996D01*
X67415369Y-37720750D01*
X67415366Y-37720737D01*
X67355790Y-37550481D01*
X67355789Y-37550478D01*
X67313428Y-37483060D01*
X67299506Y-37460903D01*
X67280500Y-37394931D01*
X67280500Y-37259996D01*
X73594435Y-37259996D01*
X73594435Y-37260003D01*
X73614630Y-37439249D01*
X73614631Y-37439254D01*
X73674211Y-37609523D01*
X73770184Y-37762262D01*
X73897738Y-37889816D01*
X73913946Y-37900000D01*
X74050483Y-37985792D01*
X74056753Y-37988812D01*
X74055870Y-37990643D01*
X74091940Y-38013308D01*
X74443181Y-38364548D01*
X74476666Y-38425871D01*
X74479500Y-38452229D01*
X74479500Y-38903918D01*
X74479500Y-38903920D01*
X74479499Y-38903920D01*
X74508340Y-39048907D01*
X74508343Y-39048917D01*
X74564914Y-39185492D01*
X74583092Y-39212697D01*
X74583093Y-39212700D01*
X74647046Y-39308414D01*
X74647047Y-39308415D01*
X74647048Y-39308416D01*
X74977048Y-39638415D01*
X74977049Y-39638416D01*
X75054055Y-39715422D01*
X75081585Y-39742952D01*
X75204498Y-39825080D01*
X75204511Y-39825087D01*
X75341082Y-39881656D01*
X75341087Y-39881658D01*
X75341091Y-39881658D01*
X75341092Y-39881659D01*
X75486079Y-39910500D01*
X75486082Y-39910500D01*
X76487770Y-39910500D01*
X76554809Y-39930185D01*
X76575451Y-39946819D01*
X77535903Y-40907272D01*
X77535925Y-40907292D01*
X77539110Y-40910477D01*
X77539115Y-40910480D01*
X77600329Y-40948943D01*
X77603233Y-40950825D01*
X77654506Y-40985084D01*
X77654639Y-40985139D01*
X77673165Y-40994710D01*
X77677635Y-40997518D01*
X77682310Y-41000456D01*
X77738962Y-41020279D01*
X77738968Y-41020281D01*
X77745465Y-41022761D01*
X77791088Y-41041659D01*
X77803349Y-41044097D01*
X77820102Y-41048671D01*
X77841941Y-41056313D01*
X77873397Y-41059857D01*
X77937809Y-41086922D01*
X77977366Y-41144516D01*
X77979505Y-41214352D01*
X77943548Y-41274260D01*
X77883706Y-41304694D01*
X77813175Y-41318723D01*
X77813169Y-41318725D01*
X77674770Y-41376051D01*
X77674761Y-41376056D01*
X77550209Y-41459280D01*
X77550205Y-41459283D01*
X77444283Y-41565205D01*
X77444280Y-41565209D01*
X77361056Y-41689761D01*
X77361051Y-41689770D01*
X77303725Y-41828169D01*
X77303723Y-41828177D01*
X77274500Y-41975092D01*
X77274500Y-42324907D01*
X77303723Y-42471822D01*
X77303725Y-42471830D01*
X77361051Y-42610229D01*
X77361056Y-42610238D01*
X77444280Y-42734790D01*
X77444283Y-42734794D01*
X77550205Y-42840716D01*
X77550209Y-42840719D01*
X77674761Y-42923943D01*
X77674767Y-42923946D01*
X77674768Y-42923947D01*
X77813170Y-42981275D01*
X77960092Y-43010499D01*
X77960096Y-43010500D01*
X77960097Y-43010500D01*
X78109904Y-43010500D01*
X78109905Y-43010499D01*
X78256830Y-42981275D01*
X78395232Y-42923947D01*
X78519791Y-42840719D01*
X78625719Y-42734791D01*
X78708947Y-42610232D01*
X78766275Y-42471830D01*
X78795500Y-42324903D01*
X78795500Y-42250000D01*
X78795500Y-42184108D01*
X78795500Y-41984108D01*
X78795500Y-41975097D01*
X78766275Y-41828170D01*
X78708947Y-41689768D01*
X78708946Y-41689767D01*
X78708943Y-41689761D01*
X78625719Y-41565209D01*
X78625716Y-41565205D01*
X78519794Y-41459283D01*
X78519790Y-41459280D01*
X78395238Y-41376056D01*
X78395229Y-41376051D01*
X78256830Y-41318725D01*
X78256822Y-41318723D01*
X78168215Y-41301098D01*
X78106304Y-41268713D01*
X78071730Y-41207998D01*
X78075469Y-41138228D01*
X78116335Y-41081556D01*
X78171549Y-41059099D01*
X78171267Y-41057864D01*
X78178052Y-41056314D01*
X78178052Y-41056313D01*
X78178059Y-41056313D01*
X78199898Y-41048670D01*
X78216649Y-41044097D01*
X78228913Y-41041659D01*
X78236360Y-41038574D01*
X78274537Y-41022761D01*
X78281021Y-41020284D01*
X78337690Y-41000456D01*
X78346833Y-40994710D01*
X78365368Y-40985136D01*
X78365495Y-40985084D01*
X78416823Y-40950787D01*
X78419627Y-40948970D01*
X78480890Y-40910477D01*
X78481335Y-40910031D01*
X78481349Y-40910021D01*
X78481348Y-40910020D01*
X78600020Y-40791348D01*
X78600021Y-40791349D01*
X78600031Y-40791335D01*
X78600477Y-40790890D01*
X78638970Y-40729627D01*
X78640787Y-40726823D01*
X78675084Y-40675495D01*
X78675136Y-40675368D01*
X78684710Y-40656833D01*
X78690456Y-40647690D01*
X78710284Y-40591021D01*
X78712761Y-40584537D01*
X78731656Y-40538920D01*
X78731655Y-40538920D01*
X78731659Y-40538913D01*
X78734097Y-40526649D01*
X78738670Y-40509898D01*
X78746313Y-40488059D01*
X78751661Y-40440592D01*
X78753257Y-40430325D01*
X78760500Y-40393918D01*
X78760500Y-40369108D01*
X78761280Y-40355223D01*
X78765249Y-40320000D01*
X78765249Y-40319997D01*
X78761280Y-40284774D01*
X78760500Y-40270890D01*
X78760500Y-40246083D01*
X78753258Y-40209679D01*
X78751660Y-40199404D01*
X78746313Y-40151941D01*
X78738671Y-40130102D01*
X78737277Y-40124997D01*
X84354751Y-40124997D01*
X84354751Y-40125002D01*
X84373685Y-40293056D01*
X84431768Y-40459045D01*
X84435329Y-40528824D01*
X84431768Y-40540955D01*
X84373685Y-40706943D01*
X84354751Y-40874997D01*
X84354751Y-40875002D01*
X84373685Y-41043056D01*
X84429545Y-41202694D01*
X84429547Y-41202697D01*
X84519518Y-41345884D01*
X84519523Y-41345890D01*
X84639109Y-41465476D01*
X84639115Y-41465481D01*
X84782302Y-41555452D01*
X84782305Y-41555454D01*
X84782309Y-41555455D01*
X84782310Y-41555456D01*
X84810183Y-41565209D01*
X84941943Y-41611314D01*
X85109997Y-41630249D01*
X85110000Y-41630249D01*
X85110003Y-41630249D01*
X85278056Y-41611314D01*
X85278059Y-41611313D01*
X85437690Y-41555456D01*
X85437692Y-41555454D01*
X85437694Y-41555454D01*
X85437697Y-41555452D01*
X85580884Y-41465481D01*
X85580884Y-41465480D01*
X85580890Y-41465477D01*
X85684548Y-41361819D01*
X85745871Y-41328335D01*
X85772229Y-41325501D01*
X92346704Y-41325501D01*
X92413743Y-41345186D01*
X92434384Y-41361819D01*
X94858084Y-43785520D01*
X94858086Y-43785521D01*
X94858090Y-43785524D01*
X94995009Y-43864573D01*
X94995016Y-43864577D01*
X95147743Y-43905501D01*
X95147745Y-43905501D01*
X95313454Y-43905501D01*
X95313470Y-43905500D01*
X107636531Y-43905500D01*
X107636547Y-43905501D01*
X107644143Y-43905501D01*
X107802254Y-43905501D01*
X107802257Y-43905501D01*
X107954985Y-43864577D01*
X108005104Y-43835639D01*
X108091916Y-43785520D01*
X108203720Y-43673716D01*
X108203720Y-43673714D01*
X108213928Y-43663507D01*
X108213930Y-43663504D01*
X111583713Y-40293721D01*
X111583716Y-40293720D01*
X111695520Y-40181916D01*
X111745639Y-40095104D01*
X111774577Y-40044985D01*
X111815501Y-39892257D01*
X111815501Y-39734143D01*
X111815501Y-39726548D01*
X111815500Y-39726530D01*
X111815500Y-37037743D01*
X111814855Y-37035339D01*
X111814847Y-37035308D01*
X111793216Y-36954577D01*
X111774577Y-36885016D01*
X111749669Y-36841873D01*
X111695524Y-36748090D01*
X111695521Y-36748086D01*
X111695520Y-36748084D01*
X111583716Y-36636280D01*
X111583715Y-36636279D01*
X111579385Y-36631949D01*
X111579374Y-36631939D01*
X110530790Y-35583355D01*
X110530788Y-35583352D01*
X110411917Y-35464481D01*
X110411916Y-35464480D01*
X110325104Y-35414360D01*
X110325104Y-35414359D01*
X110325100Y-35414358D01*
X110274985Y-35385423D01*
X110122257Y-35344499D01*
X109964143Y-35344499D01*
X109956547Y-35344499D01*
X109956531Y-35344500D01*
X108653469Y-35344500D01*
X108653453Y-35344499D01*
X108645857Y-35344499D01*
X108487743Y-35344499D01*
X108385248Y-35371963D01*
X108335010Y-35385424D01*
X108335009Y-35385425D01*
X108284896Y-35414359D01*
X108284895Y-35414360D01*
X108241489Y-35439420D01*
X108198085Y-35464479D01*
X108198082Y-35464481D01*
X108086278Y-35576286D01*
X107274950Y-36387613D01*
X107213627Y-36421098D01*
X107146315Y-36416974D01*
X107134103Y-36412701D01*
X106966050Y-36393766D01*
X106966044Y-36393766D01*
X106797990Y-36412700D01*
X106638352Y-36468560D01*
X106638349Y-36468562D01*
X106495162Y-36558533D01*
X106495156Y-36558538D01*
X106375570Y-36678124D01*
X106375565Y-36678130D01*
X106285594Y-36821317D01*
X106285592Y-36821320D01*
X106229732Y-36980958D01*
X106210798Y-37149012D01*
X106210798Y-37149017D01*
X106229732Y-37317071D01*
X106287815Y-37483060D01*
X106291376Y-37552839D01*
X106287815Y-37564970D01*
X106229732Y-37730958D01*
X106210798Y-37899012D01*
X106210798Y-37899017D01*
X106229732Y-38067071D01*
X106285592Y-38226709D01*
X106285594Y-38226712D01*
X106375565Y-38369899D01*
X106375570Y-38369905D01*
X106495156Y-38489491D01*
X106495162Y-38489496D01*
X106638349Y-38579467D01*
X106638352Y-38579469D01*
X106638356Y-38579470D01*
X106638357Y-38579471D01*
X106710960Y-38604875D01*
X106797990Y-38635329D01*
X106966044Y-38654264D01*
X106966047Y-38654264D01*
X106966050Y-38654264D01*
X107134103Y-38635329D01*
X107161367Y-38625789D01*
X107293737Y-38579471D01*
X107293739Y-38579469D01*
X107293741Y-38579469D01*
X107293744Y-38579467D01*
X107436931Y-38489496D01*
X107436931Y-38489495D01*
X107436937Y-38489492D01*
X107556524Y-38369905D01*
X107561880Y-38361379D01*
X107614209Y-38315085D01*
X107623462Y-38311706D01*
X107623461Y-38311703D01*
X107630962Y-38308594D01*
X107630969Y-38308593D01*
X107681088Y-38279655D01*
X107767900Y-38229536D01*
X107879704Y-38117732D01*
X107879704Y-38117730D01*
X107889912Y-38107523D01*
X107889913Y-38107520D01*
X108965617Y-37031819D01*
X109026940Y-36998334D01*
X109053298Y-36995500D01*
X109556703Y-36995500D01*
X109623742Y-37015185D01*
X109644384Y-37031819D01*
X110128181Y-37515616D01*
X110161666Y-37576939D01*
X110164500Y-37603297D01*
X110164500Y-39326703D01*
X110144815Y-39393742D01*
X110128181Y-39414384D01*
X107324384Y-42218181D01*
X107263061Y-42251666D01*
X107236703Y-42254500D01*
X95713297Y-42254500D01*
X95646258Y-42234815D01*
X95625616Y-42218181D01*
X93320789Y-39913354D01*
X93320787Y-39913351D01*
X93201916Y-39794480D01*
X93201915Y-39794479D01*
X93089408Y-39729523D01*
X93089408Y-39729522D01*
X93089403Y-39729521D01*
X93080882Y-39724601D01*
X93064985Y-39715422D01*
X93026802Y-39705191D01*
X92912256Y-39674498D01*
X92754142Y-39674498D01*
X92746546Y-39674498D01*
X92746530Y-39674499D01*
X85772229Y-39674499D01*
X85705190Y-39654814D01*
X85684548Y-39638181D01*
X85580890Y-39534523D01*
X85580887Y-39534521D01*
X85580886Y-39534520D01*
X85580884Y-39534518D01*
X85437697Y-39444547D01*
X85437694Y-39444545D01*
X85278056Y-39388685D01*
X85110003Y-39369751D01*
X85109997Y-39369751D01*
X84941943Y-39388685D01*
X84782305Y-39444545D01*
X84782302Y-39444547D01*
X84639115Y-39534518D01*
X84639109Y-39534523D01*
X84519523Y-39654109D01*
X84519518Y-39654115D01*
X84429547Y-39797302D01*
X84429545Y-39797305D01*
X84373685Y-39956943D01*
X84354751Y-40124997D01*
X78737277Y-40124997D01*
X78734096Y-40113343D01*
X78731659Y-40101088D01*
X78712761Y-40055465D01*
X78710281Y-40048968D01*
X78708887Y-40044985D01*
X78690456Y-39992310D01*
X78684710Y-39983165D01*
X78675137Y-39964635D01*
X78675084Y-39964506D01*
X78640828Y-39913238D01*
X78638943Y-39910329D01*
X78627586Y-39892254D01*
X78600477Y-39849110D01*
X78597292Y-39845925D01*
X78597272Y-39845903D01*
X77923549Y-39172181D01*
X77890064Y-39110858D01*
X77895048Y-39041167D01*
X77936919Y-38985233D01*
X78002384Y-38960816D01*
X78011230Y-38960500D01*
X79576558Y-38960500D01*
X79643597Y-38980185D01*
X79689352Y-39032989D01*
X79693599Y-39043545D01*
X79719543Y-39117688D01*
X79719548Y-39117699D01*
X79809518Y-39260884D01*
X79809523Y-39260890D01*
X79929109Y-39380476D01*
X79929115Y-39380481D01*
X80072302Y-39470452D01*
X80072305Y-39470454D01*
X80072309Y-39470455D01*
X80072310Y-39470456D01*
X80144913Y-39495860D01*
X80231943Y-39526314D01*
X80399997Y-39545249D01*
X80400000Y-39545249D01*
X80400003Y-39545249D01*
X80568056Y-39526314D01*
X80568059Y-39526313D01*
X80727690Y-39470456D01*
X80727692Y-39470454D01*
X80727694Y-39470454D01*
X80727697Y-39470452D01*
X80870884Y-39380481D01*
X80870885Y-39380480D01*
X80870890Y-39380477D01*
X80990477Y-39260890D01*
X81046217Y-39172181D01*
X81080452Y-39117697D01*
X81080454Y-39117694D01*
X81080454Y-39117692D01*
X81080456Y-39117690D01*
X81136313Y-38958059D01*
X81136313Y-38958058D01*
X81136314Y-38958056D01*
X81155249Y-38790002D01*
X81155249Y-38789997D01*
X81136314Y-38621943D01*
X81080454Y-38462305D01*
X81080452Y-38462302D01*
X80990481Y-38319115D01*
X80990476Y-38319109D01*
X80870890Y-38199523D01*
X80870884Y-38199518D01*
X80727699Y-38109548D01*
X80727688Y-38109543D01*
X80618728Y-38071416D01*
X80572002Y-38042056D01*
X80334674Y-37804727D01*
X80334673Y-37804726D01*
X80334669Y-37804723D01*
X80228127Y-37733535D01*
X80197261Y-37720750D01*
X80109744Y-37684499D01*
X80109738Y-37684497D01*
X79984071Y-37659500D01*
X79984069Y-37659500D01*
X78840246Y-37659500D01*
X78773207Y-37639815D01*
X78727452Y-37587011D01*
X78717508Y-37517853D01*
X78728526Y-37481699D01*
X78730453Y-37477697D01*
X78730454Y-37477691D01*
X78730456Y-37477690D01*
X78786313Y-37318059D01*
X78786313Y-37318058D01*
X78786314Y-37318056D01*
X78805249Y-37150002D01*
X78805249Y-37149997D01*
X78786314Y-36981943D01*
X78748380Y-36873534D01*
X78730456Y-36822310D01*
X78730455Y-36822309D01*
X78730454Y-36822305D01*
X78730452Y-36822302D01*
X78640481Y-36679115D01*
X78640476Y-36679109D01*
X78520890Y-36559523D01*
X78520884Y-36559518D01*
X78377697Y-36469547D01*
X78377694Y-36469545D01*
X78218056Y-36413685D01*
X78050003Y-36394751D01*
X78049997Y-36394751D01*
X77881943Y-36413685D01*
X77722305Y-36469545D01*
X77722302Y-36469547D01*
X77579115Y-36559518D01*
X77579109Y-36559523D01*
X77459523Y-36679109D01*
X77439727Y-36710614D01*
X77420337Y-36741473D01*
X77368005Y-36787763D01*
X77315345Y-36799500D01*
X75505929Y-36799500D01*
X75380261Y-36824497D01*
X75380255Y-36824499D01*
X75338312Y-36841873D01*
X75338311Y-36841873D01*
X75261881Y-36873530D01*
X75261864Y-36873539D01*
X75255706Y-36877654D01*
X75189027Y-36898526D01*
X75121649Y-36880036D01*
X75081830Y-36840518D01*
X75071765Y-36824499D01*
X75029816Y-36757738D01*
X74902262Y-36630184D01*
X74749523Y-36534211D01*
X74579254Y-36474631D01*
X74579249Y-36474630D01*
X74400004Y-36454435D01*
X74399996Y-36454435D01*
X74220750Y-36474630D01*
X74220745Y-36474631D01*
X74050476Y-36534211D01*
X73897737Y-36630184D01*
X73770184Y-36757737D01*
X73674211Y-36910476D01*
X73614631Y-37080745D01*
X73614630Y-37080750D01*
X73594435Y-37259996D01*
X67280500Y-37259996D01*
X67280500Y-36072940D01*
X67300185Y-36005901D01*
X67316819Y-35985259D01*
X67429816Y-35872262D01*
X67525789Y-35719522D01*
X67585368Y-35549255D01*
X67600567Y-35414358D01*
X67605565Y-35370003D01*
X67605565Y-35369996D01*
X67585369Y-35190750D01*
X67585368Y-35190745D01*
X67530004Y-35032525D01*
X67525789Y-35020478D01*
X67429816Y-34867738D01*
X67302262Y-34740184D01*
X67244744Y-34704043D01*
X67149523Y-34644211D01*
X67011622Y-34595957D01*
X77624500Y-34595957D01*
X77624500Y-34704043D01*
X77652475Y-34808447D01*
X77652476Y-34808448D01*
X77652478Y-34808453D01*
X77706513Y-34902046D01*
X77706517Y-34902051D01*
X77706518Y-34902053D01*
X77782947Y-34978482D01*
X77782949Y-34978483D01*
X77782953Y-34978486D01*
X77855683Y-35020476D01*
X77876553Y-35032525D01*
X77980957Y-35060500D01*
X77980959Y-35060500D01*
X78089040Y-35060500D01*
X78089043Y-35060500D01*
X78193447Y-35032525D01*
X78287053Y-34978482D01*
X78363482Y-34902053D01*
X78417525Y-34808447D01*
X78445500Y-34704043D01*
X78445500Y-34595957D01*
X78417525Y-34491553D01*
X78417521Y-34491546D01*
X78363486Y-34397953D01*
X78363480Y-34397945D01*
X78287054Y-34321519D01*
X78287046Y-34321513D01*
X78193453Y-34267478D01*
X78193450Y-34267476D01*
X78193447Y-34267475D01*
X78089043Y-34239500D01*
X77980957Y-34239500D01*
X77876553Y-34267475D01*
X77876551Y-34267475D01*
X77876551Y-34267476D01*
X77876546Y-34267478D01*
X77782953Y-34321513D01*
X77782945Y-34321519D01*
X77706519Y-34397945D01*
X77706513Y-34397953D01*
X77652478Y-34491546D01*
X77652475Y-34491551D01*
X77652475Y-34491553D01*
X77624500Y-34595957D01*
X67011622Y-34595957D01*
X66979254Y-34584631D01*
X66979249Y-34584630D01*
X66800004Y-34564435D01*
X66799996Y-34564435D01*
X66620750Y-34584630D01*
X66620745Y-34584631D01*
X66450476Y-34644211D01*
X66297737Y-34740184D01*
X66170184Y-34867737D01*
X66074211Y-35020476D01*
X66014631Y-35190745D01*
X66014630Y-35190750D01*
X65994435Y-35369996D01*
X65994435Y-35370007D01*
X65994495Y-35370540D01*
X65994435Y-35371963D01*
X65994435Y-35376964D01*
X65994224Y-35376964D01*
X65992891Y-35408606D01*
X65979500Y-35475926D01*
X65979500Y-37394931D01*
X65960494Y-37460903D01*
X65904211Y-37550477D01*
X65904209Y-37550481D01*
X65844633Y-37720737D01*
X65844630Y-37720750D01*
X65824435Y-37899996D01*
X50500500Y-37899996D01*
X50500500Y-25419996D01*
X58974435Y-25419996D01*
X58974435Y-25420003D01*
X58994630Y-25599249D01*
X58994631Y-25599254D01*
X59054211Y-25769523D01*
X59123628Y-25879999D01*
X59150184Y-25922262D01*
X59277738Y-26049816D01*
X59368080Y-26106582D01*
X59423903Y-26141658D01*
X59430478Y-26145789D01*
X59520983Y-26177458D01*
X59600745Y-26205368D01*
X59600750Y-26205369D01*
X59779996Y-26225565D01*
X59780000Y-26225565D01*
X59780004Y-26225565D01*
X59959249Y-26205369D01*
X59959252Y-26205368D01*
X59959255Y-26205368D01*
X60039017Y-26177457D01*
X60079972Y-26170500D01*
X84553920Y-26170500D01*
X84651462Y-26151096D01*
X84698913Y-26141658D01*
X84835495Y-26085084D01*
X84888277Y-26049816D01*
X84958416Y-26002952D01*
X85511371Y-25449996D01*
X117884435Y-25449996D01*
X117884435Y-25450003D01*
X117904630Y-25629249D01*
X117904631Y-25629254D01*
X117964211Y-25799523D01*
X118041334Y-25922262D01*
X118060184Y-25952262D01*
X118187738Y-26079816D01*
X118244390Y-26115413D01*
X118332060Y-26170500D01*
X118340478Y-26175789D01*
X118425010Y-26205368D01*
X118510745Y-26235368D01*
X118510750Y-26235369D01*
X118689996Y-26255565D01*
X118690000Y-26255565D01*
X118690004Y-26255565D01*
X118869249Y-26235369D01*
X118869252Y-26235368D01*
X118869255Y-26235368D01*
X119039522Y-26175789D01*
X119192262Y-26079816D01*
X119319816Y-25952262D01*
X119415789Y-25799522D01*
X119475368Y-25629255D01*
X119476182Y-25622025D01*
X119503245Y-25557611D01*
X119511712Y-25548232D01*
X119923127Y-25136819D01*
X119984450Y-25103334D01*
X120010808Y-25100500D01*
X139449192Y-25100500D01*
X139516231Y-25120185D01*
X139536873Y-25136819D01*
X139813181Y-25413127D01*
X139846666Y-25474450D01*
X139849500Y-25500808D01*
X139849500Y-26530001D01*
X139849501Y-26530019D01*
X139860000Y-26632796D01*
X139860001Y-26632799D01*
X139899303Y-26751402D01*
X139915186Y-26799334D01*
X140007288Y-26948656D01*
X140131344Y-27072712D01*
X140280666Y-27164814D01*
X140289264Y-27167663D01*
X140346707Y-27207433D01*
X140373531Y-27271948D01*
X140361217Y-27340724D01*
X140332234Y-27377483D01*
X140332427Y-27377676D01*
X140330798Y-27379304D01*
X140329975Y-27380349D01*
X140328599Y-27381503D01*
X140161505Y-27548597D01*
X140025965Y-27742169D01*
X140025964Y-27742171D01*
X139926098Y-27956335D01*
X139926094Y-27956344D01*
X139864938Y-28184586D01*
X139864936Y-28184596D01*
X139844341Y-28419999D01*
X139844341Y-28420000D01*
X139864936Y-28655403D01*
X139864938Y-28655413D01*
X139926094Y-28883655D01*
X139926096Y-28883659D01*
X139926097Y-28883663D01*
X140025965Y-29097830D01*
X140025967Y-29097834D01*
X140161501Y-29291395D01*
X140161506Y-29291402D01*
X140328597Y-29458493D01*
X140328603Y-29458498D01*
X140514158Y-29588425D01*
X140557783Y-29643002D01*
X140564977Y-29712500D01*
X140533454Y-29774855D01*
X140514158Y-29791575D01*
X140328597Y-29921505D01*
X140161505Y-30088597D01*
X140025965Y-30282169D01*
X140025964Y-30282171D01*
X139926098Y-30496335D01*
X139926094Y-30496344D01*
X139864938Y-30724586D01*
X139864936Y-30724596D01*
X139844341Y-30959999D01*
X139844341Y-30960000D01*
X139864936Y-31195403D01*
X139864938Y-31195413D01*
X139926094Y-31423655D01*
X139926096Y-31423659D01*
X139926097Y-31423663D01*
X139930000Y-31432032D01*
X140025965Y-31637830D01*
X140025967Y-31637834D01*
X140134281Y-31792521D01*
X140161505Y-31831401D01*
X140328599Y-31998495D01*
X140425384Y-32066265D01*
X140522165Y-32134032D01*
X140522167Y-32134033D01*
X140522170Y-32134035D01*
X140736337Y-32233903D01*
X140964592Y-32295063D01*
X141152918Y-32311539D01*
X141199999Y-32315659D01*
X141200000Y-32315659D01*
X141200001Y-32315659D01*
X141239234Y-32312226D01*
X141435408Y-32295063D01*
X141663663Y-32233903D01*
X141877830Y-32134035D01*
X142071401Y-31998495D01*
X142238495Y-31831401D01*
X142368425Y-31645842D01*
X142423002Y-31602217D01*
X142492500Y-31595023D01*
X142554855Y-31626546D01*
X142571575Y-31645842D01*
X142701500Y-31831395D01*
X142701505Y-31831401D01*
X142868599Y-31998495D01*
X142965384Y-32066265D01*
X143062165Y-32134032D01*
X143062167Y-32134033D01*
X143062170Y-32134035D01*
X143276337Y-32233903D01*
X143504592Y-32295063D01*
X143692918Y-32311539D01*
X143739999Y-32315659D01*
X143740000Y-32315659D01*
X143740001Y-32315659D01*
X143779234Y-32312226D01*
X143975408Y-32295063D01*
X144203663Y-32233903D01*
X144417830Y-32134035D01*
X144611401Y-31998495D01*
X144778495Y-31831401D01*
X144914035Y-31637830D01*
X145013903Y-31423663D01*
X145075063Y-31195408D01*
X145095659Y-30960000D01*
X145075063Y-30724592D01*
X145013903Y-30496337D01*
X144914035Y-30282171D01*
X144908425Y-30274158D01*
X144778494Y-30088597D01*
X144611402Y-29921506D01*
X144611395Y-29921501D01*
X144417834Y-29785967D01*
X144417830Y-29785965D01*
X144417828Y-29785964D01*
X144203663Y-29686097D01*
X144203659Y-29686096D01*
X144203655Y-29686094D01*
X143975413Y-29624938D01*
X143975403Y-29624936D01*
X143740001Y-29604341D01*
X143739999Y-29604341D01*
X143504596Y-29624936D01*
X143504586Y-29624938D01*
X143276344Y-29686094D01*
X143276335Y-29686098D01*
X143062171Y-29785964D01*
X143062169Y-29785965D01*
X142868597Y-29921505D01*
X142701505Y-30088597D01*
X142571575Y-30274158D01*
X142516998Y-30317783D01*
X142447500Y-30324977D01*
X142385145Y-30293454D01*
X142368425Y-30274158D01*
X142238494Y-30088597D01*
X142071402Y-29921506D01*
X142071396Y-29921501D01*
X141885842Y-29791575D01*
X141842217Y-29736998D01*
X141835023Y-29667500D01*
X141866546Y-29605145D01*
X141885842Y-29588425D01*
X141908026Y-29572891D01*
X142071401Y-29458495D01*
X142238495Y-29291401D01*
X142374035Y-29097830D01*
X142473903Y-28883663D01*
X142535063Y-28655408D01*
X142555659Y-28420000D01*
X142535063Y-28184592D01*
X142473903Y-27956337D01*
X142374035Y-27742171D01*
X142238495Y-27548599D01*
X142238494Y-27548597D01*
X142071398Y-27381501D01*
X142070030Y-27380354D01*
X142069592Y-27379696D01*
X142067573Y-27377677D01*
X142067978Y-27377271D01*
X142031330Y-27322182D01*
X142030224Y-27252321D01*
X142067063Y-27192952D01*
X142110737Y-27167662D01*
X142119334Y-27164814D01*
X142268656Y-27072712D01*
X142392712Y-26948656D01*
X142484814Y-26799334D01*
X142487662Y-26790738D01*
X142527429Y-26733294D01*
X142591944Y-26706468D01*
X142660720Y-26718779D01*
X142697483Y-26747766D01*
X142697677Y-26747573D01*
X142699313Y-26749209D01*
X142700354Y-26750030D01*
X142701501Y-26751397D01*
X142701505Y-26751401D01*
X142868599Y-26918495D01*
X142911675Y-26948657D01*
X143062165Y-27054032D01*
X143062167Y-27054033D01*
X143062170Y-27054035D01*
X143276337Y-27153903D01*
X143504592Y-27215063D01*
X143681034Y-27230500D01*
X143739999Y-27235659D01*
X143740000Y-27235659D01*
X143740001Y-27235659D01*
X143798966Y-27230500D01*
X143975408Y-27215063D01*
X144203663Y-27153903D01*
X144417830Y-27054035D01*
X144611401Y-26918495D01*
X144778495Y-26751401D01*
X144914035Y-26557830D01*
X145013903Y-26343663D01*
X145075063Y-26115408D01*
X145095659Y-25880000D01*
X145075063Y-25644592D01*
X145014885Y-25420003D01*
X145013905Y-25416344D01*
X145013904Y-25416343D01*
X145013903Y-25416337D01*
X144914035Y-25202171D01*
X144868276Y-25136819D01*
X144778494Y-25008597D01*
X144611402Y-24841506D01*
X144611395Y-24841501D01*
X144417834Y-24705967D01*
X144417830Y-24705965D01*
X144203663Y-24606097D01*
X144203659Y-24606096D01*
X144203655Y-24606094D01*
X143975413Y-24544938D01*
X143975403Y-24544936D01*
X143740001Y-24524341D01*
X143739998Y-24524341D01*
X143526985Y-24542977D01*
X143458485Y-24529210D01*
X143428497Y-24507130D01*
X141808421Y-22887052D01*
X141808414Y-22887046D01*
X141734729Y-22837812D01*
X141734729Y-22837813D01*
X141685491Y-22804913D01*
X141548917Y-22748343D01*
X141548907Y-22748340D01*
X141403920Y-22719500D01*
X141403918Y-22719500D01*
X122906082Y-22719500D01*
X122906080Y-22719500D01*
X122761092Y-22748340D01*
X122761082Y-22748343D01*
X122660367Y-22790061D01*
X122612915Y-22799500D01*
X119619972Y-22799500D01*
X119579017Y-22792542D01*
X119499254Y-22764631D01*
X119499249Y-22764630D01*
X119320004Y-22744435D01*
X119319996Y-22744435D01*
X119140750Y-22764630D01*
X119140745Y-22764631D01*
X118970476Y-22824211D01*
X118817737Y-22920184D01*
X118690184Y-23047737D01*
X118594211Y-23200476D01*
X118534631Y-23370745D01*
X118534630Y-23370750D01*
X118514435Y-23549996D01*
X118514435Y-23550003D01*
X118534630Y-23729249D01*
X118534631Y-23729254D01*
X118594211Y-23899523D01*
X118620113Y-23940745D01*
X118690184Y-24052262D01*
X118817738Y-24179816D01*
X118822723Y-24182948D01*
X118869013Y-24235284D01*
X118879660Y-24304337D01*
X118851284Y-24368185D01*
X118844430Y-24375622D01*
X118591775Y-24628277D01*
X118530452Y-24661762D01*
X118517988Y-24663815D01*
X118510752Y-24664630D01*
X118510744Y-24664632D01*
X118340478Y-24724210D01*
X118187737Y-24820184D01*
X118060184Y-24947737D01*
X117964211Y-25100476D01*
X117904631Y-25270745D01*
X117904630Y-25270750D01*
X117884435Y-25449996D01*
X85511371Y-25449996D01*
X86088059Y-24873306D01*
X86124132Y-24850657D01*
X86123244Y-24848813D01*
X86129515Y-24845792D01*
X86129516Y-24845790D01*
X86129522Y-24845789D01*
X86282262Y-24749816D01*
X86409816Y-24622262D01*
X86505789Y-24469522D01*
X86565368Y-24299255D01*
X86569152Y-24265673D01*
X86585565Y-24120003D01*
X86585565Y-24119996D01*
X86565369Y-23940750D01*
X86565368Y-23940745D01*
X86507986Y-23776758D01*
X86505789Y-23770478D01*
X86409816Y-23617738D01*
X86282262Y-23490184D01*
X86129523Y-23394211D01*
X85959254Y-23334631D01*
X85959249Y-23334630D01*
X85780004Y-23314435D01*
X85779996Y-23314435D01*
X85600750Y-23334630D01*
X85600745Y-23334631D01*
X85430476Y-23394211D01*
X85277737Y-23490184D01*
X85150184Y-23617737D01*
X85054208Y-23770483D01*
X85051186Y-23776758D01*
X85049361Y-23775878D01*
X85026692Y-23811939D01*
X84205451Y-24633181D01*
X84144128Y-24666666D01*
X84117770Y-24669500D01*
X60079972Y-24669500D01*
X60039017Y-24662542D01*
X59959254Y-24634631D01*
X59959249Y-24634630D01*
X59780004Y-24614435D01*
X59779996Y-24614435D01*
X59600750Y-24634630D01*
X59600745Y-24634631D01*
X59430476Y-24694211D01*
X59277737Y-24790184D01*
X59150184Y-24917737D01*
X59054211Y-25070476D01*
X58994631Y-25240745D01*
X58994630Y-25240750D01*
X58974435Y-25419996D01*
X50500500Y-25419996D01*
X50500500Y-20624500D01*
X50520185Y-20557461D01*
X50572989Y-20511706D01*
X50624500Y-20500500D01*
X67007914Y-20500500D01*
X67074953Y-20520185D01*
G37*
%TD.AperFunction*%
%TD*%
M02*
