M48
; DRILL file {KiCad 8.0.3} date 2024-06-11T07:04:43+0545
; FORMAT={-:-/ absolute / inch / decimal}
; #@! TF.CreationDate,2024-06-11T07:04:43+05:45
; #@! TF.GenerationSoftware,Kicad,Pcbnew,8.0.3
; #@! TF.FileFunction,Plated,1,2,PTH
FMAT,2
INCH
; #@! TA.AperFunction,Plated,PTH,ViaDrill
T1C0.0118
; #@! TA.AperFunction,Plated,PTH,ComponentDrill
T2C0.0118
; #@! TA.AperFunction,Plated,PTH,ComponentDrill
T3C0.0236
; #@! TA.AperFunction,Plated,PTH,ComponentDrill
T4C0.0394
; #@! TA.AperFunction,Plated,PTH,ComponentDrill
T5C0.0551
%
G90
G05
T1
X2.0961Y-4.4665
X2.0965Y-3.8402
X2.1441Y-4.3736
X2.1476Y-0.8398
X2.1476Y-4.9862
X2.15Y-2.5898
X2.1516Y-3.3909
X2.152Y-1.4272
X2.1807Y-4.2193
X2.1976Y-4.8484
X2.2051Y-5.8154
X2.2421Y-1.715
X2.2429Y-2.7559
X2.2445Y-3.6772
X2.2457Y-5.728
X2.2551Y-3.9988
X2.2579Y-4.6248
X2.3307Y-3.6823
X2.3339Y-5.7228
X2.335Y-2.7531
X2.3354Y-1.713
X2.3535Y-1.0008
X2.3862Y-3.0949
X2.4291Y-1.0783
X2.4323Y-2.1138
X2.4362Y-5.0882
X2.4453Y-1.9744
X2.4894Y-1.7118
X2.4957Y-2.7496
X2.5157Y-3.1547
X2.5169Y-3.6791
X2.5209Y-2.2374
X2.5685Y-4.5323
X2.5772Y-2.8984
X2.6232Y-1.4921
X2.6299Y-1.3925
X2.7299Y-3.6736
X2.7476Y-1.9441
X2.7744Y-4.5169
X2.7756Y-1.528
X2.9098Y-1.9043
X2.9291Y-1.4669
X2.9335Y-3.7051
X2.9343Y-3.6276
X2.9358Y-2.0102
X2.95Y-2.8858
X2.95Y-3.048
X2.9894Y-1.5075
X2.9953Y-3.598
X3.0264Y-5.2177
X3.0583Y-3.3484
X3.0713Y-1.5874
X3.0728Y-1.4626
X3.0769Y-3.8588
X3.1083Y-4.8118
X3.1382Y-3.9606
X3.1606Y-3.1583
X3.1654Y-1.5272
X3.1957Y-3.8291
X3.213Y-3.8043
X3.3469Y-4.8165
X3.3508Y-1.5797
X3.3508Y-1.6093
X3.3768Y-5.5311
X3.3772Y-0.9496
X3.3921Y-3.7354
X3.4272Y-1.4807
X3.4276Y-5.2189
X3.4949Y-4.6803
X3.4949Y-4.7539
X3.5028Y-5.1386
X3.5169Y-4.1512
X3.5177Y-3.6504
X3.5268Y-1.2193
X3.5283Y-0.9
X3.5287Y-0.9815
X3.5291Y-1.0614
X3.5846Y-4.8189
X3.6087Y-4.4461
X3.6559Y-4.8169
X3.739Y-3.1709
X3.739Y-3.2531
X3.739Y-4.8161
X3.7425Y-3.4028
X3.7437Y-3.3315
X3.7752Y-4.3382
X3.8138Y-4.1945
X3.8142Y-4.3287
X3.8165Y-4.2677
X3.8303Y-5.3528
X3.8492Y-4.4906
X3.8634Y-3.4941
X3.9421Y-5.5024
X4.0378Y-2.4606
X4.0488Y-0.8398
X4.0992Y-2.9713
X4.2113Y-1.4626
X4.2113Y-1.4921
X4.2276Y-5.3205
X4.2343Y-5.4138
X4.3244Y-1.9004
X4.3244Y-2.0016
X4.389Y-4.4394
X4.3933Y-3.4197
X4.4571Y-4.1024
X4.528Y-4.1043
X4.6394Y-4.6087
X4.6728Y-1.002
X4.6976Y-0.9272
X4.748Y-0.8449
X4.7512Y-4.1398
X4.7787Y-4.2394
X4.8016Y-3.6508
X4.8264Y-5.2535
X4.8886Y-4.7937
X4.8898Y-4.3567
X4.8949Y-5.1209
X4.9122Y-3.6063
X4.9177Y-3.3933
X4.9732Y-2.3441
X4.9992Y-3.1634
X5.0016Y-3.0713
X5.0484Y-4.2697
X5.0496Y-4.224
X5.1906Y-4.2969
X5.2937Y-4.4488
X5.3236Y-3.3657
X5.3244Y-3.1937
X5.3276Y-2.8354
X5.328Y-2.9185
X5.328Y-3.0185
X5.3299Y-3.4445
X5.3508Y-3.7969
X5.372Y-5.2067
X5.402Y-4.5067
X5.4496Y-2.3394
X5.452Y-2.252
X5.4539Y-2.5776
X5.4843Y-2.9315
X5.4862Y-4.2972
X5.4909Y-3.2094
X5.5248Y-3.0496
X5.5252Y-2.9386
X5.5256Y-4.3551
X5.5457Y-3.8776
X5.5657Y-2.6622
X5.5945Y-2.8854
X5.6327Y-3.8756
X5.6441Y-2.6591
X5.6453Y-2.8197
X5.6748Y-2.3587
X5.7059Y-3.722
X5.7996Y-2.9744
X5.8012Y-3.8764
X5.8669Y-3.8764
X5.8724Y-2.6945
X5.8748Y-3.5087
X5.8925Y-2.839
X5.8933Y-1.3646
X5.8972Y-0.8394
X5.9213Y-3.9622
X5.9535Y-3.5602
X5.9555Y-2.6917
X5.9646Y-3.8732
X5.9734Y-3.0635
X5.9846Y-1.615
X6.0354Y-2.6602
X6.0453Y-3.874
X6.0504Y-1.3673
X6.0618Y-0.8425
X6.0673Y-2.8846
X6.0957Y-3.3476
X6.1016Y-3.7016
X6.1197Y-2.6622
X6.1209Y-3.3461
X6.122Y-3.8803
X6.1575Y-3.6622
X6.1661Y-2.2346
X6.1748Y-4.0252
X6.187Y-3.4939
X6.2024Y-2.6575
X6.2055Y-3.8843
X6.2087Y-3.4461
X6.2232Y-3.5411
X6.2356Y-2.8879
X6.2366Y-3.7
X6.2579Y-2.8113
X6.2835Y-2.6587
X6.2894Y-3.5411
X6.2902Y-3.8744
X6.3157Y-3.6622
X6.3661Y-2.6555
X6.376Y-3.8756
X6.4417Y-2.6524
X6.4591Y-3.8823
X6.4689Y-2.8382
X6.5173Y-2.6551
X6.5437Y-3.8831
X6.5579Y-3.1898
X6.5668Y-2.5803
X6.5913Y-3.4626
X6.5933Y-2.5287
X6.622Y-3.878
X6.626Y-0.8484
X6.639Y-1.3618
X6.6425Y-2.4839
X6.6461Y-3.4374
X6.6941Y-2.4724
X6.7071Y-1.0898
X6.7154Y-1.5902
X6.7193Y-3.139
X6.7579Y-1.8965
X6.7724Y-3.2957
X6.7878Y-0.8484
X6.7933Y-1.361
X6.798Y-2.5169
X6.8469Y-2.4126
X6.939Y-3.5094
X6.9402Y-3.1402
X6.9425Y-3.4339
X6.9433Y-3.3453
X6.9449Y-3.2646
X7.0008Y-2.5118
T2
X3.3022Y-3.8105
X3.3022Y-3.8489
X3.3022Y-3.8873
X3.3406Y-3.8105
X3.3406Y-3.8489
X3.3406Y-3.8873
X3.3789Y-3.8105
X3.3789Y-3.8489
X3.3789Y-3.8873
X4.3417Y-1.1244
X4.3417Y-1.1795
X4.3693Y-1.0969
X4.3693Y-1.152
X4.3693Y-1.2071
X4.3969Y-1.1244
X4.3969Y-1.1795
X4.4244Y-1.0969
X4.4244Y-1.152
X4.4244Y-1.2071
X4.452Y-1.1244
X4.452Y-1.1795
X5.8079Y-3.1843
X5.8079Y-3.2305
X5.8079Y-3.2768
X5.8079Y-3.323
X5.8079Y-3.3693
X5.8541Y-3.1843
X5.8541Y-3.2305
X5.8541Y-3.2768
X5.8541Y-3.323
X5.8541Y-3.3693
X5.9004Y-3.1843
X5.9004Y-3.2305
X5.9004Y-3.2768
X5.9004Y-3.323
X5.9004Y-3.3693
X5.9467Y-3.1843
X5.9467Y-3.2305
X5.9467Y-3.2768
X5.9467Y-3.323
X5.9467Y-3.3693
X5.9929Y-3.1843
X5.9929Y-3.2305
X5.9929Y-3.2768
X5.9929Y-3.323
X5.9929Y-3.3693
T4
X2.561Y-0.8654
X2.661Y-0.8654
X2.761Y-0.8654
X2.861Y-0.8654
X2.961Y-0.8654
X3.061Y-0.8654
X3.161Y-0.8654
X4.6732Y-2.6096
X4.6732Y-2.7096
X4.6732Y-2.8096
X4.6732Y-2.9096
X4.6732Y-3.0096
X4.6732Y-3.1096
X4.6732Y-3.2096
X5.5591Y-1.0189
X5.5591Y-1.1189
X5.5591Y-1.2189
X5.6591Y-1.0189
X5.6591Y-1.1189
X5.6591Y-1.2189
T5
X5.9272Y-5.639
X6.2272Y-5.639
X6.5272Y-5.639
T3
G00X2.9876Y-1.4124
M15
G01X2.9876Y-1.4222
M16
G05
G00X2.9876Y-1.6014
M15
G01X2.9876Y-1.6112
M16
G05
G00X3.1569Y-1.4124
M15
G01X3.1569Y-1.4222
M16
G05
G00X3.1569Y-1.6014
M15
G01X3.1569Y-1.6112
M16
G05
M30
