%TF.GenerationSoftware,KiCad,Pcbnew,8.0.3*%
%TF.CreationDate,2024-06-09T21:31:06+05:45*%
%TF.ProjectId,HardwareDesign,48617264-7761-4726-9544-657369676e2e,rev?*%
%TF.SameCoordinates,Original*%
%TF.FileFunction,Paste,Top*%
%TF.FilePolarity,Positive*%
%FSLAX46Y46*%
G04 Gerber Fmt 4.6, Leading zero omitted, Abs format (unit mm)*
G04 Created by KiCad (PCBNEW 8.0.3) date 2024-06-09 21:31:06*
%MOMM*%
%LPD*%
G01*
G04 APERTURE LIST*
G04 Aperture macros list*
%AMRoundRect*
0 Rectangle with rounded corners*
0 $1 Rounding radius*
0 $2 $3 $4 $5 $6 $7 $8 $9 X,Y pos of 4 corners*
0 Add a 4 corners polygon primitive as box body*
4,1,4,$2,$3,$4,$5,$6,$7,$8,$9,$2,$3,0*
0 Add four circle primitives for the rounded corners*
1,1,$1+$1,$2,$3*
1,1,$1+$1,$4,$5*
1,1,$1+$1,$6,$7*
1,1,$1+$1,$8,$9*
0 Add four rect primitives between the rounded corners*
20,1,$1+$1,$2,$3,$4,$5,0*
20,1,$1+$1,$4,$5,$6,$7,0*
20,1,$1+$1,$6,$7,$8,$9,0*
20,1,$1+$1,$8,$9,$2,$3,0*%
%AMFreePoly0*
4,1,25,0.251037,0.433748,0.282717,0.409439,0.409439,0.282717,0.449030,0.214145,0.454242,0.174554,0.454242,-0.174554,0.433748,-0.251037,0.409439,-0.282717,0.282717,-0.409439,0.214145,-0.449030,0.174554,-0.454242,-0.174554,-0.454242,-0.251037,-0.433748,-0.282717,-0.409439,-0.409439,-0.282717,-0.449030,-0.214145,-0.454242,-0.174554,-0.454242,0.174554,-0.433748,0.251037,-0.409439,0.282717,
-0.282717,0.409439,-0.214145,0.449030,-0.174554,0.454242,0.174554,0.454242,0.251037,0.433748,0.251037,0.433748,$1*%
G04 Aperture macros list end*
%ADD10RoundRect,0.200000X-0.200000X-0.275000X0.200000X-0.275000X0.200000X0.275000X-0.200000X0.275000X0*%
%ADD11RoundRect,0.243750X0.456250X-0.243750X0.456250X0.243750X-0.456250X0.243750X-0.456250X-0.243750X0*%
%ADD12R,3.800000X2.000000*%
%ADD13RoundRect,0.218750X-0.218750X-0.381250X0.218750X-0.381250X0.218750X0.381250X-0.218750X0.381250X0*%
%ADD14RoundRect,0.250000X0.262500X0.450000X-0.262500X0.450000X-0.262500X-0.450000X0.262500X-0.450000X0*%
%ADD15RoundRect,0.250000X0.250000X0.475000X-0.250000X0.475000X-0.250000X-0.475000X0.250000X-0.475000X0*%
%ADD16RoundRect,0.250000X0.475000X-0.250000X0.475000X0.250000X-0.475000X0.250000X-0.475000X-0.250000X0*%
%ADD17RoundRect,0.250000X-1.000000X-0.650000X1.000000X-0.650000X1.000000X0.650000X-1.000000X0.650000X0*%
%ADD18RoundRect,0.218750X0.381250X-0.218750X0.381250X0.218750X-0.381250X0.218750X-0.381250X-0.218750X0*%
%ADD19RoundRect,0.250000X-0.475000X0.250000X-0.475000X-0.250000X0.475000X-0.250000X0.475000X0.250000X0*%
%ADD20R,0.870000X0.300000*%
%ADD21RoundRect,0.150000X0.150000X-0.512500X0.150000X0.512500X-0.150000X0.512500X-0.150000X-0.512500X0*%
%ADD22RoundRect,0.250000X-0.450000X0.262500X-0.450000X-0.262500X0.450000X-0.262500X0.450000X0.262500X0*%
%ADD23RoundRect,0.225000X0.375000X-0.225000X0.375000X0.225000X-0.375000X0.225000X-0.375000X-0.225000X0*%
%ADD24RoundRect,0.375000X0.375000X-0.625000X0.375000X0.625000X-0.375000X0.625000X-0.375000X-0.625000X0*%
%ADD25RoundRect,0.500000X1.400000X-0.500000X1.400000X0.500000X-1.400000X0.500000X-1.400000X-0.500000X0*%
%ADD26RoundRect,0.150000X-0.150000X0.825000X-0.150000X-0.825000X0.150000X-0.825000X0.150000X0.825000X0*%
%ADD27RoundRect,0.250000X0.450000X-0.262500X0.450000X0.262500X-0.450000X0.262500X-0.450000X-0.262500X0*%
%ADD28RoundRect,0.225000X-0.375000X0.225000X-0.375000X-0.225000X0.375000X-0.225000X0.375000X0.225000X0*%
%ADD29RoundRect,0.250000X-0.250000X-0.475000X0.250000X-0.475000X0.250000X0.475000X-0.250000X0.475000X0*%
%ADD30RoundRect,0.150000X-0.587500X-0.150000X0.587500X-0.150000X0.587500X0.150000X-0.587500X0.150000X0*%
%ADD31RoundRect,0.150000X-0.650000X-0.150000X0.650000X-0.150000X0.650000X0.150000X-0.650000X0.150000X0*%
%ADD32R,1.000000X0.750000*%
%ADD33R,1.400000X1.200000*%
%ADD34RoundRect,0.250000X-0.262500X-0.450000X0.262500X-0.450000X0.262500X0.450000X-0.262500X0.450000X0*%
%ADD35R,0.800000X2.700000*%
%ADD36RoundRect,0.250000X-0.253488X0.253488X-0.253488X-0.253488X0.253488X-0.253488X0.253488X0.253488X0*%
%ADD37RoundRect,0.050000X-0.050000X0.362500X-0.050000X-0.362500X0.050000X-0.362500X0.050000X0.362500X0*%
%ADD38RoundRect,0.050000X-0.362500X0.050000X-0.362500X-0.050000X0.362500X-0.050000X0.362500X0.050000X0*%
%ADD39RoundRect,0.243750X-0.243750X-0.456250X0.243750X-0.456250X0.243750X0.456250X-0.243750X0.456250X0*%
%ADD40RoundRect,0.243750X-0.456250X0.243750X-0.456250X-0.243750X0.456250X-0.243750X0.456250X0.243750X0*%
%ADD41RoundRect,0.150000X0.587500X0.150000X-0.587500X0.150000X-0.587500X-0.150000X0.587500X-0.150000X0*%
%ADD42RoundRect,0.250000X1.000000X0.650000X-1.000000X0.650000X-1.000000X-0.650000X1.000000X-0.650000X0*%
%ADD43RoundRect,0.218750X-0.381250X0.218750X-0.381250X-0.218750X0.381250X-0.218750X0.381250X0.218750X0*%
%ADD44R,0.900000X0.900000*%
%ADD45R,1.500000X0.900000*%
%ADD46R,0.900000X1.500000*%
%ADD47FreePoly0,0.000000*%
%ADD48RoundRect,0.062500X-0.325000X-0.062500X0.325000X-0.062500X0.325000X0.062500X-0.325000X0.062500X0*%
%ADD49RoundRect,0.062500X-0.062500X-0.325000X0.062500X-0.325000X0.062500X0.325000X-0.062500X0.325000X0*%
%ADD50R,0.450000X1.250000*%
%ADD51RoundRect,0.250000X-0.900000X1.000000X-0.900000X-1.000000X0.900000X-1.000000X0.900000X1.000000X0*%
%ADD52R,2.700000X0.800000*%
%ADD53RoundRect,0.150000X-0.512500X-0.150000X0.512500X-0.150000X0.512500X0.150000X-0.512500X0.150000X0*%
%ADD54RoundRect,0.150000X0.150000X-0.825000X0.150000X0.825000X-0.150000X0.825000X-0.150000X-0.825000X0*%
G04 APERTURE END LIST*
D10*
%TO.C,R22*%
X95435000Y-88760000D03*
X97085000Y-88760000D03*
%TD*%
D11*
%TO.C,D12*%
X95980000Y-112975000D03*
X95980000Y-111100000D03*
%TD*%
D12*
%TO.C,TP26*%
X163090000Y-84000000D03*
%TD*%
%TO.C,TP8*%
X62140000Y-104100000D03*
%TD*%
D13*
%TO.C,L6*%
X124977500Y-109700000D03*
X127102500Y-109700000D03*
%TD*%
D14*
%TO.C,R25*%
X86786666Y-80420000D03*
X84961666Y-80420000D03*
%TD*%
D12*
%TO.C,TP23*%
X119450000Y-100290000D03*
%TD*%
D15*
%TO.C,C80*%
X100030000Y-106512500D03*
X98130000Y-106512500D03*
%TD*%
%TO.C,C52*%
X92430000Y-24916000D03*
X90530000Y-24916000D03*
%TD*%
D16*
%TO.C,C8*%
X126810000Y-119084998D03*
X126810000Y-117184998D03*
%TD*%
D17*
%TO.C,D9*%
X93110000Y-103360000D03*
X97110000Y-103360000D03*
%TD*%
D18*
%TO.C,L4*%
X126940000Y-115605832D03*
X126940000Y-113480832D03*
%TD*%
%TO.C,L9*%
X143110000Y-108382500D03*
X143110000Y-106257500D03*
%TD*%
D19*
%TO.C,C67*%
X57000000Y-90400000D03*
X57000000Y-92300000D03*
%TD*%
D20*
%TO.C,J2*%
X78900000Y-35650000D03*
X78900000Y-37150000D03*
X78900000Y-37650000D03*
X78900000Y-38150000D03*
X78900000Y-38650000D03*
X78900000Y-39150000D03*
X78900000Y-39650000D03*
X78900000Y-41150000D03*
X77170000Y-41150000D03*
X77170000Y-39650000D03*
X77170000Y-39150000D03*
X77170000Y-38650000D03*
X77170000Y-38150000D03*
X77170000Y-37650000D03*
X77170000Y-37150000D03*
X77170000Y-35650000D03*
%TD*%
D21*
%TO.C,U8*%
X54425000Y-105837500D03*
X55375000Y-105837500D03*
X56325000Y-105837500D03*
X56325000Y-103562500D03*
X54425000Y-103562500D03*
%TD*%
D15*
%TO.C,C78*%
X100030000Y-110712500D03*
X98130000Y-110712500D03*
%TD*%
D22*
%TO.C,R3*%
X126340000Y-53347500D03*
X126340000Y-55172500D03*
%TD*%
D15*
%TO.C,C55*%
X173602500Y-40450000D03*
X171702500Y-40450000D03*
%TD*%
D19*
%TO.C,C61*%
X63400000Y-66800000D03*
X63400000Y-68700000D03*
%TD*%
D23*
%TO.C,D6*%
X134583333Y-108275000D03*
X134583333Y-104975000D03*
%TD*%
D12*
%TO.C,TP30*%
X172300000Y-95600000D03*
%TD*%
D22*
%TO.C,R1*%
X121540000Y-124687500D03*
X121540000Y-126512500D03*
%TD*%
D14*
%TO.C,R17*%
X173295000Y-29585000D03*
X171470000Y-29585000D03*
%TD*%
D12*
%TO.C,TP40*%
X170030000Y-56760000D03*
%TD*%
D18*
%TO.C,L3*%
X121440000Y-115605832D03*
X121440000Y-113480832D03*
%TD*%
D13*
%TO.C,L5*%
X121277500Y-109700000D03*
X123402500Y-109700000D03*
%TD*%
D19*
%TO.C,C48*%
X157715831Y-95600000D03*
X157715831Y-97500000D03*
%TD*%
D24*
%TO.C,U3*%
X54700000Y-37950000D03*
X57000000Y-37950000D03*
D25*
X57000000Y-31650000D03*
D24*
X59300000Y-37950000D03*
%TD*%
D26*
%TO.C,U6*%
X96755000Y-129085000D03*
X95485000Y-129085000D03*
X94215000Y-129085000D03*
X92945000Y-129085000D03*
X92945000Y-134035000D03*
X94215000Y-134035000D03*
X95485000Y-134035000D03*
X96755000Y-134035000D03*
%TD*%
D12*
%TO.C,TP35*%
X156950000Y-104170000D03*
%TD*%
D27*
%TO.C,R9*%
X135500000Y-123852500D03*
X135500000Y-122027500D03*
%TD*%
D19*
%TO.C,C47*%
X149412499Y-95600000D03*
X149412499Y-97500000D03*
%TD*%
D12*
%TO.C,TP2*%
X166540000Y-115370000D03*
%TD*%
D19*
%TO.C,C70*%
X90800000Y-123450000D03*
X90800000Y-125350000D03*
%TD*%
D15*
%TO.C,C77*%
X100030000Y-112812500D03*
X98130000Y-112812500D03*
%TD*%
%TO.C,C54*%
X154902500Y-40980000D03*
X153002500Y-40980000D03*
%TD*%
D28*
%TO.C,D5*%
X139410000Y-105020000D03*
X139410000Y-108320000D03*
%TD*%
D29*
%TO.C,C49*%
X168480000Y-48260000D03*
X170380000Y-48260000D03*
%TD*%
%TO.C,C30*%
X173360000Y-85000000D03*
X175260000Y-85000000D03*
%TD*%
D12*
%TO.C,TP43*%
X170030000Y-50760000D03*
%TD*%
D19*
%TO.C,C57*%
X63200000Y-40550000D03*
X63200000Y-42450000D03*
%TD*%
D30*
%TO.C,D2*%
X119352498Y-105350000D03*
X119352498Y-107250000D03*
X121227498Y-106300000D03*
%TD*%
D19*
%TO.C,C44*%
X155624998Y-95600000D03*
X155624998Y-97500000D03*
%TD*%
D12*
%TO.C,TP10*%
X65840000Y-136580000D03*
%TD*%
D19*
%TO.C,C14*%
X126340000Y-56810000D03*
X126340000Y-58710000D03*
%TD*%
D31*
%TO.C,U1*%
X155430000Y-52855000D03*
X155430000Y-54125000D03*
X155430000Y-55395000D03*
X155430000Y-56665000D03*
X162630000Y-56665000D03*
X162630000Y-55395000D03*
X162630000Y-54125000D03*
X162630000Y-52855000D03*
%TD*%
D12*
%TO.C,TP36*%
X136540000Y-93440000D03*
%TD*%
%TO.C,TP16*%
X126030000Y-83370000D03*
%TD*%
D22*
%TO.C,R38*%
X92872500Y-137787500D03*
X92872500Y-139612500D03*
%TD*%
D15*
%TO.C,C28*%
X138110000Y-81270000D03*
X136210000Y-81270000D03*
%TD*%
D27*
%TO.C,R45*%
X84900000Y-125332500D03*
X84900000Y-123507500D03*
%TD*%
D22*
%TO.C,R30*%
X54700000Y-142287500D03*
X54700000Y-144112500D03*
%TD*%
D12*
%TO.C,TP3*%
X166160000Y-127580000D03*
%TD*%
D27*
%TO.C,R10*%
X168140000Y-97482500D03*
X168140000Y-95657500D03*
%TD*%
D16*
%TO.C,C13*%
X149160000Y-71230000D03*
X149160000Y-69330000D03*
%TD*%
D29*
%TO.C,C64*%
X58750000Y-53530000D03*
X60650000Y-53530000D03*
%TD*%
D11*
%TO.C,D15*%
X63900000Y-79037500D03*
X63900000Y-77162500D03*
%TD*%
D15*
%TO.C,C91*%
X56150000Y-97500000D03*
X54250000Y-97500000D03*
%TD*%
D19*
%TO.C,C59*%
X57000000Y-40550000D03*
X57000000Y-42450000D03*
%TD*%
D15*
%TO.C,C33*%
X138110000Y-85660000D03*
X136210000Y-85660000D03*
%TD*%
D29*
%TO.C,C95*%
X58750000Y-129330000D03*
X60650000Y-129330000D03*
%TD*%
D32*
%TO.C,S3*%
X167580000Y-34555000D03*
X173580000Y-34555000D03*
X167580000Y-38305000D03*
X173580000Y-38305000D03*
%TD*%
D16*
%TO.C,C5*%
X159630000Y-70460000D03*
X159630000Y-68560000D03*
%TD*%
D27*
%TO.C,R6*%
X175210000Y-66682500D03*
X175210000Y-64857500D03*
%TD*%
D29*
%TO.C,C84*%
X91957500Y-80450000D03*
X93857500Y-80450000D03*
%TD*%
D24*
%TO.C,U10*%
X54700000Y-139650000D03*
X57000000Y-139650000D03*
D25*
X57000000Y-133350000D03*
D24*
X59300000Y-139650000D03*
%TD*%
D29*
%TO.C,C29*%
X173360000Y-82920000D03*
X175260000Y-82920000D03*
%TD*%
D19*
%TO.C,C83*%
X89800000Y-88600000D03*
X89800000Y-90500000D03*
%TD*%
D33*
%TO.C,Y1*%
X145101666Y-97400000D03*
X147301666Y-97400000D03*
X147301666Y-95700000D03*
X145101666Y-95700000D03*
%TD*%
D16*
%TO.C,C2*%
X161680000Y-70440000D03*
X161680000Y-68540000D03*
%TD*%
D19*
%TO.C,C39*%
X166079163Y-95600000D03*
X166079163Y-97500000D03*
%TD*%
D29*
%TO.C,C68*%
X58850000Y-77292500D03*
X60750000Y-77292500D03*
%TD*%
D34*
%TO.C,R13*%
X90587500Y-28978000D03*
X92412500Y-28978000D03*
%TD*%
D16*
%TO.C,C32*%
X135470000Y-117860000D03*
X135470000Y-115960000D03*
%TD*%
D19*
%TO.C,C45*%
X159806664Y-95600000D03*
X159806664Y-97500000D03*
%TD*%
D22*
%TO.C,R31*%
X54700000Y-145787500D03*
X54700000Y-147612500D03*
%TD*%
D16*
%TO.C,C1*%
X163700000Y-70420000D03*
X163700000Y-68520000D03*
%TD*%
D27*
%TO.C,R11*%
X142430000Y-48572500D03*
X142430000Y-46747500D03*
%TD*%
D22*
%TO.C,R12*%
X153564165Y-95657500D03*
X153564165Y-97482500D03*
%TD*%
D16*
%TO.C,C98*%
X122380000Y-134640000D03*
X122380000Y-132740000D03*
%TD*%
%TO.C,C6*%
X157560000Y-70480000D03*
X157560000Y-68580000D03*
%TD*%
D32*
%TO.C,S4*%
X167340000Y-21560000D03*
X173340000Y-21560000D03*
X167340000Y-25310000D03*
X173340000Y-25310000D03*
%TD*%
D28*
%TO.C,D8*%
X136860000Y-109982500D03*
X136860000Y-113282500D03*
%TD*%
D12*
%TO.C,TP11*%
X92230000Y-77780000D03*
%TD*%
D16*
%TO.C,C36*%
X134620000Y-111940000D03*
X134620000Y-110040000D03*
%TD*%
D27*
%TO.C,R8*%
X132080000Y-123852500D03*
X132080000Y-122027500D03*
%TD*%
D15*
%TO.C,C35*%
X138110000Y-87700000D03*
X136210000Y-87700000D03*
%TD*%
D16*
%TO.C,C20*%
X125543330Y-107250000D03*
X125543330Y-105350000D03*
%TD*%
D19*
%TO.C,C72*%
X59300000Y-142270000D03*
X59300000Y-144170000D03*
%TD*%
D12*
%TO.C,TP20*%
X126050000Y-88910000D03*
%TD*%
D22*
%TO.C,R40*%
X96937500Y-137787500D03*
X96937500Y-139612500D03*
%TD*%
D16*
%TO.C,C16*%
X143480000Y-70510000D03*
X143480000Y-68610000D03*
%TD*%
D23*
%TO.C,D7*%
X136996666Y-108275000D03*
X136996666Y-104975000D03*
%TD*%
D27*
%TO.C,R33*%
X96957500Y-125332500D03*
X96957500Y-123507500D03*
%TD*%
D12*
%TO.C,TP27*%
X163090000Y-86950000D03*
%TD*%
D24*
%TO.C,U5*%
X54700000Y-87850000D03*
X57000000Y-87850000D03*
D25*
X57000000Y-81550000D03*
D24*
X59300000Y-87850000D03*
%TD*%
D34*
%TO.C,R14*%
X153040000Y-42980000D03*
X154865000Y-42980000D03*
%TD*%
D19*
%TO.C,C41*%
X151503332Y-95600000D03*
X151503332Y-97500000D03*
%TD*%
D16*
%TO.C,C17*%
X141400000Y-70540000D03*
X141400000Y-68640000D03*
%TD*%
D22*
%TO.C,R46*%
X80920000Y-123507500D03*
X80920000Y-125332500D03*
%TD*%
D34*
%TO.C,R20*%
X92155000Y-98212500D03*
X93980000Y-98212500D03*
%TD*%
D29*
%TO.C,C76*%
X92130000Y-92172500D03*
X94030000Y-92172500D03*
%TD*%
D27*
%TO.C,R26*%
X95980000Y-116550000D03*
X95980000Y-114725000D03*
%TD*%
D29*
%TO.C,C3*%
X121340000Y-122798330D03*
X123240000Y-122798330D03*
%TD*%
D12*
%TO.C,TP1*%
X86180000Y-54480000D03*
%TD*%
%TO.C,TP5*%
X70510000Y-36280000D03*
%TD*%
D19*
%TO.C,C19*%
X113140000Y-105350000D03*
X113140000Y-107250000D03*
%TD*%
D35*
%TO.C,L19*%
X78350000Y-88550000D03*
X80650000Y-88550000D03*
%TD*%
D12*
%TO.C,TP42*%
X147630000Y-56660000D03*
%TD*%
D21*
%TO.C,U9*%
X54425000Y-121787500D03*
X55375000Y-121787500D03*
X56325000Y-121787500D03*
X56325000Y-119512500D03*
X54425000Y-119512500D03*
%TD*%
D19*
%TO.C,C43*%
X163988330Y-95600000D03*
X163988330Y-97500000D03*
%TD*%
D15*
%TO.C,C50*%
X92430000Y-30994000D03*
X90530000Y-30994000D03*
%TD*%
D19*
%TO.C,C40*%
X140900000Y-95600000D03*
X140900000Y-97500000D03*
%TD*%
D22*
%TO.C,R15*%
X106840000Y-44377500D03*
X106840000Y-46202500D03*
%TD*%
D29*
%TO.C,C87*%
X91957500Y-86697500D03*
X93857500Y-86697500D03*
%TD*%
%TO.C,C85*%
X91957500Y-82532500D03*
X93857500Y-82532500D03*
%TD*%
D22*
%TO.C,R42*%
X82900000Y-137787500D03*
X82900000Y-139612500D03*
%TD*%
D34*
%TO.C,R37*%
X135930000Y-134030000D03*
X137755000Y-134030000D03*
%TD*%
D19*
%TO.C,C58*%
X59300000Y-40550000D03*
X59300000Y-42450000D03*
%TD*%
D29*
%TO.C,C82*%
X92137500Y-94212500D03*
X94037500Y-94212500D03*
%TD*%
D14*
%TO.C,R36*%
X102812500Y-129085000D03*
X100987500Y-129085000D03*
%TD*%
D19*
%TO.C,C96*%
X57000000Y-142270000D03*
X57000000Y-144170000D03*
%TD*%
D29*
%TO.C,C86*%
X91957500Y-84615000D03*
X93857500Y-84615000D03*
%TD*%
D11*
%TO.C,D14*%
X64300000Y-55337500D03*
X64300000Y-53462500D03*
%TD*%
D16*
%TO.C,C9*%
X155440000Y-70500000D03*
X155440000Y-68600000D03*
%TD*%
D27*
%TO.C,R44*%
X82910000Y-125332500D03*
X82910000Y-123507500D03*
%TD*%
D18*
%TO.C,L13*%
X57000000Y-55362500D03*
X57000000Y-53237500D03*
%TD*%
D27*
%TO.C,R7*%
X177810000Y-66682500D03*
X177810000Y-64857500D03*
%TD*%
D18*
%TO.C,L7*%
X117323332Y-107312500D03*
X117323332Y-105187500D03*
%TD*%
D36*
%TO.C,D3*%
X151632500Y-81467500D03*
X150457500Y-81467500D03*
X149282500Y-81467500D03*
X148107500Y-81467500D03*
X151632500Y-82642500D03*
X150457500Y-82642500D03*
X149282500Y-82642500D03*
X148107500Y-82642500D03*
X151632500Y-83817500D03*
X150457500Y-83817500D03*
X149282500Y-83817500D03*
X148107500Y-83817500D03*
X151632500Y-84992500D03*
X150457500Y-84992500D03*
X149282500Y-84992500D03*
X148107500Y-84992500D03*
D37*
X153070000Y-79292500D03*
X152670000Y-79292500D03*
X152270000Y-79292500D03*
X151870000Y-79292500D03*
X151470000Y-79292500D03*
X151070000Y-79292500D03*
X150670000Y-79292500D03*
X150270000Y-79292500D03*
X149870000Y-79292500D03*
X149470000Y-79292500D03*
X149070000Y-79292500D03*
X148670000Y-79292500D03*
X148270000Y-79292500D03*
X147870000Y-79292500D03*
X147470000Y-79292500D03*
X147070000Y-79292500D03*
X146670000Y-79292500D03*
D38*
X145932500Y-80030000D03*
X145932500Y-80430000D03*
X145932500Y-80830000D03*
X145932500Y-81230000D03*
X145932500Y-81630000D03*
X145932500Y-82030000D03*
X145932500Y-82430000D03*
X145932500Y-82830000D03*
X145932500Y-83230000D03*
X145932500Y-83630000D03*
X145932500Y-84030000D03*
X145932500Y-84430000D03*
X145932500Y-84830000D03*
X145932500Y-85230000D03*
X145932500Y-85630000D03*
X145932500Y-86030000D03*
X145932500Y-86430000D03*
D37*
X146670000Y-87167500D03*
X147070000Y-87167500D03*
X147470000Y-87167500D03*
X147870000Y-87167500D03*
X148270000Y-87167500D03*
X148670000Y-87167500D03*
X149070000Y-87167500D03*
X149470000Y-87167500D03*
X149870000Y-87167500D03*
X150270000Y-87167500D03*
X150670000Y-87167500D03*
X151070000Y-87167500D03*
X151470000Y-87167500D03*
X151870000Y-87167500D03*
X152270000Y-87167500D03*
X152670000Y-87167500D03*
X153070000Y-87167500D03*
D38*
X153807500Y-86430000D03*
X153807500Y-86030000D03*
X153807500Y-85630000D03*
X153807500Y-85230000D03*
X153807500Y-84830000D03*
X153807500Y-84430000D03*
X153807500Y-84030000D03*
X153807500Y-83630000D03*
X153807500Y-83230000D03*
X153807500Y-82830000D03*
X153807500Y-82430000D03*
X153807500Y-82030000D03*
X153807500Y-81630000D03*
X153807500Y-81230000D03*
X153807500Y-80830000D03*
X153807500Y-80430000D03*
X153807500Y-80030000D03*
%TD*%
D19*
%TO.C,C88*%
X76300000Y-88500000D03*
X76300000Y-90400000D03*
%TD*%
D13*
%TO.C,L1*%
X121277500Y-120826664D03*
X123402500Y-120826664D03*
%TD*%
D12*
%TO.C,TP29*%
X136530000Y-90480000D03*
%TD*%
D29*
%TO.C,C27*%
X132840000Y-119935000D03*
X134740000Y-119935000D03*
%TD*%
D19*
%TO.C,C66*%
X59300000Y-90400000D03*
X59300000Y-92300000D03*
%TD*%
D16*
%TO.C,C99*%
X78900000Y-125350000D03*
X78900000Y-123450000D03*
%TD*%
D29*
%TO.C,C4*%
X125140000Y-122798330D03*
X127040000Y-122798330D03*
%TD*%
D39*
%TO.C,D11*%
X81400000Y-80465000D03*
X83275000Y-80465000D03*
%TD*%
D16*
%TO.C,C18*%
X123386664Y-107250000D03*
X123386664Y-105350000D03*
%TD*%
D40*
%TO.C,D13*%
X53200000Y-21762500D03*
X53200000Y-23637500D03*
%TD*%
D24*
%TO.C,U4*%
X54700000Y-64250000D03*
X57000000Y-64250000D03*
D25*
X57000000Y-57950000D03*
D24*
X59300000Y-64250000D03*
%TD*%
D27*
%TO.C,R27*%
X53200000Y-27112500D03*
X53200000Y-25287500D03*
%TD*%
D12*
%TO.C,TP19*%
X163090000Y-80180000D03*
%TD*%
D18*
%TO.C,L15*%
X57000000Y-79125000D03*
X57000000Y-77000000D03*
%TD*%
D19*
%TO.C,C65*%
X63900000Y-90400000D03*
X63900000Y-92300000D03*
%TD*%
D22*
%TO.C,R29*%
X63900000Y-73580000D03*
X63900000Y-75405000D03*
%TD*%
D29*
%TO.C,C97*%
X135890000Y-136180000D03*
X137790000Y-136180000D03*
%TD*%
D12*
%TO.C,TP7*%
X63490000Y-83500000D03*
%TD*%
D22*
%TO.C,R32*%
X94915000Y-123507500D03*
X94915000Y-125332500D03*
%TD*%
D27*
%TO.C,R4*%
X170010000Y-66832500D03*
X170010000Y-65007500D03*
%TD*%
D41*
%TO.C,D1*%
X129577500Y-107075000D03*
X129577500Y-105175000D03*
X127702500Y-106125000D03*
%TD*%
D19*
%TO.C,C22*%
X115296666Y-105350000D03*
X115296666Y-107250000D03*
%TD*%
%TO.C,C46*%
X161897497Y-95600000D03*
X161897497Y-97500000D03*
%TD*%
D14*
%TO.C,R18*%
X86012500Y-37600000D03*
X84187500Y-37600000D03*
%TD*%
D27*
%TO.C,R5*%
X172610000Y-66832500D03*
X172610000Y-65007500D03*
%TD*%
D12*
%TO.C,TP41*%
X147630000Y-53660000D03*
%TD*%
%TO.C,TP6*%
X63470000Y-60100000D03*
%TD*%
D15*
%TO.C,C21*%
X138110000Y-72120000D03*
X136210000Y-72120000D03*
%TD*%
%TO.C,C94*%
X56150000Y-113400000D03*
X54250000Y-113400000D03*
%TD*%
D42*
%TO.C,D10*%
X87100000Y-88550000D03*
X83100000Y-88550000D03*
%TD*%
D43*
%TO.C,L17*%
X57000000Y-129037500D03*
X57000000Y-131162500D03*
%TD*%
D27*
%TO.C,R41*%
X78900000Y-139612500D03*
X78900000Y-137787500D03*
%TD*%
%TO.C,R43*%
X80900000Y-139612500D03*
X80900000Y-137787500D03*
%TD*%
D34*
%TO.C,R21*%
X92155000Y-96212500D03*
X93980000Y-96212500D03*
%TD*%
D12*
%TO.C,TP9*%
X59830000Y-111290000D03*
%TD*%
%TO.C,TP24*%
X124350000Y-100190000D03*
%TD*%
%TO.C,TP38*%
X147580000Y-50660000D03*
%TD*%
D34*
%TO.C,R24*%
X71600000Y-96250000D03*
X73425000Y-96250000D03*
%TD*%
D15*
%TO.C,C79*%
X100030000Y-108612500D03*
X98130000Y-108612500D03*
%TD*%
D32*
%TO.C,S1*%
X148900000Y-21400000D03*
X154900000Y-21400000D03*
X148900000Y-25150000D03*
X154900000Y-25150000D03*
%TD*%
D29*
%TO.C,C93*%
X54250000Y-117433332D03*
X56150000Y-117433332D03*
%TD*%
D44*
%TO.C,U2*%
X110280000Y-27860000D03*
X110280000Y-29260000D03*
X110280000Y-30660000D03*
X111680000Y-27860000D03*
X111680000Y-29260000D03*
X111680000Y-30660000D03*
X113080000Y-27860000D03*
X113080000Y-29260000D03*
X113080000Y-30660000D03*
D45*
X104430000Y-21540000D03*
X104430000Y-22810000D03*
X104430000Y-24080000D03*
X104430000Y-25350000D03*
X104430000Y-26620000D03*
X104430000Y-27890000D03*
X104430000Y-29160000D03*
X104430000Y-30430000D03*
X104430000Y-31700000D03*
X104430000Y-32970000D03*
X104430000Y-34240000D03*
X104430000Y-35510000D03*
X104430000Y-36780000D03*
X104430000Y-38050000D03*
D46*
X106195000Y-39300000D03*
X107465000Y-39300000D03*
X108735000Y-39300000D03*
X110005000Y-39300000D03*
X111275000Y-39300000D03*
X112545000Y-39300000D03*
X113815000Y-39300000D03*
X115085000Y-39300000D03*
X116355000Y-39300000D03*
X117625000Y-39300000D03*
X118895000Y-39300000D03*
X120165000Y-39300000D03*
D45*
X121930000Y-38050000D03*
X121930000Y-36780000D03*
X121930000Y-35510000D03*
X121930000Y-34240000D03*
X121930000Y-32970000D03*
X121930000Y-31700000D03*
X121930000Y-30430000D03*
X121930000Y-29160000D03*
X121930000Y-27890000D03*
X121930000Y-26620000D03*
X121930000Y-25350000D03*
X121930000Y-24080000D03*
X121930000Y-22810000D03*
X121930000Y-21540000D03*
%TD*%
D18*
%TO.C,L10*%
X61250000Y-42612500D03*
X61250000Y-40487500D03*
%TD*%
D12*
%TO.C,TP4*%
X61500000Y-124710000D03*
%TD*%
D47*
%TO.C,U7*%
X84290000Y-97202500D03*
X84290000Y-98322500D03*
X85410000Y-97202500D03*
X85410000Y-98322500D03*
D48*
X82862500Y-96512500D03*
X82862500Y-97012500D03*
X82862500Y-97512500D03*
X82862500Y-98012500D03*
X82862500Y-98512500D03*
X82862500Y-99012500D03*
D49*
X83600000Y-99750000D03*
X84100000Y-99750000D03*
X84600000Y-99750000D03*
X85100000Y-99750000D03*
X85600000Y-99750000D03*
X86100000Y-99750000D03*
D48*
X86837500Y-99012500D03*
X86837500Y-98512500D03*
X86837500Y-98012500D03*
X86837500Y-97512500D03*
X86837500Y-97012500D03*
X86837500Y-96512500D03*
D49*
X86100000Y-95775000D03*
X85600000Y-95775000D03*
X85100000Y-95775000D03*
X84600000Y-95775000D03*
X84100000Y-95775000D03*
X83600000Y-95775000D03*
%TD*%
D50*
%TO.C,T1*%
X137725000Y-131650000D03*
X136925000Y-131650000D03*
X136925000Y-129350000D03*
X137725000Y-129350000D03*
X133675000Y-129350000D03*
X134475000Y-129350000D03*
X134475000Y-131650000D03*
X133675000Y-131650000D03*
%TD*%
D29*
%TO.C,C10*%
X121340000Y-111671666D03*
X123240000Y-111671666D03*
%TD*%
D15*
%TO.C,C25*%
X138120000Y-76770000D03*
X136220000Y-76770000D03*
%TD*%
D12*
%TO.C,TP28*%
X134150000Y-100190000D03*
%TD*%
D29*
%TO.C,C90*%
X54250000Y-101500000D03*
X56150000Y-101500000D03*
%TD*%
D12*
%TO.C,TP25*%
X129250000Y-100190000D03*
%TD*%
D28*
%TO.C,D4*%
X132170000Y-105020000D03*
X132170000Y-108320000D03*
%TD*%
D22*
%TO.C,R39*%
X94905000Y-137787500D03*
X94905000Y-139612500D03*
%TD*%
D29*
%TO.C,C11*%
X125140000Y-111671666D03*
X127040000Y-111671666D03*
%TD*%
%TO.C,C74*%
X71562500Y-94050000D03*
X73462500Y-94050000D03*
%TD*%
D19*
%TO.C,C69*%
X99000000Y-137770000D03*
X99000000Y-139670000D03*
%TD*%
D12*
%TO.C,TP13*%
X163090000Y-77000000D03*
%TD*%
D18*
%TO.C,L11*%
X57000000Y-29262500D03*
X57000000Y-27137500D03*
%TD*%
D51*
%TO.C,D16*%
X125780000Y-129540000D03*
X125780000Y-133840000D03*
%TD*%
D19*
%TO.C,C101*%
X104820000Y-44350000D03*
X104820000Y-46250000D03*
%TD*%
D12*
%TO.C,TP39*%
X170030000Y-53760000D03*
%TD*%
D16*
%TO.C,C24*%
X165720000Y-70420000D03*
X165720000Y-68520000D03*
%TD*%
%TO.C,C7*%
X121570000Y-119084998D03*
X121570000Y-117184998D03*
%TD*%
D13*
%TO.C,L20*%
X54187500Y-99500000D03*
X56312500Y-99500000D03*
%TD*%
D18*
%TO.C,L14*%
X61600000Y-92462500D03*
X61600000Y-90337500D03*
%TD*%
D29*
%TO.C,C81*%
X92137500Y-100212500D03*
X94037500Y-100212500D03*
%TD*%
D13*
%TO.C,L21*%
X54187500Y-115416666D03*
X56312500Y-115416666D03*
%TD*%
D19*
%TO.C,C89*%
X54480000Y-108250000D03*
X54480000Y-110150000D03*
%TD*%
D52*
%TO.C,L18*%
X89540000Y-102300000D03*
X89540000Y-104600000D03*
%TD*%
D16*
%TO.C,C31*%
X132110000Y-117860000D03*
X132110000Y-115960000D03*
%TD*%
D18*
%TO.C,L12*%
X61350000Y-68862500D03*
X61350000Y-66737500D03*
%TD*%
D27*
%TO.C,R34*%
X99000000Y-125332500D03*
X99000000Y-123507500D03*
%TD*%
D34*
%TO.C,R23*%
X91975000Y-88750000D03*
X93800000Y-88750000D03*
%TD*%
D19*
%TO.C,C42*%
X142990833Y-95600000D03*
X142990833Y-97500000D03*
%TD*%
%TO.C,C92*%
X54480000Y-123650000D03*
X54480000Y-125550000D03*
%TD*%
D52*
%TO.C,L8*%
X150250000Y-73070000D03*
X150250000Y-75370000D03*
%TD*%
D13*
%TO.C,L2*%
X124977500Y-120826664D03*
X127102500Y-120826664D03*
%TD*%
D14*
%TO.C,R16*%
X173565000Y-42480000D03*
X171740000Y-42480000D03*
%TD*%
D15*
%TO.C,C53*%
X92430000Y-26962000D03*
X90530000Y-26962000D03*
%TD*%
D53*
%TO.C,Q1*%
X71662500Y-87600000D03*
X71662500Y-89500000D03*
X73937500Y-88550000D03*
%TD*%
D16*
%TO.C,C15*%
X151220000Y-71250000D03*
X151220000Y-69350000D03*
%TD*%
D29*
%TO.C,C34*%
X173360000Y-87100000D03*
X175260000Y-87100000D03*
%TD*%
D16*
%TO.C,C100*%
X84930000Y-139670000D03*
X84930000Y-137770000D03*
%TD*%
D15*
%TO.C,C51*%
X92430000Y-22870000D03*
X90530000Y-22870000D03*
%TD*%
D29*
%TO.C,C75*%
X86450000Y-92750000D03*
X88350000Y-92750000D03*
%TD*%
D27*
%TO.C,R2*%
X126840000Y-126512500D03*
X126840000Y-124687500D03*
%TD*%
D29*
%TO.C,C60*%
X58750000Y-27430000D03*
X60650000Y-27430000D03*
%TD*%
D12*
%TO.C,TP12*%
X69260000Y-43770000D03*
%TD*%
D15*
%TO.C,C23*%
X138110000Y-74150000D03*
X136210000Y-74150000D03*
%TD*%
D19*
%TO.C,C102*%
X108850000Y-44360000D03*
X108850000Y-46260000D03*
%TD*%
D15*
%TO.C,C56*%
X173332500Y-27565000D03*
X171432500Y-27565000D03*
%TD*%
D22*
%TO.C,R28*%
X64300000Y-49917500D03*
X64300000Y-51742500D03*
%TD*%
D19*
%TO.C,C63*%
X57000000Y-66800000D03*
X57000000Y-68700000D03*
%TD*%
D34*
%TO.C,R19*%
X71587500Y-39100000D03*
X73412500Y-39100000D03*
%TD*%
D29*
%TO.C,C26*%
X173360000Y-79730000D03*
X175260000Y-79730000D03*
%TD*%
D22*
%TO.C,R35*%
X92872500Y-123507500D03*
X92872500Y-125332500D03*
%TD*%
D29*
%TO.C,C38*%
X141350000Y-110120000D03*
X143250000Y-110120000D03*
%TD*%
D16*
%TO.C,C12*%
X153360000Y-70500000D03*
X153360000Y-68600000D03*
%TD*%
D29*
%TO.C,C73*%
X71562500Y-91950000D03*
X73462500Y-91950000D03*
%TD*%
%TO.C,C37*%
X173360000Y-89150000D03*
X175260000Y-89150000D03*
%TD*%
D22*
%TO.C,R47*%
X110950000Y-44397500D03*
X110950000Y-46222500D03*
%TD*%
D54*
%TO.C,U11*%
X80060000Y-134035000D03*
X81330000Y-134035000D03*
X82600000Y-134035000D03*
X83870000Y-134035000D03*
X83870000Y-129085000D03*
X82600000Y-129085000D03*
X81330000Y-129085000D03*
X80060000Y-129085000D03*
%TD*%
D32*
%TO.C,S2*%
X148752500Y-34705000D03*
X154752500Y-34705000D03*
X148752500Y-38455000D03*
X154752500Y-38455000D03*
%TD*%
D19*
%TO.C,C62*%
X59300000Y-66800000D03*
X59300000Y-68700000D03*
%TD*%
M02*
